<svg width="44" height="40" viewBox="0 0 44 40" fill="none" xmlns="http://www.w3.org/2000/svg">
    <path d="M35 0H5C3.67392 0 2.40215 0.526784 1.46447 1.46447C0.526784 2.40215 0 3.67392 0 5L0 35C0 36.3261 0.526784 37.5979 1.46447 38.5355C2.40215 39.4732 3.67392 40 5 40H35C36.3261 40 37.5979 39.4732 38.5355 38.5355C39.4732 37.5979 40 36.3261 40 35C39.9807 34.8479 39.9066 34.708 39.7915 34.6066C39.6765 34.5052 39.5284 34.4492 39.375 34.4492C39.2216 34.4492 39.0735 34.5052 38.9585 34.6066C38.8434 34.708 38.7693 34.8479 38.75 35C38.75 35.9946 38.3549 36.9484 37.6516 37.6516C36.9484 38.3549 35.9946 38.75 35 38.75H5C4.00544 38.75 3.05161 38.3549 2.34835 37.6516C1.64509 36.9484 1.25 35.9946 1.25 35V10.55H38.75V22.22C38.7693 22.3721 38.8434 22.512 38.9585 22.6134C39.0735 22.7148 39.2216 22.7708 39.375 22.7708C39.5284 22.7708 39.6765 22.7148 39.7915 22.6134C39.9066 22.512 39.9807 22.3721 40 22.22V5C40 3.67392 39.4732 2.40215 38.5355 1.46447C37.5979 0.526784 36.3261 0 35 0V0ZM1.25 9.3V5C1.25 4.00544 1.64509 3.05161 2.34835 2.34835C3.05161 1.64509 4.00544 1.25 5 1.25H35C35.9946 1.25 36.9484 1.64509 37.6516 2.34835C38.3549 3.05161 38.75 4.00544 38.75 5V9.3H1.25Z" fill="#18CFE2" />
    <path d="M20 16H18V17.5H20V29H22V16H20Z" fill="#18CFE2" />
    <path d="M39.3999 24C39.0641 24 38.7918 24.2723 38.7918 24.6081V27.8919H35.508C35.1722 27.8919 34.8999 28.1641 34.8999 28.5C34.8999 28.8359 35.1722 29.1081 35.508 29.1081H38.7918V32.3919C38.7918 32.7277 39.0641 33 39.3999 33C39.7357 33 40.008 32.7277 40.008 32.3919V29.1081H43.2918C43.6276 29.1081 43.8999 28.8359 43.8999 28.5C43.8999 28.1641 43.6276 27.8919 43.2918 27.8919H40.008V24.6081C40.008 24.2723 39.7357 24 39.3999 24Z" fill="#18CFE2" />
</svg>