<svg width="22" height="20" viewBox="0 0 22 20" fill="none" xmlns="http://www.w3.org/2000/svg">
    <path d="M20.9734 7.83818C20.9099 7.65353 20.7407 7.51911 20.537 7.49106L14.2822 6.63332L11.4849 1.28438C11.3939 1.11018 11.206 1 11.0001 1C10.7941 1 10.6063 1.11018 10.5152 1.28438L7.71796 6.63332L1.46292 7.49106C1.25914 7.51886 1.08995 7.65353 1.02644 7.83818C0.962927 8.02284 1.0159 8.22561 1.16319 8.36104L5.68934 12.5245L4.62098 18.4037C4.58639 18.595 4.6699 18.7886 4.83611 18.9026C5.00287 19.0168 5.22367 19.0316 5.40529 18.9413L11.0001 16.1659L16.5946 18.9416C16.6738 18.9806 16.76 19 16.8462 19C16.9581 19 17.0697 18.9671 17.164 18.9026C17.3302 18.7886 17.4138 18.595 17.3792 18.4037L16.3108 12.5245L20.837 8.36104C20.984 8.22561 21.0372 8.02284 20.9734 7.83818Z" fill="#18CFE2" stroke="#18CFE2" stroke-width="0.5" />
</svg>