<?xml version="1.0" encoding="UTF-8" standalone="no"?>
<!-- Generator: Adobe Illustrator 19.2.1, SVG Export Plug-In . SVG Version: 6.00 Build 0)  -->

<svg
   xmlns:dc="http://purl.org/dc/elements/1.1/"
   xmlns:cc="http://creativecommons.org/ns#"
   xmlns:rdf="http://www.w3.org/1999/02/22-rdf-syntax-ns#"
   xmlns:svg="http://www.w3.org/2000/svg"
   xmlns="http://www.w3.org/2000/svg"
   xmlns:sodipodi="http://sodipodi.sourceforge.net/DTD/sodipodi-0.dtd"
   xmlns:inkscape="http://www.inkscape.org/namespaces/inkscape"
   version="1.1"
   id="layer"
   x="0px"
   y="0px"
   viewBox="0 0 652 652"
   style="enable-background:new 0 0 652 652;"
   xml:space="preserve"
   sodipodi:docname="dubrovnik-tours-logo.svg"
   inkscape:export-filename="C:\Users\Administrator\Desktop\WebDevelopment\mariotravel\Source\DubrovnikTours.Web\wwwroot\favicon.png"
   inkscape:export-xdpi="75.386505"
   inkscape:export-ydpi="75.386505"
   inkscape:version="0.92.4 (5da689c313, 2019-01-14)"><metadata
   id="metadata71"><rdf:RDF><cc:Work
       rdf:about=""><dc:format>image/svg+xml</dc:format><dc:type
         rdf:resource="http://purl.org/dc/dcmitype/StillImage" /><dc:title></dc:title></cc:Work></rdf:RDF></metadata><defs
   id="defs69">
	
	
	
	
	
	
	
	
	
	
	
	
	
	
	
	
	
	
	
	
	
	
	
	
	
	
	
	
	
	
</defs><sodipodi:namedview
   pagecolor="#ffffff"
   bordercolor="#666666"
   borderopacity="1"
   objecttolerance="10"
   gridtolerance="10"
   guidetolerance="10"
   inkscape:pageopacity="0"
   inkscape:pageshadow="2"
   inkscape:window-width="1366"
   inkscape:window-height="745"
   id="namedview67"
   showgrid="false"
   inkscape:zoom="0.51189325"
   inkscape:cx="178.5808"
   inkscape:cy="375.15048"
   inkscape:window-x="-8"
   inkscape:window-y="-8"
   inkscape:window-maximized="1"
   inkscape:current-layer="layer" />
<style
   type="text/css"
   id="style2">
	.st0{fill:#ED8C00;}
	.st1{fill:#005C9C;}
	.st2{fill:#E17300;}
</style>
<g
   id="g925"
   transform="matrix(1.0712682,0,0,1.0712682,-19.056756,-16.801319)"><ellipse
     ry="297.55807"
     rx="300"
     cy="318.3945"
     cx="322"
     id="path908"
     style="fill:#ffffff;fill-opacity:1;stroke:none;stroke-width:0.36948764;stroke-linejoin:round;stroke-miterlimit:4;stroke-dasharray:none;stroke-dashoffset:0;stroke-opacity:1" /><path
     class="st0"
     d="m 606.03494,426.55835 c 12.33777,-32.84512 19.00683,-68.35788 19.00683,-105.53789 0,-166.22637 -134.71504,-300.774699 -300.77468,-300.774699 -166.22636,0 -300.774683,134.715049 -300.774683,300.774699 0,153.72187 115.374773,280.60076 264.261573,298.60723 l 10.17031,-13.33812 C 152.03857,592.95145 37.997617,470.40743 37.997617,321.02046 c 0,-158.2235 128.212713,-286.436211 286.436193,-286.436211 158.2235,0 286.43622,128.212711 286.43622,286.436211 0,31.34459 -5.00181,61.52209 -14.33849,89.69887"
     id="path4"
     inkscape:connector-curvature="0"
     style="fill:#004455;stroke-width:1.66726553" /><path
     class="st1"
     d="m 82.180152,193.64137 c 5.835424,0.16673 11.837585,0.33346 17.673011,0.6669 v 2.50091"
     id="path36"
     inkscape:connector-curvature="0"
     style="fill:#001820;fill-opacity:1;stroke-width:1.66726553" /><path
     class="st1"
     d="m 122.86143,195.97555 c 7.33597,0.66691 14.67193,1.50053 22.0079,2.33416 l -3.50126,2.66764 c -6.66905,-1.00036 -13.1714,-1.66728 -19.84047,-2.33418"
     id="path38"
     inkscape:connector-curvature="0"
     style="fill:#001820;fill-opacity:1;stroke-width:1.66726553" /><path
     class="st1"
     d="m 157.04036,199.97699 c 6.50234,1.00036 12.83795,2.00071 19.17355,3.1678 l -4.33488,3.00107 c -6.16889,-1.16707 -12.33777,-2.33416 -18.67337,-3.33453"
     id="path40"
     inkscape:connector-curvature="0"
     style="fill:#001820;fill-opacity:1;stroke-width:1.66726553" /><path
     class="st1"
     d="m 184.88369,204.64533 c 13.67159,2.66762 27.17644,5.6687 40.51456,9.16996 l -6.66906,3.83471 c -12.17104,-3.66799 -24.67553,-6.8358 -37.51348,-9.67014"
     id="path42"
     inkscape:connector-curvature="0"
     style="fill:#001820;fill-opacity:1;stroke-width:1.66726553" /><path
     class="st1"
     d="m 249.40687,220.65108 c 17.33956,5.33524 34.17895,11.17068 50.35142,17.83973 l -11.67086,5.50199 c -14.83866,-6.8358 -30.17751,-13.17141 -46.18325,-18.67338"
     id="path44"
     inkscape:connector-curvature="0"
     style="fill:#001820;fill-opacity:1;stroke-width:1.66726553" /><path
     class="st1"
     d="m 321.09928,247.49405 c 17.00611,7.66941 33.17858,16.00574 48.3507,24.67553 l -19.00681,6.00215 c -13.67159,-8.8365 -28.17679,-17.33955 -43.51564,-25.1757"
     id="path46"
     inkscape:connector-curvature="0"
     style="fill:#001820;fill-opacity:1;stroke-width:1.66726553" /><path
     class="st1"
     d="m 395.2926,288.50878 c 17.17283,11.67086 32.67841,24.00862 46.01652,36.67984 l -25.00898,6.33561 c -12.00431,-12.17105 -25.67588,-24.17536 -40.68127,-35.67949"
     id="path48"
     inkscape:connector-curvature="0"
     style="fill:#001820;fill-opacity:1;stroke-width:1.66726553" /><path
     class="st1"
     d="m 460.98285,346.52961 c 4.50162,5.50199 8.66978,11.17068 12.50449,16.83939 9.16997,14.00503 16.50593,27.50987 22.00792,40.18109 l -24.84226,8.66979 c -5.16853,-12.67123 -11.83759,-25.67589 -20.6741,-39.01401 -4.50162,-6.8358 -9.50341,-13.67159 -15.00538,-20.34064"
     id="path50"
     inkscape:connector-curvature="0"
     style="fill:#001820;fill-opacity:1;stroke-width:1.66726553" /><path
     class="st1"
     d="m 479.82296,440.0632 c 14.33847,57.6874 -1.834,100.36939 -1.834,100.36939 0,0 17.67302,-13.17141 31.67804,-24.17536 0,0 11.17069,-33.34531 -3.83471,-84.69708"
     id="path54"
     inkscape:connector-curvature="0"
     style="fill:#001820;fill-opacity:1;stroke-width:1.66726553" /><path
     class="st1"
     d="M 304.59335,593.61835 C 162.8758,583.61475 51.002287,465.40565 51.002287,321.02046 c 0,-43.51563 10.170319,-84.69709 28.343515,-121.2102 l 0.166725,-0.33346 c 209.741983,26.67624 273.598243,169.72763 273.598243,255.75851 0,53.35251 -27.67659,106.0381 -48.85086,138.7165"
     id="path56"
     inkscape:connector-curvature="0"
     style="fill:#001820;fill-opacity:1;stroke-width:1.66726553" /><path
     class="st2"
     d="m 84.180865,190.30684 c 48.350695,-2.16744 349.125385,-6.50232 502.013615,207.908 l 0.33346,-0.16672 c 7.16924,-24.34208 11.00396,-50.35142 11.00396,-77.02766 0,-150.88753 -122.37728,-273.264818 -273.43153,-273.264818 -103.37046,0 -193.56952,57.520658 -239.919505,142.551198"
     id="path58"
     inkscape:connector-curvature="0"
     style="fill:#001820;fill-opacity:1;stroke-width:1.66726553" /><path
     sodipodi:nodetypes="csscccc"
     class="st0"
     d="m 555.17972,174.84586 c 0,0 -27.34003,-51.14615 -90.20089,-88.78444 -35.57003,-21.29775 -85.3974,-38.949092 -140.46279,-38.949092 -103.64461,0 -193.77037,57.887342 -240.168449,143.292152 v 0 c 19.527249,-0.83895 80.278679,-2.18126 155.717279,10.90632 0,0 117.33889,-79.65419 315.11485,-26.46494"
     id="path60"
     inkscape:connector-curvature="0"
     style="fill:#18b0d0;fill-opacity:1;stroke:none;stroke-width:1.67343891" /><path
     class="st1"
     d="m 60.505701,393.5465 c -6.33561,-23.00827 -9.67014,-47.18361 -9.67014,-72.19259 0,-43.51563 10.170319,-84.69709 28.343514,-121.2102 l 0.166727,-0.33345 c 44.182528,5.6687 81.695998,16.3392 113.707498,30.67768 0,0 -79.52857,46.01653 -132.547599,163.05856"
     id="path62"
     inkscape:connector-curvature="0"
     style="fill:#18b0d0;fill-opacity:1;stroke-width:1.66726553" /></g>
</svg>