<?xml version="1.0" encoding="UTF-8" standalone="no" ?>
<svg xmlns:dc="http://purl.org/dc/elements/1.1/"
     xmlns:cc="http://creativecommons.org/ns#"
     xmlns:rdf="http://www.w3.org/1999/02/22-rdf-syntax-ns#"
     xmlns:svg="http://www.w3.org/2000/svg"
     xmlns="http://www.w3.org/2000/svg"
     xmlns:sodipodi="http://sodipodi.sourceforge.net/DTD/sodipodi-0.dtd"
     xmlns:inkscape="http://www.inkscape.org/namespaces/inkscape"
     width="254"
     height="254"
     viewBox="0 0 254 254"
     fill="none"
     version="1.1"
     id="svg8"
     sodipodi:docname="info-illustration.svg"
     inkscape:version="0.92.1 r15371">
    <metadata id="metadata14">
        <rdf:RDF>
            <cc:Work rdf:about="">
                <dc:format>image/svg+xml</dc:format>
                <dc:type rdf:resource="http://purl.org/dc/dcmitype/StillImage" />
                <dc:title></dc:title>
            </cc:Work>
        </rdf:RDF>
    </metadata>
    <defs id="defs12" />
    <sodipodi:namedview pagecolor="#ffffff"
                        bordercolor="#666666"
                        borderopacity="1"
                        objecttolerance="10"
                        gridtolerance="10"
                        guidetolerance="10"
                        inkscape:pageopacity="0"
                        inkscape:pageshadow="2"
                        inkscape:window-width="1366"
                        inkscape:window-height="705"
                        id="namedview10"
                        showgrid="false"
                        inkscape:zoom="0.92913386"
                        inkscape:cx="127"
                        inkscape:cy="127"
                        inkscape:window-x="-8"
                        inkscape:window-y="-8"
                        inkscape:window-maximized="1"
                        inkscape:current-layer="svg8" />
    <path d="M254 127C254 197.14 197.14 254 127 254C56.8598 254 0 197.14 0 127C0 56.8598 56.8598 0 127 0C197.14 0 254 56.8598 254 127Z"
          fill="#E3F8FB"
          id="path2"
          style="fill:#1868b3;fill-opacity:1;opacity:0.27" />
    <path d="M127.419 90.2701C124.923 90.2701 122.811 89.4061 121.083 87.6781C119.355 85.9501 118.491 83.8381 118.491 81.3421C118.491 78.8461 119.355 76.7341 121.083 75.0061C122.811 73.2781 124.923 72.4141 127.419 72.4141C129.819 72.4141 131.835 73.2781 133.467 75.0061C135.195 76.7341 136.059 78.8461 136.059 81.3421C136.059 83.8381 135.195 85.9501 133.467 87.6781C131.835 89.4061 129.819 90.2701 127.419 90.2701ZM133.755 103.086V181.998H120.651V103.086H133.755Z"
          fill="white"
          id="path6" />
</svg>