<?xml version="1.0" encoding="UTF-8" standalone="no"?>
<svg
   xmlns:dc="http://purl.org/dc/elements/1.1/"
   xmlns:cc="http://creativecommons.org/ns#"
   xmlns:rdf="http://www.w3.org/1999/02/22-rdf-syntax-ns#"
   xmlns:svg="http://www.w3.org/2000/svg"
   xmlns="http://www.w3.org/2000/svg"
   xmlns:sodipodi="http://sodipodi.sourceforge.net/DTD/sodipodi-0.dtd"
   xmlns:inkscape="http://www.inkscape.org/namespaces/inkscape"
   width="171"
   height="121"
   viewBox="0 0 171 121"
   fill="none"
   version="1.1"
   id="svg8"
   sodipodi:docname="quotes.svg"
   inkscape:version="0.92.4 (5da689c313, 2019-01-14)">
  <metadata
     id="metadata14">
    <rdf:RDF>
      <cc:Work
         rdf:about="">
        <dc:format>image/svg+xml</dc:format>
        <dc:type
           rdf:resource="http://purl.org/dc/dcmitype/StillImage" />
        <dc:title></dc:title>
      </cc:Work>
    </rdf:RDF>
  </metadata>
  <defs
     id="defs12" />
  <sodipodi:namedview
     pagecolor="#ffffff"
     bordercolor="#666666"
     borderopacity="1"
     objecttolerance="10"
     gridtolerance="10"
     guidetolerance="10"
     inkscape:pageopacity="0"
     inkscape:pageshadow="2"
     inkscape:window-width="1366"
     inkscape:window-height="745"
     id="namedview10"
     showgrid="false"
     inkscape:zoom="1.6608187"
     inkscape:cx="-12.343311"
     inkscape:cy="60.5"
     inkscape:window-x="-8"
     inkscape:window-y="-8"
     inkscape:window-maximized="1"
     inkscape:current-layer="svg8" />
  <path
     inkscape:connector-curvature="0"
     style="fill:#18b0d0;fill-opacity:1;opacity:0.314"
     id="path2"
     d="m 88.9199,40.8215 c 0,-4.2318 0.6464,-8.3157 1.8502,-12.1563 C 95.972,12.0576 111.552,0 129.96,0 138.182,0 145.836,2.40677 152.257,6.54845 163.538,13.8215 171,26.454 171,40.8215 c 0,21.6456 -16.936,39.3536 -38.347,40.733 4.388,15.9153 13.72,29.6875 26.172,39.4455 -38.899,-1.783 -69.9051,-34.8599 -69.9051,-75.4041 0,-0.9049 0.0205,-1.8063 0.0496,-2.7061 -0.0325,-0.6821 -0.0496,-1.3726 -0.0496,-2.0683 z" />
  <path
     inkscape:connector-curvature="0"
     style="fill:#18b0d0;fill-opacity:1;opacity:0.314"
     id="path4"
     d="M -9.93977e-6,40.8215 C -9.93977e-6,36.5897 0.648081,32.5058 1.85021,28.6652 7.05033,12.0576 22.6302,0 41.04,0 49.2634,0 56.914,2.40677 63.3368,6.54845 74.6159,13.8215 82.0801,26.454 82.0801,40.8215 c 0,21.6456 -16.9359,39.3536 -38.3485,40.733 C 48.1194,97.4698 57.4509,111.242 69.9032,121 31.004,119.217 -9.93977e-6,86.1401 -9.93977e-6,45.5959 -9.93977e-6,44.691 0.020505,43.7896 0.0495743,42.8898 0.0170884,42.2077 -9.93977e-6,41.5172 -9.93977e-6,40.8215 Z" />
</svg>
