<?xml version="1.0" encoding="UTF-8" standalone="no" ?>
<svg xmlns:dc="http://purl.org/dc/elements/1.1/"
     xmlns:cc="http://creativecommons.org/ns#"
     xmlns:rdf="http://www.w3.org/1999/02/22-rdf-syntax-ns#"
     xmlns:svg="http://www.w3.org/2000/svg"
     xmlns="http://www.w3.org/2000/svg"
     xmlns:sodipodi="http://sodipodi.sourceforge.net/DTD/sodipodi-0.dtd"
     xmlns:inkscape="http://www.inkscape.org/namespaces/inkscape"
     inkscape:version="1.0 (4035a4fb49, 2020-05-01)"
     sodipodi:docname="white.svg"
     inkscape:export-ydpi="95.699997"
     inkscape:export-xdpi="95.699997"
     inkscape:export-filename="C:\Users\Administrator\Desktop\WebDevelopment\mariotravel\Source\MarioTravel.Admin\wwwroot\img\brand\blue.png"
     id="svg8"
     version="1.1"
     viewBox="0 0 128.85208 38.100001"
     height="144"
     width="487">
    <defs id="defs2">
        <filter height="1.0061839"
                y="-0.0030919649"
                width="1.0014889"
                x="-0.00074446432"
                id="filter3677"
                style="color-interpolation-filters:sRGB"
                inkscape:collect="always">
            <feGaussianBlur id="feGaussianBlur3679"
                            stdDeviation="0.021609777"
                            inkscape:collect="always" />
        </filter>
    </defs>
    <sodipodi:namedview inkscape:window-maximized="1"
                        inkscape:window-y="-8"
                        inkscape:window-x="-8"
                        inkscape:window-height="705"
                        inkscape:window-width="1366"
                        inkscape:guide-bbox="true"
                        showguides="true"
                        units="px"
                        showgrid="false"
                        inkscape:document-rotation="0"
                        inkscape:current-layer="svg8"
                        inkscape:document-units="mm"
                        inkscape:cy="-29.748013"
                        inkscape:cx="324.8101"
                        inkscape:zoom="0.98994949"
                        inkscape:pageshadow="2"
                        inkscape:pageopacity="0.0"
                        borderopacity="1.0"
                        bordercolor="#666666"
                        pagecolor="#ffffff"
                        id="base" />
    <metadata id="metadata5">
        <rdf:RDF>
            <cc:Work rdf:about="">
                <dc:format>image/svg+xml</dc:format>
                <dc:type rdf:resource="http://purl.org/dc/dcmitype/StillImage" />
                <dc:title />
            </cc:Work>
        </rdf:RDF>
    </metadata>
    <g id="g5644">
        <text inkscape:export-xdpi="95.699997"
              inkscape:export-ydpi="95.699997"
              xml:space="preserve"
              style="font-style:normal;font-weight:normal;font-size:23.19540024px;line-height:2.6500001;font-family:sans-serif;letter-spacing:0px;word-spacing:0px;fill:#626fe4;fill-opacity:0.98823529;stroke:none;stroke-width:0.57988799;filter:url(#filter3677)"
              x="46.03088"
              y="30.766975"
              id="text2666"
              transform="matrix(1.1465702,0,0,1.0378832,-29.989364,1.5558117)"><tspan sodipodi:role="line"
                                                                                      id="tspan2664"
                                                                                      x="46.03088"
                                                                                      y="30.766975"
                                                                                      style="font-style:normal;font-variant:normal;font-weight:normal;font-stretch:normal;font-family:'Bauhaus 93';-inkscape-font-specification:'Bauhaus 93, ';fill:#626fe4;fill-opacity:0.98823529;stroke-width:0.57988799">ADMIN</tspan></text>
        <g style="fill:#626fe4;fill-opacity:0.98823529"
           id="g3738"
           transform="matrix(0.22030924,-0.22030924,0.22030924,0.22030924,-3.91208,7.3037361)">
            <path inkscape:connector-curvature="0"
                  id="path3708"
                  d="m 17.199276,78.72423 c -0.06795,-0.06795 -0.123511,-0.227074 -0.123511,-0.35366 0,-0.126594 -0.04621,-0.258724 -0.102704,-0.293636 -0.05651,-0.0349 -0.102704,-0.173565 -0.102704,-0.308119 0,-0.134548 -0.04621,-0.273201 -0.102704,-0.308113 -0.05651,-0.0349 -0.102704,-0.153809 -0.102704,-0.264216 0,-0.110408 -0.04141,-0.28099 -0.0921,-0.379081 -0.05064,-0.09808 -0.233683,-0.640508 -0.40674,-1.205384 C 15.993052,75.047145 15.714981,74.145918 15.548182,73.60928 15.381374,73.072649 15.16694,72.356288 15.07166,72.017363 14.97638,71.678437 14.863233,71.308698 14.820222,71.19573 14.633176,70.704411 14.50815,70.241023 14.50815,70.039069 c 0,-0.119756 -0.04622,-0.246292 -0.102704,-0.281204 -0.05648,-0.0349 -0.102705,-0.196675 -0.102705,-0.359468 0,-0.162793 -0.04622,-0.324556 -0.102704,-0.359468 -0.05648,-0.0349 -0.102705,-0.196668 -0.102705,-0.359468 0,-0.162793 -0.04111,-0.321395 -0.09136,-0.352451 -0.05025,-0.03104 -0.117006,-0.207089 -0.148356,-0.391204 -0.03135,-0.184108 -0.105782,-0.554269 -0.165405,-0.822585 -0.251034,-1.129709 -0.328013,-1.487847 -0.41392,-1.925714 -0.04988,-0.254189 -0.164527,-0.831904 -0.254789,-1.283805 -0.09026,-0.451894 -0.213373,-1.07583 -0.27358,-1.38651 -0.06021,-0.31068 -0.153858,-0.772852 -0.208114,-1.027048 -0.05426,-0.254189 -0.140601,-0.693252 -0.191877,-0.975691 -0.05128,-0.282437 -0.143072,-0.767716 -0.203988,-1.078397 -0.06092,-0.310681 -0.153026,-0.79596 -0.204687,-1.078398 -0.116704,-0.63804 -0.29414,-1.584158 -0.423747,-2.2595 C 11.463313,55.815721 11.37711,55.35355 11.325957,55.071113 11.070663,53.661542 11.13299,53.767618 10.414729,53.520286 9.6673699,53.262934 9.1081528,52.776058 8.7419234,52.063881 8.540359,51.671913 8.501303,51.446301 8.508113,50.713244 c 0.0088,-0.94713 0.1697003,-1.376981 0.7461358,-1.993306 1.1816842,-1.263456 3.6002132,-0.917107 4.3206292,0.618742 0.07458,0.159 0.176429,0.369345 0.226326,0.467432 0.134216,0.26384 0.110068,1.667609 -0.03439,1.9993 -0.247523,0.568323 -0.61746,1.045904 -1.012848,1.307559 -0.232821,0.154073 -0.402605,0.348457 -0.402605,0.460935 0,0.179323 0.248431,0.688077 1.057093,2.164787 0.170132,0.31068 0.480888,0.888393 0.69057,1.283806 0.627021,1.182426 1.888796,3.366429 2.238844,3.875203 0.179894,0.26147 0.327081,0.524843 0.327081,0.585275 0,0.06044 0.04621,0.109871 0.102704,0.109871 0.05651,0 0.102704,0.04735 0.102704,0.105272 0,0.100129 1.246425,2.008678 2.182114,3.341278 0.752882,1.072253 2.217125,2.786687 2.927936,3.428217 1.352906,1.221056 2.423192,1.538996 3.271712,0.971924 1.047712,-0.700189 1.918204,-1.854547 3.554554,-4.713661 0.292841,-0.511668 2.266636,-4.471228 2.58577,-5.18722 0.16363,-0.367112 0.433998,-0.967888 0.600811,-1.335057 0.719787,-1.58431 0.763697,-1.686009 1.50791,-3.491954 0.290982,-0.706093 0.573424,-1.387795 0.627655,-1.514892 0.05422,-0.127097 0.140112,-0.335074 0.190838,-0.46217 0.05071,-0.127098 0.166269,-0.4044 0.256764,-0.616227 0.09049,-0.211829 0.238568,-0.558457 0.329055,-0.770285 0.09049,-0.211828 0.201324,-0.477576 0.246293,-0.590551 0.04499,-0.112975 0.151585,-0.367169 0.236922,-0.564875 0.463088,-1.07281 0.671607,-1.667679 0.626117,-1.786215 -0.02804,-0.07309 -0.277356,-0.235192 -0.554019,-0.360228 -0.681027,-0.307787 -1.564093,-1.273603 -1.840885,-2.013393 -0.382291,-1.021764 -0.266083,-2.384646 0.280203,-3.286244 0.574332,-0.947885 1.307788,-1.462808 2.407085,-1.689898 1.426807,-0.294746 3.04526,0.512034 3.673401,1.831153 0.124398,0.261235 0.267336,0.555225 0.31764,0.653312 0.05028,0.09809 0.09147,0.609838 0.09147,1.137226 0,0.851015 -0.0339,1.028929 -0.30161,1.581518 -0.354326,0.731461 -1.094319,1.478993 -1.773365,1.791415 -0.265676,0.122237 -0.503264,0.274925 -0.527969,0.339307 -0.03576,0.09312 0.729515,2.093918 1.268627,3.316939 0.056,0.127097 0.143367,0.335074 0.194093,0.46217 0.05071,0.127097 0.162665,0.392845 0.248753,0.590552 0.08608,0.197706 0.254962,0.609935 0.375297,0.916066 0.120328,0.30613 0.304465,0.745192 0.409193,0.975693 0.104721,0.2305 0.361506,0.835046 0.570627,1.343434 0.20912,0.508388 0.472822,1.132318 0.586012,1.386511 0.598107,1.34321 0.740673,1.65916 1.08811,2.41151 0.459046,0.994017 2.260971,4.585881 2.551445,5.085926 1.640155,2.823416 2.699855,4.162775 3.717648,4.698733 0.382578,0.20146 1.187159,0.158352 1.629382,-0.0873 1.166646,-0.648075 2.284875,-1.766634 4.016755,-4.017942 0.292076,-0.379667 0.531044,-0.733999 0.531044,-0.787393 0,-0.05343 0.04113,-0.112497 0.09145,-0.131329 0.119813,-0.04485 2.270756,-3.332981 2.270756,-3.471284 0,-0.05844 0.04621,-0.106258 0.102704,-0.106258 0.05651,0 0.102705,-0.04945 0.102705,-0.109875 0,-0.06043 0.138645,-0.311399 0.308112,-0.557705 0.169459,-0.246304 0.308112,-0.472832 0.308112,-0.503393 0,-0.03056 0.212819,-0.415078 0.47293,-0.854484 0.260118,-0.439405 0.704495,-1.234486 0.987516,-1.766847 0.283014,-0.53236 0.594152,-1.110073 0.691413,-1.283806 0.74407,-1.329041 1.134687,-2.120779 1.134687,-2.299855 0,-0.120285 -0.142765,-0.311052 -0.33379,-0.446015 -1.416185,-1.000572 -1.639189,-3.144893 -0.455806,-4.382947 0.848548,-0.887748 2.218342,-1.097075 3.316286,-0.506781 0.955795,0.513866 1.582777,1.951642 1.33358,3.058104 -0.06144,0.272756 -0.14632,0.530552 -0.188649,0.572881 -0.04234,0.04233 -0.07764,0.150135 -0.07846,0.239574 -7.15e-4,0.08944 -0.245599,0.401224 -0.543941,0.692859 -0.41387,0.404567 -0.682701,0.571017 -1.134222,0.702279 -0.640508,0.1862 -0.727949,0.298196 -0.902014,1.155358 -0.04878,0.240072 -0.134862,0.644471 -0.191354,0.898665 -0.05651,0.254194 -0.143853,0.658593 -0.194157,0.898665 -0.136264,0.650386 -0.32746,1.513316 -0.438039,1.977062 -0.05386,0.22595 -0.136372,0.595686 -0.183314,0.821636 -0.04692,0.225951 -0.164517,0.780555 -0.261284,1.232454 -0.09677,0.451901 -0.217589,1.018063 -0.268502,1.258133 -0.05093,0.240069 -0.141349,0.656021 -0.200973,0.924337 -0.05958,0.268315 -0.131808,0.649606 -0.160426,0.847311 -0.02861,0.197712 -0.09222,0.451901 -0.141349,0.564876 -0.04914,0.112975 -0.113534,0.344061 -0.143095,0.513528 -0.05035,0.288671 -0.119284,0.612955 -0.371063,1.745977 L 59.69815,67.292956 59.492742,68.2173 c -0.05651,0.254189 -0.146914,0.65859 -0.200945,0.898659 -0.054,0.240077 -0.144103,0.667588 -0.200165,0.950022 -0.05608,0.282435 -0.223026,0.975693 -0.371034,1.540569 -0.256042,0.977209 -0.31141,1.178712 -0.571471,2.079768 -0.06115,0.211824 -0.135792,0.512805 -0.165897,0.668839 -0.03011,0.156026 -0.09563,0.308963 -0.145606,0.339848 -0.05,0.0309 -0.09086,0.189351 -0.09086,0.352144 0,0.1628 -0.04621,0.324556 -0.102704,0.359468 -0.05651,0.03491 -0.102704,0.196668 -0.102704,0.359468 0,0.162793 -0.04621,0.324556 -0.102705,0.359461 -0.0565,0.0349 -0.102704,0.173565 -0.102704,0.308119 0,0.134548 -0.04621,0.273201 -0.102704,0.308113 -0.05651,0.0349 -0.102711,0.153802 -0.102711,0.264216 0,0.110408 -0.0412,0.28099 -0.09153,0.379081 -0.05035,0.09808 -0.177992,0.455642 -0.283665,0.794567 l -0.19214,0.616225 -19.620206,0.02596 c -15.17529,0.02003 -19.648194,-0.0021 -19.743717,-0.09757 z"
                  style="fill:#626fe4;fill-opacity:0.98823529;stroke:#fefefe;stroke-width:0.122663;stroke-linejoin:round;stroke-miterlimit:4;stroke-dasharray:none;stroke-dashoffset:0;stroke-opacity:1" />
            <path inkscape:connector-curvature="0"
                  id="path3710"
                  d="m 24.004377,67.331261 c -0.868075,-0.328125 -2.12264,-1.631958 -3.526802,-3.665312 -0.647982,-0.938327 -0.717999,-1.085027 -0.612713,-1.283805 0.06538,-0.123432 0.535472,-0.917671 1.044659,-1.764986 0.509178,-0.847312 1.050272,-1.771653 1.202422,-2.054091 0.152157,-0.282437 0.444663,-0.820326 0.650014,-1.195308 0.205358,-0.374982 0.370869,-0.744718 0.367801,-0.821636 -0.0029,-0.07692 -0.222596,-0.278502 -0.487843,-0.447965 -0.926934,-0.592199 -1.297438,-1.88332 -0.827405,-2.883281 0.278729,-0.592964 0.668953,-0.983191 1.261918,-1.261917 0.487521,-0.229162 1.233243,-0.294165 1.342714,-0.11704 0.0349,0.05648 0.143302,0.102704 0.240871,0.102704 0.265082,0 0.997765,0.710325 1.240539,1.202687 0.291032,0.590216 0.290166,1.527905 -0.0021,2.055059 -0.287213,0.518403 -0.668525,0.911361 -1.029402,1.060843 -0.359067,0.148728 -0.366849,0.269846 -0.05393,0.83867 0.133181,0.242076 0.533054,0.971635 0.88861,1.621241 0.355555,0.649607 0.778087,1.374298 0.938957,1.610426 0.160876,0.236127 0.292498,0.449368 0.292498,0.473868 0,0.02451 0.371305,0.637342 0.825123,1.361878 0.453818,0.72453 0.803773,1.37297 0.777673,1.440969 -0.202719,0.528291 -2.11249,2.734473 -2.854644,3.297704 -0.783473,0.594596 -1.05691,0.664505 -1.679179,0.429292 z"
                  style="fill:#626fe4;fill-opacity:0.98823529;stroke:#fefefe;stroke-width:0.122663;stroke-linejoin:round;stroke-miterlimit:4;stroke-dasharray:none;stroke-dashoffset:0;stroke-opacity:1" />
            <path inkscape:connector-curvature="0"
                  id="path3712"
                  d="m 49.193623,67.342791 c -0.871473,-0.3308 -2.180405,-1.690223 -3.645163,-3.785776 -0.617176,-0.882959 -0.661422,-0.981028 -0.532869,-1.181101 0.44756,-0.696519 1.929642,-3.194599 2.23166,-3.761495 0.614608,-1.153631 0.861216,-1.588781 0.957454,-1.689489 0.174938,-0.183054 0.09808,-0.534839 -0.140627,-0.643596 -0.400918,-0.182672 -0.888188,-0.648104 -1.033922,-0.987584 -0.405431,-0.944412 -0.372379,-1.663427 0.112267,-2.442748 0.338346,-0.544063 1.286001,-1.117786 1.846321,-1.117786 0.33158,0 0.955636,0.211162 1.140216,0.385813 0.07502,0.07098 0.223769,0.175818 0.330572,0.232975 0.106795,0.05716 0.322725,0.322602 0.479839,0.589878 0.243231,0.413777 0.284137,0.592743 0.275425,1.20489 -0.01452,1.021175 -0.342466,1.610468 -1.18781,2.134477 -0.30759,0.190667 -0.298228,0.381174 0.04899,0.998011 0.248124,0.440747 0.59943,1.073487 0.955129,1.720302 0.51739,0.94084 0.801012,1.417211 1.189026,1.997103 0.215257,0.321702 0.391376,0.63367 0.391376,0.693258 0,0.05958 0.04621,0.108341 0.102704,0.108341 0.05651,0 0.102704,0.04477 0.102704,0.0995 0,0.05472 0.207976,0.421002 0.462172,0.813944 0.254189,0.392942 0.462172,0.746695 0.462172,0.78612 0,0.145835 -0.982867,1.457227 -1.660439,2.215438 -0.769448,0.861023 -1.60917,1.545712 -2.093765,1.707189 -0.24376,0.08122 -0.420465,0.06394 -0.793466,-0.07766 z"
                  style="fill:#626fe4;fill-opacity:0.98823529;stroke:#fefefe;stroke-width:0.122663;stroke-linejoin:round;stroke-miterlimit:4;stroke-dasharray:none;stroke-dashoffset:0;stroke-opacity:1" />
            <path inkscape:connector-curvature="0"
                  id="path3714"
                  d="m 17.281173,83.468918 v -2.978426 h 19.616573 19.616565 v 2.978426 2.978434 H 36.897746 17.281173 Z"
                  style="fill:#626fe4;fill-opacity:0.98823529;stroke:#fefefe;stroke-width:0.122663;stroke-linejoin:round;stroke-miterlimit:4;stroke-dasharray:none;stroke-dashoffset:0;stroke-opacity:1" />
        </g>
        <text xml:space="preserve"
              style="font-style:normal;font-weight:normal;font-size:11.29593468px;line-height:1.25;font-family:sans-serif;letter-spacing:0px;word-spacing:0px;fill:#626fe4;fill-opacity:0.98823529;stroke:none;stroke-width:0.28240171"
              x="30.581478"
              y="14.526858"
              id="text3774"
              inkscape:export-xdpi="95.699997"
              inkscape:export-ydpi="95.699997"><tspan sodipodi:role="line"
                                                      id="tspan3772"
                                                      x="30.581478"
                                                      y="14.526858"
                                                      style="fill:#626fe4;fill-opacity:0.98823529;stroke-width:0.28240171">MARIO TRAVEL</tspan></text>
    </g>
</svg>