<?xml version="1.0" encoding="UTF-8" standalone="no" ?>
<svg xmlns:dc="http://purl.org/dc/elements/1.1/"
     xmlns:cc="http://creativecommons.org/ns#"
     xmlns:rdf="http://www.w3.org/1999/02/22-rdf-syntax-ns#"
     xmlns:svg="http://www.w3.org/2000/svg"
     xmlns="http://www.w3.org/2000/svg"
     xmlns:sodipodi="http://sodipodi.sourceforge.net/DTD/sodipodi-0.dtd"
     xmlns:inkscape="http://www.inkscape.org/namespaces/inkscape"
     width="450"
     height="144"
     viewBox="0 0 119.06249 38.100001"
     version="1.1"
     id="svg8"
     inkscape:export-filename="C:\Users\Administrator\Desktop\WebDevelopment\mariotravel\Source\MarioTravel.Admin\wwwroot\img\brand\blue.png"
     inkscape:export-xdpi="95.605751"
     inkscape:export-ydpi="95.605751"
     sodipodi:docname="blue.svg"
     inkscape:version="1.0 (4035a4fb49, 2020-05-01)">
    <defs id="defs2">
        <clipPath clipPathUnits="userSpaceOnUse"
                  id="clipPath5088">
            <path d="M 227.408,406.991 139.79,319.372 c -12.462,-12.461 -12.462,-32.73 0,-45.192 v 0 l 87.618,-87.62 c 6.225,-6.223 14.405,-9.336 22.597,-9.336 v 0 c 8.18,0 16.372,3.113 22.597,9.336 v 0 l 87.605,87.62 c 6.237,6.224 9.349,14.417 9.349,22.596 v 0 c 0,8.18 -3.112,16.372 -9.349,22.596 v 0 l -87.605,87.619 c -6.038,6.025 -14.059,9.35 -22.597,9.35 v 0 c -8.539,0 -16.571,-3.325 -22.597,-9.35 m 10.335,-210.083 -87.606,87.605 c -6.756,6.77 -6.756,17.756 0,24.513 v 0 l 87.606,87.618 c 3.285,3.272 7.634,5.066 12.262,5.066 v 0 c 4.627,0 8.977,-1.794 12.249,-5.066 v 0 l 87.619,-87.618 c 6.756,-6.757 6.756,-17.743 0,-24.499 v 0 l -87.619,-87.619 c -3.259,-3.271 -7.622,-5.068 -12.249,-5.068 v 0 c -4.642,0 -8.99,1.797 -12.262,5.068"
                  id="path5086" />
        </clipPath>
        <linearGradient x1="0"
                        y1="0"
                        x2="1"
                        y2="0"
                        gradientUnits="userSpaceOnUse"
                        gradientTransform="matrix(-65.194946,-181.55008,-181.55008,65.194946,284.98926,394.20999)"
                        spreadMethod="pad"
                        id="linearGradient5100">
            <stop style="stop-opacity:1;stop-color:#554a7a"
                  offset="0"
                  id="stop5094" />
            <stop style="stop-opacity:1;stop-color:#241e36"
                  offset="0.8053994"
                  id="stop5096" />
            <stop style="stop-opacity:1;stop-color:#241e36"
                  offset="1"
                  id="stop5098" />
        </linearGradient>
        <clipPath clipPathUnits="userSpaceOnUse"
                  id="clipPath5110">
            <path d="m 314.568,377.677 c 17.682,0.077 19.803,-15.141 17.391,-27.411 v 0 c -4.654,-23.685 -26.39,-37.983 -62.629,-68.596 v 0 c -15.737,-13.294 -29.87,-36.481 -13.033,-64.942 v 0 c 6.602,13.479 26.893,29.183 58.352,56.408 v 0 c 30.485,26.381 40.833,41.595 41.743,66.813 v 0 c 0.853,23.661 -14.757,42.514 -42.152,45.207 v 0 z"
                  id="path5108" />
        </clipPath>
        <linearGradient x1="0"
                        y1="0"
                        x2="1"
                        y2="0"
                        gradientUnits="userSpaceOnUse"
                        gradientTransform="matrix(95.718536,100.29822,100.29822,-95.718536,242.02095,252.18024)"
                        spreadMethod="pad"
                        id="linearGradient5122">
            <stop style="stop-opacity:1;stop-color:#e337ff"
                  offset="0"
                  id="stop5116" />
            <stop style="stop-opacity:1;stop-color:#00a7d9"
                  offset="0.981199"
                  id="stop5118" />
            <stop style="stop-opacity:1;stop-color:#00a7d9"
                  offset="1"
                  id="stop5120" />
        </linearGradient>
        <clipPath clipPathUnits="userSpaceOnUse"
                  id="clipPath5132">
            <path d="m 250.403,416.327 c 3.406,-0.027 6.704,-0.598 9.843,-1.662 v 0 c 12.529,7.861 24.113,5.878 28.009,-1.011 v 0 c 7.474,-13.167 -4.734,-27.478 -31.627,-48.078 v 0 C 206.05,326.821 153.875,297.162 148.076,248.804 v 0 c -6.145,-51.231 44.74,-80.41 79.253,-62.164 v 0 l -5.014,5.015 c -21.532,-9.031 -42.374,8.006 -39.287,33.302 v 0 c 3.75,30.684 48.809,53.651 97.912,96.224 v 0 c 49.117,42.559 41.934,81.195 25.429,96.702 v 0 c -5.612,5.283 -15.394,9.986 -26.717,9.986 v 0 c -9.204,-0.001 -19.427,-3.11 -29.249,-11.542"
                  id="path5130" />
        </clipPath>
        <linearGradient x1="0"
                        y1="0"
                        x2="1"
                        y2="0"
                        gradientUnits="userSpaceOnUse"
                        gradientTransform="matrix(141.93367,148.72453,148.72453,-141.93367,168.07132,227.30186)"
                        spreadMethod="pad"
                        id="linearGradient5144">
            <stop style="stop-opacity:1;stop-color:#e337ff"
                  offset="0"
                  id="stop5138" />
            <stop style="stop-opacity:1;stop-color:#00a7d9"
                  offset="0.981199"
                  id="stop5140" />
            <stop style="stop-opacity:1;stop-color:#00a7d9"
                  offset="1"
                  id="stop5142" />
        </linearGradient>
        <clipPath clipPathUnits="userSpaceOnUse"
                  id="clipPath5154">
            <path d="m 331.741,374.591 c 6.366,-7.738 5.323,-19.044 4.133,-25.096 v 0 C 331.67,328.1 315.13,314.438 287.733,291.802 v 0 c -5.016,-4.143 -10.204,-8.427 -15.829,-13.179 v 0 c -11.002,-9.295 -26.736,-28.139 -15.311,-53.809 v 0 c 7.468,10.279 21.153,21.976 40.171,38.227 v 0 c 4.75,4.059 9.845,8.413 15.275,13.111 v 0 c 30.474,26.374 39.527,40.715 40.365,63.94 v 0 c 0.635,17.594 -8.411,31.272 -23.904,37.582 v 0 c 1.196,-0.883 2.276,-1.911 3.241,-3.083"
                  id="path5152" />
        </clipPath>
        <clipPath clipPathUnits="userSpaceOnUse"
                  id="clipPath5162">
            <path d="M -32768,32767 H 32767 V -32768 H -32768 Z"
                  id="path5160" />
        </clipPath>
        <linearGradient x1="0"
                        y1="0"
                        x2="1"
                        y2="0"
                        gradientUnits="userSpaceOnUse"
                        gradientTransform="matrix(79.259819,-31.703913,-31.703913,-79.259819,211.73245,333.56906)"
                        spreadMethod="pad"
                        id="linearGradient5170">
            <stop style="stop-opacity:1;stop-color:#ffffff"
                  offset="0"
                  id="stop5164" />
            <stop style="stop-opacity:0;stop-color:#ffffff"
                  offset="0.91954023"
                  id="stop5166" />
            <stop style="stop-opacity:0;stop-color:#ffffff"
                  offset="1"
                  id="stop5168" />
        </linearGradient>
        <mask maskUnits="userSpaceOnUse"
              x="0"
              y="0"
              width="1"
              height="1"
              id="mask5172">
            <g id="g5182">
                <g clip-path="url(#clipPath5162)"
                   id="g5180">
                    <g id="g5178">
                        <g id="g5176">
                            <path d="M -32768,32767 H 32767 V -32768 H -32768 Z"
                                  style="fill:url(#linearGradient5170);stroke:none"
                                  id="path5174" />
                        </g>
                    </g>
                </g>
            </g>
        </mask>
        <linearGradient x1="0"
                        y1="0"
                        x2="1"
                        y2="0"
                        gradientUnits="userSpaceOnUse"
                        gradientTransform="matrix(79.259819,-31.703913,-31.703913,-79.259819,211.73245,333.56906)"
                        spreadMethod="pad"
                        id="linearGradient5194">
            <stop style="stop-opacity:1;stop-color:#ffffff"
                  offset="0"
                  id="stop5188" />
            <stop style="stop-opacity:1;stop-color:#ffffff"
                  offset="0.91954023"
                  id="stop5190" />
            <stop style="stop-opacity:1;stop-color:#ffffff"
                  offset="1"
                  id="stop5192" />
        </linearGradient>
        <clipPath clipPathUnits="userSpaceOnUse"
                  id="clipPath5204">
            <path d="m 276.348,423.734 c 6.824,-0.106 12.556,-3.123 15.378,-8.11 v 0 c 9.285,-16.359 -5.617,-32.49 -32.67,-53.216 v 0 c -8.282,-6.345 -16.644,-12.475 -24.73,-18.404 v 0 c -41.662,-30.543 -77.642,-56.921 -82.289,-95.676 v 0 c -2.047,-17.061 2.646,-33.017 13.214,-44.926 v 0 c 10.129,-11.418 24.933,-18.234 39.598,-18.232 v 0 c 1.175,0 2.339,0.041 3.49,0.126 v 0 c -8.049,0.572 -15.388,4.209 -20.856,10.385 v 0 c -6.828,7.713 -9.817,18.281 -8.416,29.76 v 0 c 2.847,23.294 27.187,41.984 58.001,65.646 v 0 c 12.592,9.67 26.862,20.628 41.259,33.109 v 0 c 29.599,25.648 36.146,47.731 36.429,61.739 v 0 c 0.233,11.598 -3.82,22.183 -11.12,29.043 v 0 c -4.573,4.303 -13.274,8.901 -23.984,8.901 v 0 c -1.109,0 -2.211,-0.048 -3.304,-0.145"
                  id="path5202" />
        </clipPath>
        <clipPath clipPathUnits="userSpaceOnUse"
                  id="clipPath5212">
            <path d="M -32768,32767 H 32767 V -32768 H -32768 Z"
                  id="path5210" />
        </clipPath>
        <linearGradient x1="0"
                        y1="0"
                        x2="1"
                        y2="0"
                        gradientUnits="userSpaceOnUse"
                        gradientTransform="matrix(144.08479,-31.322851,-31.322851,-144.08479,59.150574,344.19534)"
                        spreadMethod="pad"
                        id="linearGradient5220">
            <stop style="stop-opacity:1;stop-color:#ffffff"
                  offset="0"
                  id="stop5214" />
            <stop style="stop-opacity:0;stop-color:#ffffff"
                  offset="0.91954023"
                  id="stop5216" />
            <stop style="stop-opacity:0;stop-color:#ffffff"
                  offset="1"
                  id="stop5218" />
        </linearGradient>
        <mask maskUnits="userSpaceOnUse"
              x="0"
              y="0"
              width="1"
              height="1"
              id="mask5222">
            <g id="g5232">
                <g clip-path="url(#clipPath5212)"
                   id="g5230">
                    <g id="g5228">
                        <g id="g5226">
                            <path d="M -32768,32767 H 32767 V -32768 H -32768 Z"
                                  style="fill:url(#linearGradient5220);stroke:none"
                                  id="path5224" />
                        </g>
                    </g>
                </g>
            </g>
        </mask>
        <linearGradient x1="0"
                        y1="0"
                        x2="1"
                        y2="0"
                        gradientUnits="userSpaceOnUse"
                        gradientTransform="matrix(144.08479,-31.322851,-31.322851,-144.08479,59.150574,344.19534)"
                        spreadMethod="pad"
                        id="linearGradient5244">
            <stop style="stop-opacity:1;stop-color:#ffffff"
                  offset="0"
                  id="stop5238" />
            <stop style="stop-opacity:1;stop-color:#ffffff"
                  offset="0.91954023"
                  id="stop5240" />
            <stop style="stop-opacity:1;stop-color:#ffffff"
                  offset="1"
                  id="stop5242" />
        </linearGradient>
        <clipPath clipPathUnits="userSpaceOnUse"
                  id="clipPath5254">
            <path d="m 331.741,374.591 c 6.366,-7.738 5.323,-19.044 4.133,-25.096 v 0 C 331.67,328.1 315.13,314.438 287.733,291.802 v 0 c -5.016,-4.143 -10.204,-8.427 -15.829,-13.179 v 0 c -11.002,-9.295 -26.736,-28.139 -15.311,-53.809 v 0 c 7.468,10.279 21.153,21.976 40.171,38.227 v 0 c 4.75,4.059 9.845,8.413 15.275,13.111 v 0 c 30.474,26.374 39.527,40.715 40.365,63.94 v 0 c 0.635,17.594 -8.411,31.272 -23.904,37.582 v 0 c 1.196,-0.883 2.276,-1.911 3.241,-3.083"
                  id="path5252" />
        </clipPath>
        <clipPath clipPathUnits="userSpaceOnUse"
                  id="clipPath5262">
            <path d="M -32768,32767 H 32767 V -32768 H -32768 Z"
                  id="path5260" />
        </clipPath>
        <linearGradient x1="0"
                        y1="0"
                        x2="1"
                        y2="0"
                        gradientUnits="userSpaceOnUse"
                        gradientTransform="matrix(-96.437004,5.8858457,5.8858457,96.437004,432.42673,292.70621)"
                        spreadMethod="pad"
                        id="linearGradient5270">
            <stop style="stop-opacity:1;stop-color:#ffffff"
                  offset="0"
                  id="stop5264" />
            <stop style="stop-opacity:0;stop-color:#ffffff"
                  offset="0.91954023"
                  id="stop5266" />
            <stop style="stop-opacity:0;stop-color:#ffffff"
                  offset="1"
                  id="stop5268" />
        </linearGradient>
        <mask maskUnits="userSpaceOnUse"
              x="0"
              y="0"
              width="1"
              height="1"
              id="mask5272">
            <g id="g5282">
                <g clip-path="url(#clipPath5262)"
                   id="g5280">
                    <g id="g5278">
                        <g id="g5276">
                            <path d="M -32768,32767 H 32767 V -32768 H -32768 Z"
                                  style="fill:url(#linearGradient5270);stroke:none"
                                  id="path5274" />
                        </g>
                    </g>
                </g>
            </g>
        </mask>
        <linearGradient x1="0"
                        y1="0"
                        x2="1"
                        y2="0"
                        gradientUnits="userSpaceOnUse"
                        gradientTransform="matrix(-96.437004,5.8858457,5.8858457,96.437004,432.42673,292.70621)"
                        spreadMethod="pad"
                        id="linearGradient5294">
            <stop style="stop-opacity:1;stop-color:#ffffff"
                  offset="0"
                  id="stop5288" />
            <stop style="stop-opacity:1;stop-color:#ffffff"
                  offset="0.91954023"
                  id="stop5290" />
            <stop style="stop-opacity:1;stop-color:#ffffff"
                  offset="1"
                  id="stop5292" />
        </linearGradient>
        <clipPath clipPathUnits="userSpaceOnUse"
                  id="clipPath5304">
            <path d="m 276.348,423.734 c 6.824,-0.106 12.556,-3.123 15.378,-8.11 v 0 c 9.285,-16.359 -5.617,-32.49 -32.67,-53.216 v 0 c -8.282,-6.345 -16.644,-12.475 -24.73,-18.404 v 0 c -41.662,-30.543 -77.642,-56.921 -82.289,-95.676 v 0 c -2.047,-17.061 2.646,-33.017 13.214,-44.926 v 0 c 10.129,-11.418 24.933,-18.234 39.598,-18.232 v 0 c 1.175,0 2.339,0.041 3.49,0.126 v 0 c -8.049,0.572 -15.388,4.209 -20.856,10.385 v 0 c -6.828,7.713 -9.817,18.281 -8.416,29.76 v 0 c 2.847,23.294 27.187,41.984 58.001,65.646 v 0 c 12.592,9.67 26.862,20.628 41.259,33.109 v 0 c 29.599,25.648 36.146,47.731 36.429,61.739 v 0 c 0.233,11.598 -3.82,22.183 -11.12,29.043 v 0 c -4.573,4.303 -13.274,8.901 -23.984,8.901 v 0 c -1.109,0 -2.211,-0.048 -3.304,-0.145"
                  id="path5302" />
        </clipPath>
        <clipPath clipPathUnits="userSpaceOnUse"
                  id="clipPath5312">
            <path d="M -32768,32767 H 32767 V -32768 H -32768 Z"
                  id="path5310" />
        </clipPath>
        <linearGradient x1="0"
                        y1="0"
                        x2="1"
                        y2="0"
                        gradientUnits="userSpaceOnUse"
                        gradientTransform="matrix(-108.20898,25.354494,25.354494,108.20898,381.14813,271.82312)"
                        spreadMethod="pad"
                        id="linearGradient5320">
            <stop style="stop-opacity:1;stop-color:#ffffff"
                  offset="0"
                  id="stop5314" />
            <stop style="stop-opacity:0;stop-color:#ffffff"
                  offset="0.91954023"
                  id="stop5316" />
            <stop style="stop-opacity:0;stop-color:#ffffff"
                  offset="1"
                  id="stop5318" />
        </linearGradient>
        <mask maskUnits="userSpaceOnUse"
              x="0"
              y="0"
              width="1"
              height="1"
              id="mask5322">
            <g id="g5332">
                <g clip-path="url(#clipPath5312)"
                   id="g5330">
                    <g id="g5328">
                        <g id="g5326">
                            <path d="M -32768,32767 H 32767 V -32768 H -32768 Z"
                                  style="fill:url(#linearGradient5320);stroke:none"
                                  id="path5324" />
                        </g>
                    </g>
                </g>
            </g>
        </mask>
        <linearGradient x1="0"
                        y1="0"
                        x2="1"
                        y2="0"
                        gradientUnits="userSpaceOnUse"
                        gradientTransform="matrix(-108.20898,25.354494,25.354494,108.20898,381.14813,271.82312)"
                        spreadMethod="pad"
                        id="linearGradient5344">
            <stop style="stop-opacity:1;stop-color:#ffffff"
                  offset="0"
                  id="stop5338" />
            <stop style="stop-opacity:1;stop-color:#ffffff"
                  offset="0.91954023"
                  id="stop5340" />
            <stop style="stop-opacity:1;stop-color:#ffffff"
                  offset="1"
                  id="stop5342" />
        </linearGradient>
        <clipPath clipPathUnits="userSpaceOnUse"
                  id="clipPath5354">
            <path d="m 229.669,404.73 -87.618,-87.619 c -5.423,-5.423 -8.41,-12.645 -8.41,-20.335 v 0 c 0,-7.691 2.987,-14.912 8.41,-20.336 v 0 l 87.618,-87.619 c 5.418,-5.415 12.64,-8.398 20.337,-8.398 v 0 c 7.695,0 14.917,2.983 20.335,8.398 v 0 l 87.607,87.622 c 5.423,5.413 8.41,12.633 8.41,20.333 v 0 c 0,7.699 -2.987,14.92 -8.412,20.335 v 0 l -87.603,87.616 c -5.44,5.427 -12.662,8.416 -20.337,8.416 v 0 c -7.689,0 -14.911,-2.988 -20.337,-8.413 m 5.813,-210.083 -87.608,87.607 c -7.996,8.012 -7.994,21.036 0.001,29.032 v 0 l 87.611,87.623 c 3.884,3.869 9.04,6 14.52,6 v 0 c 5.485,0 10.639,-2.133 14.508,-6.004 v 0 l 87.62,-87.619 c 3.872,-3.871 6.004,-9.025 6.004,-14.51 v 0 c 0,-5.485 -2.132,-10.638 -6.004,-14.51 v 0 L 264.52,194.651 c -3.859,-3.874 -9.014,-6.007 -14.514,-6.007 v 0 c -5.495,0 -10.653,2.132 -14.524,6.003"
                  id="path5352" />
        </clipPath>
        <clipPath clipPathUnits="userSpaceOnUse"
                  id="clipPath5362">
            <path d="M -32768,32767 H 32767 V -32768 H -32768 Z"
                  id="path5360" />
        </clipPath>
        <linearGradient x1="0"
                        y1="0"
                        x2="1"
                        y2="0"
                        gradientUnits="userSpaceOnUse"
                        gradientTransform="matrix(120.38983,-34.110466,-34.110466,-120.38983,39.261902,356.49051)"
                        spreadMethod="pad"
                        id="linearGradient5370">
            <stop style="stop-opacity:1;stop-color:#ffffff"
                  offset="0"
                  id="stop5364" />
            <stop style="stop-opacity:0;stop-color:#ffffff"
                  offset="0.94484915"
                  id="stop5366" />
            <stop style="stop-opacity:0;stop-color:#ffffff"
                  offset="1"
                  id="stop5368" />
        </linearGradient>
        <mask maskUnits="userSpaceOnUse"
              x="0"
              y="0"
              width="1"
              height="1"
              id="mask5372">
            <g id="g5382">
                <g clip-path="url(#clipPath5362)"
                   id="g5380">
                    <g id="g5378">
                        <g id="g5376">
                            <path d="M -32768,32767 H 32767 V -32768 H -32768 Z"
                                  style="fill:url(#linearGradient5370);stroke:none"
                                  id="path5374" />
                        </g>
                    </g>
                </g>
            </g>
        </mask>
        <linearGradient x1="0"
                        y1="0"
                        x2="1"
                        y2="0"
                        gradientUnits="userSpaceOnUse"
                        gradientTransform="matrix(120.38983,-34.110466,-34.110466,-120.38983,39.261902,356.49051)"
                        spreadMethod="pad"
                        id="linearGradient5394">
            <stop style="stop-opacity:1;stop-color:#ffffff"
                  offset="0"
                  id="stop5388" />
            <stop style="stop-opacity:1;stop-color:#ffffff"
                  offset="0.94484915"
                  id="stop5390" />
            <stop style="stop-opacity:1;stop-color:#ffffff"
                  offset="1"
                  id="stop5392" />
        </linearGradient>
        <clipPath clipPathUnits="userSpaceOnUse"
                  id="clipPath5404">
            <path d="m 229.669,404.73 -87.618,-87.619 c -5.423,-5.423 -8.41,-12.645 -8.41,-20.335 v 0 c 0,-7.691 2.987,-14.912 8.41,-20.336 v 0 l 87.618,-87.619 c 5.418,-5.415 12.64,-8.398 20.337,-8.398 v 0 c 7.695,0 14.917,2.983 20.335,8.398 v 0 l 87.607,87.622 c 5.423,5.413 8.41,12.633 8.41,20.333 v 0 c 0,7.699 -2.987,14.92 -8.412,20.335 v 0 l -87.603,87.616 c -5.44,5.427 -12.662,8.416 -20.337,8.416 v 0 c -7.689,0 -14.911,-2.988 -20.337,-8.413 m 5.813,-210.083 -87.608,87.607 c -7.996,8.012 -7.994,21.036 0.001,29.032 v 0 l 87.611,87.623 c 3.884,3.869 9.04,6 14.52,6 v 0 c 5.485,0 10.639,-2.133 14.508,-6.004 v 0 l 87.62,-87.619 c 3.872,-3.871 6.004,-9.025 6.004,-14.51 v 0 c 0,-5.485 -2.132,-10.638 -6.004,-14.51 v 0 L 264.52,194.651 c -3.859,-3.874 -9.014,-6.007 -14.514,-6.007 v 0 c -5.495,0 -10.653,2.132 -14.524,6.003"
                  id="path5402" />
        </clipPath>
        <clipPath clipPathUnits="userSpaceOnUse"
                  id="clipPath5412">
            <path d="M -32768,32767 H 32767 V -32768 H -32768 Z"
                  id="path5410" />
        </clipPath>
        <linearGradient x1="0"
                        y1="0"
                        x2="1"
                        y2="0"
                        gradientUnits="userSpaceOnUse"
                        gradientTransform="matrix(-109.29821,15.096389,15.096389,109.29821,455.85736,268.34949)"
                        spreadMethod="pad"
                        id="linearGradient5420">
            <stop style="stop-opacity:1;stop-color:#ffffff"
                  offset="0"
                  id="stop5414" />
            <stop style="stop-opacity:1;stop-color:#ffffff"
                  offset="0.10433591"
                  id="stop5416" />
            <stop style="stop-opacity:0;stop-color:#ffffff"
                  offset="1"
                  id="stop5418" />
        </linearGradient>
        <mask maskUnits="userSpaceOnUse"
              x="0"
              y="0"
              width="1"
              height="1"
              id="mask5422">
            <g id="g5432">
                <g clip-path="url(#clipPath5412)"
                   id="g5430">
                    <g id="g5428">
                        <g id="g5426">
                            <path d="M -32768,32767 H 32767 V -32768 H -32768 Z"
                                  style="fill:url(#linearGradient5420);stroke:none"
                                  id="path5424" />
                        </g>
                    </g>
                </g>
            </g>
        </mask>
        <linearGradient x1="0"
                        y1="0"
                        x2="1"
                        y2="0"
                        gradientUnits="userSpaceOnUse"
                        gradientTransform="matrix(-109.29821,15.096389,15.096389,109.29821,455.85736,268.34949)"
                        spreadMethod="pad"
                        id="linearGradient5444">
            <stop style="stop-opacity:1;stop-color:#ffffff"
                  offset="0"
                  id="stop5438" />
            <stop style="stop-opacity:1;stop-color:#ffffff"
                  offset="0.10433591"
                  id="stop5440" />
            <stop style="stop-opacity:1;stop-color:#ffffff"
                  offset="1"
                  id="stop5442" />
        </linearGradient>
    </defs>
    <sodipodi:namedview id="base"
                        pagecolor="#ffffff"
                        bordercolor="#666666"
                        borderopacity="1.0"
                        inkscape:pageopacity="0.0"
                        inkscape:pageshadow="2"
                        inkscape:zoom="1.979899"
                        inkscape:cx="100.75241"
                        inkscape:cy="113.06229"
                        inkscape:document-units="mm"
                        inkscape:current-layer="svg8"
                        inkscape:document-rotation="0"
                        showgrid="false"
                        units="px"
                        showguides="true"
                        inkscape:guide-bbox="true"
                        inkscape:window-width="1366"
                        inkscape:window-height="705"
                        inkscape:window-x="-8"
                        inkscape:window-y="-8"
                        inkscape:window-maximized="1" />
    <metadata id="metadata5">
        <rdf:RDF>
            <cc:Work rdf:about="">
                <dc:format>image/svg+xml</dc:format>
                <dc:type rdf:resource="http://purl.org/dc/dcmitype/StillImage" />
                <dc:title></dc:title>
            </cc:Work>
        </rdf:RDF>
    </metadata>
    <g transform="translate(-45.508356,-2.6458334)"
       id="g5719">
        <text style="font-variant:normal;font-weight:500;font-stretch:normal;font-size:14.3174px;font-family:Exo;-inkscape-font-specification:Exo-Medium;writing-mode:lr-tb;fill:#2e2744;fill-opacity:1;fill-rule:nonzero;stroke:none;stroke-width:0.361573"
              id="text5072"
              x="47.148304"
              y="18.347042">
            <tspan sodipodi:role="line"
                   id="tspan5070"
                   style="font-style:normal;font-variant:normal;font-weight:normal;font-stretch:normal;font-family:sans-serif;-inkscape-font-specification:sans-serif;stroke-width:0.361573"
                   x="47.148304"
                   y="18.347042">MARIO</tspan>
        </text>
        <text style="font-variant:normal;font-weight:900;font-stretch:normal;font-size:14.3174px;font-family:Exo;-inkscape-font-specification:Exo-Black;writing-mode:lr-tb;fill:#2e2744;fill-opacity:1;fill-rule:nonzero;stroke:none;stroke-width:0.361573"
              id="text5076"
              x="100.15421"
              y="18.347042">
            <tspan sodipodi:role="line"
                   id="tspan5074"
                   style="stroke-width:0.361573"
                   x="100.15421"
                   y="18.347042">TRAVEL</tspan>
        </text>
    </g>
    <text y="32.94735"
          x="35.024902"
          id="text5080"
          style="font-variant:normal;font-weight:500;font-stretch:normal;font-size:13.6645px;font-family:'Poppins Medium';-inkscape-font-specification:Poppins-Medium;writing-mode:lr-tb;fill:#5e68e2;fill-opacity:1;fill-rule:nonzero;stroke:none;stroke-width:0.64934">
        <tspan y="32.94735"
               x="35.024902"
               style="font-style:normal;font-variant:normal;font-weight:normal;font-stretch:normal;font-family:'Arial Rounded MT Bold';-inkscape-font-specification:'Arial Rounded MT Bold, ';fill:#5e68e2;fill-opacity:1;stroke-width:0.64934"
               id="tspan5078"
               sodipodi:role="line">A D M I N</tspan>
    </text>
    <g style="fill:#2632cd;fill-opacity:1"
       transform="matrix(0.06586512,0,0,-0.06586512,7.3582045,47.849892)"
       id="g5104">
        <g style="fill:#2632cd;fill-opacity:1"
           clip-path="url(#clipPath5110)"
           id="g5106">
            <g style="fill:#2632cd;fill-opacity:1"
               id="g5112">
                <g style="fill:#2632cd;fill-opacity:1"
                   id="g5114">
                    <path id="path5124"
                          style="fill:#2632cd;stroke:none;fill-opacity:1"
                          d="m 314.568,377.677 c 17.682,0.077 19.803,-15.141 17.391,-27.411 v 0 c -4.654,-23.685 -26.39,-37.983 -62.629,-68.596 v 0 c -15.737,-13.294 -29.87,-36.481 -13.033,-64.942 v 0 c 6.602,13.479 26.893,29.183 58.352,56.408 v 0 c 30.485,26.381 40.833,41.595 41.743,66.813 v 0 c 0.853,23.661 -14.757,42.514 -42.152,45.207 v 0 z" />
                </g>
            </g>
        </g>
    </g>
    <g style="fill:#5e68e2;fill-opacity:1"
       transform="matrix(0.06586512,0,0,-0.06586512,7.3582045,47.849892)"
       id="g5126">
        <g style="fill:#5e68e2;fill-opacity:1"
           clip-path="url(#clipPath5132)"
           id="g5128">
            <g style="fill:#5e68e2;fill-opacity:1"
               id="g5134">
                <g style="fill:#5e68e2;fill-opacity:1"
                   id="g5136">
                    <path id="path5146"
                          style="fill:#5e68e2;fill-opacity:1;stroke:none"
                          d="m 250.403,416.327 c 3.406,-0.027 6.704,-0.598 9.843,-1.662 v 0 c 12.529,7.861 24.113,5.878 28.009,-1.011 v 0 c 7.474,-13.167 -4.734,-27.478 -31.627,-48.078 v 0 C 206.05,326.821 153.875,297.162 148.076,248.804 v 0 c -6.145,-51.231 44.74,-80.41 79.253,-62.164 v 0 l -5.014,5.015 c -21.532,-9.031 -42.374,8.006 -39.287,33.302 v 0 c 3.75,30.684 48.809,53.651 97.912,96.224 v 0 c 49.117,42.559 41.934,81.195 25.429,96.702 v 0 c -5.612,5.283 -15.394,9.986 -26.717,9.986 v 0 c -9.204,-0.001 -19.427,-3.11 -29.249,-11.542" />
                </g>
            </g>
        </g>
    </g>
</svg>