<svg width="32" height="32" viewBox="0 0 32 32" fill="none" xmlns="http://www.w3.org/2000/svg">
    <path d="M16 1C7.7256 1 1 7.72561 1 16C1 24.2744 7.7256 31 16 31C24.2744 31 31 24.2744 31 16C31 7.72561 24.2744 1 16 1ZM15.1667 2.70573V8.89062C13.7224 8.79158 12.3044 8.44141 10.9609 7.875C11.8766 5.74007 13.1203 3.95495 14.5547 2.75781C14.7577 2.73602 14.961 2.71833 15.1667 2.70573ZM16.8333 2.70573C17.039 2.71833 17.2423 2.73602 17.4453 2.75781C18.8797 3.95495 20.1234 5.74007 21.0391 7.875C19.6956 8.44141 18.2776 8.79158 16.8333 8.89062V2.70573ZM11.625 3.40885C10.7756 4.48771 10.0476 5.74383 9.45052 7.11979C8.75448 6.72462 8.07642 6.28561 7.44531 5.77865C8.66941 4.75451 10.0847 3.943 11.625 3.40885ZM20.375 3.40885C21.9153 3.943 23.3306 4.75451 24.5547 5.77865C23.9236 6.28561 23.2455 6.72462 22.5495 7.11979C21.9524 5.74383 21.2244 4.48771 20.375 3.40885ZM6.23437 6.9375C7.04153 7.60321 7.91582 8.19571 8.82552 8.69531C8.15657 10.6863 7.75844 12.879 7.67969 15.1667H2.69271C2.89031 11.9918 4.20351 9.12391 6.23437 6.9375ZM25.7656 6.9375C27.7965 9.12391 29.1097 11.9918 29.3073 15.1667H24.3203C24.2416 12.879 23.8434 10.6863 23.1745 8.69531C24.0842 8.19571 24.9585 7.60321 25.7656 6.9375ZM10.375 9.4375C11.899 10.0714 13.5085 10.4589 15.1667 10.5573V15.1667H9.35937C9.43822 13.1393 9.79935 11.1961 10.375 9.4375ZM21.625 9.4375C22.2007 11.1961 22.5618 13.1393 22.6406 15.1667H16.8333V10.5573C18.4915 10.4589 20.101 10.0714 21.625 9.4375ZM2.69271 16.8333H7.67969C7.75844 19.1205 8.15657 21.3161 8.82552 23.3047C7.90935 23.8062 7.03344 24.4043 6.22135 25.0755C4.19117 22.8869 2.88736 20.0102 2.69271 16.8333ZM9.35937 16.8333H15.1667V21.4557C13.5085 21.5533 11.899 21.9315 10.375 22.5625C9.79837 20.8032 9.43739 18.864 9.35937 16.8333ZM16.8333 16.8333H22.6406C22.5626 18.864 22.2016 20.8032 21.625 22.5625C20.101 21.9315 18.4915 21.5533 16.8333 21.4557V16.8333ZM24.3203 16.8333H29.3073C29.1126 20.0102 27.8088 22.8869 25.7786 25.0755C24.9666 24.4043 24.0907 23.8062 23.1745 23.3047C23.8434 21.3161 24.2416 19.1205 24.3203 16.8333ZM15.1667 23.1224V29.3073C14.9698 29.2952 14.7752 29.2757 14.5807 29.2552C13.1357 28.0586 11.8823 26.2817 10.9609 24.138C12.3049 23.574 13.7217 23.2206 15.1667 23.1224ZM16.8333 23.1224C18.2783 23.2206 19.6951 23.574 21.0391 24.138C20.1177 26.2817 18.8643 28.0586 17.4193 29.2552C17.4149 29.2595 17.4105 29.2638 17.4063 29.2682C17.2166 29.288 17.0253 29.2955 16.8333 29.3073V23.1224ZM9.4375 24.8802C10.0358 26.2605 10.7723 27.5093 11.625 28.5911C10.0816 28.0559 8.65814 27.2615 7.43229 26.2344C8.06469 25.7255 8.73969 25.2758 9.4375 24.8802ZM22.5625 24.8802C23.2603 25.2758 23.9353 25.7255 24.5677 26.2344C23.3419 27.2615 21.9184 28.0559 20.375 28.5911C21.2277 27.5093 21.9642 26.2605 22.5625 24.8802Z" fill="white" />
</svg>