<svg width="24" height="24" viewBox="0 0 24 24" fill="none" xmlns="http://www.w3.org/2000/svg">
    <path d="M5.4081 17C4.40889 17 3.49724 16.7683 2.67315 16.3048C1.84905 15.831 1.19493 15.177 0.710778 14.3427C0.236926 13.4981 0 12.5506 0 11.5C0 10.4494 0.236926 9.50702 0.710778 8.67275C1.19493 7.82818 1.84905 7.17416 2.67315 6.71067C3.49724 6.23689 4.40889 6 5.4081 6C6.41761 6 7.33441 6.23689 8.1585 6.71067C8.98259 7.17416 9.63156 7.82303 10.1054 8.6573C10.5793 9.49157 10.8162 10.4391 10.8162 11.5C10.8162 12.5609 10.5793 13.5084 10.1054 14.3427C9.63156 15.177 8.98259 15.831 8.1585 16.3048C7.33441 16.7683 6.41761 17 5.4081 17ZM5.4081 15.7795C6.16008 15.7795 6.83481 15.6044 7.43227 15.2542C8.04004 14.904 8.51389 14.4045 8.85383 13.7556C9.20407 13.1067 9.37919 12.3549 9.37919 11.5C9.37919 10.6348 9.20407 9.88296 8.85383 9.24438C8.51389 8.59551 8.04519 8.09597 7.44772 7.74579C6.85026 7.3956 6.17038 7.22051 5.4081 7.22051C4.64581 7.22051 3.96594 7.3956 3.36847 7.74579C2.77101 8.09597 2.29715 8.59551 1.94692 9.24438C1.60698 9.88296 1.43701 10.6348 1.43701 11.5C1.43701 12.3549 1.60698 13.1067 1.94692 13.7556C2.29715 14.4045 2.77101 14.904 3.36847 15.2542C3.97624 15.6044 4.65611 15.7795 5.4081 15.7795Z" fill="#CCCCCC" />
    <path d="M14.0786 6.1236V16.8919H12.6725V6.1236H14.0786Z" fill="#CCCCCC" />
    <path d="M21.8677 11.3455C22.2591 11.4073 22.6145 11.5669 22.9338 11.8244C23.2635 12.0819 23.521 12.4012 23.7064 12.7823C23.9021 13.1634 24 13.5702 24 14.0028C24 14.5487 23.8609 15.0431 23.5828 15.486C23.3047 15.9185 22.8978 16.2636 22.3621 16.5211C21.8368 16.7683 21.2135 16.8919 20.4925 16.8919H16.475V6.1236H20.3379C21.0693 6.1236 21.6925 6.24719 22.2076 6.49438C22.7227 6.73127 23.109 7.05571 23.3665 7.4677C23.624 7.87968 23.7528 8.34316 23.7528 8.85815C23.7528 9.49672 23.5777 10.0272 23.2274 10.4494C22.8875 10.8614 22.4342 11.1601 21.8677 11.3455ZM17.8811 10.7739H20.2452C20.9045 10.7739 21.4144 10.6194 21.775 10.3104C22.1355 10.0014 22.3158 9.57397 22.3158 9.02809C22.3158 8.48221 22.1355 8.05478 21.775 7.74579C21.4144 7.4368 20.8942 7.2823 20.2143 7.2823H17.8811V10.7739ZM20.3689 15.7331C21.0693 15.7331 21.6153 15.5684 22.0067 15.2388C22.3982 14.9092 22.5939 14.4508 22.5939 13.8638C22.5939 13.2664 22.3879 12.7978 21.9758 12.4579C21.5638 12.1077 21.0127 11.9326 20.3225 11.9326H17.8811V15.7331H20.3689Z" fill="#CCCCCC" />
</svg>