<svg width="32" height="32" viewBox="0 0 32 32" fill="none" xmlns="http://www.w3.org/2000/svg">
    <path d="M18.5785 9.44046C19.2164 9.53067 19.8412 9.69091 20.4585 9.8806C21.5361 10.2124 22.553 10.6735 23.5093 11.2715C23.5759 11.3128 23.6647 11.339 23.7431 11.339C24.8664 11.3436 25.9892 11.342 27.1116 11.3429C27.202 11.3429 27.292 11.3525 27.3822 11.3576C27.3822 11.3796 27.3855 11.3889 27.3818 11.394C27.3294 11.4747 27.2763 11.5542 27.2236 11.6347C26.8426 12.219 26.517 12.8303 26.3248 13.5061C26.3039 13.5787 26.2995 13.6394 26.3487 13.7106C27.3486 15.1465 27.6677 16.7229 27.2498 18.4223C26.8834 19.9127 26.0291 21.0747 24.731 21.8975C23.8031 22.4858 22.7782 22.7659 21.6831 22.772C21.2231 22.7748 20.7653 22.7128 20.3159 22.5964C19.2209 22.3124 18.2821 21.7665 17.5085 20.9398C17.4065 20.8312 17.3105 20.7178 17.2017 20.5952C16.7927 21.2048 16.3901 21.8045 15.9778 22.42C15.5671 21.8064 15.1701 21.2125 14.774 20.6209C14.7466 20.6353 14.7387 20.6369 14.7334 20.642C14.7244 20.6494 14.7167 20.6585 14.7095 20.667C13.7738 21.772 12.5967 22.4494 11.1627 22.676C10.3649 22.8024 9.57487 22.7569 8.8001 22.5433C7.70207 22.2416 6.76892 21.6624 6.01502 20.8076C5.27829 19.9718 4.82006 19.0016 4.64799 17.8984C4.45111 16.8688 4.69089 15.8761 4.75072 15.6351C4.92418 14.9348 5.22657 14.2917 5.64167 13.7004C5.67089 13.6584 5.68109 13.5842 5.66718 13.5341C5.49789 12.9133 5.20617 12.3487 4.86458 11.8079C4.77785 11.6704 4.67396 11.5431 4.57796 11.4111C4.57796 11.396 4.57796 11.3805 4.57796 11.3652C4.59721 11.3675 4.61622 11.3712 4.63501 11.3712C5.78429 11.3717 6.93333 11.3722 8.08262 11.3698C8.13271 11.3698 8.18836 11.3492 8.23103 11.3218C9.03849 10.8038 9.89883 10.3933 10.8028 10.0738C11.4546 9.84373 12.1202 9.66424 12.7989 9.53276C13.4561 9.40568 14.1168 9.31617 14.7844 9.27211C16.4121 9.14688 17.7131 9.31918 18.5785 9.44046ZM17.1377 17.0307C17.1377 19.5544 19.1854 21.6162 21.7001 21.6065C24.2243 21.5974 26.2626 19.5936 26.2608 17.042C26.2589 14.4126 24.1259 12.4359 21.6022 12.4871C19.1107 12.5388 17.1604 14.5471 17.1377 17.0307ZM10.2942 12.4697C7.83936 12.4484 5.69895 14.4972 5.74185 17.107C5.78173 19.5407 7.78764 21.6039 10.3452 21.5819C12.846 21.5605 14.8561 19.5185 14.8607 17.0455C14.8647 14.5049 12.83 12.4697 10.2942 12.4697ZM10.5205 11.2792C11.9073 11.3638 13.1254 11.8471 14.1546 12.783C15.1817 13.7171 15.7834 14.8824 16.0021 16.2527C16.2271 14.8986 16.8131 13.7442 17.8209 12.8194C18.8303 11.8937 20.0323 11.4079 21.3963 11.3051C19.7776 10.5856 18.0709 10.2799 16.314 10.2461C14.3174 10.2069 12.3753 10.5012 10.5205 11.2792Z" fill="#CCCCCC" />
    <path d="M21.6908 14.1508C23.2526 14.1483 24.5176 15.4065 24.5176 16.9667C24.5176 18.533 23.2742 19.7437 21.8072 19.7996C20.1688 19.8624 18.8579 18.5571 18.8584 16.9737C18.8598 15.3722 20.18 14.1244 21.6908 14.1508ZM23.533 16.9737C23.5323 15.9557 22.7093 15.1282 21.6982 15.1282C20.6755 15.1282 19.843 15.9512 19.8389 16.9663C19.8351 17.9769 20.6718 18.8177 21.685 18.8205C22.6998 18.8245 23.5334 17.9899 23.533 16.9737Z" fill="#CCCCCC" />
    <path d="M10.2338 14.1508C11.7947 14.1492 13.0616 15.4098 13.0577 16.9698C13.0532 18.5487 11.8087 19.733 10.3674 19.7987C8.72257 19.8738 7.39543 18.5627 7.39844 16.9707C7.40169 15.3578 8.73092 14.1239 10.2338 14.1508ZM12.0739 16.9674C12.0709 15.9432 11.2426 15.1266 10.2086 15.1285C9.21118 15.1304 8.37542 15.9721 8.37774 16.9732C8.38029 17.9859 9.21512 18.8187 10.2311 18.8215C11.2407 18.8238 12.0765 17.9829 12.0739 16.9674Z" fill="#CCCCCC" />
    <path d="M21.6922 16.0371C22.2097 16.0366 22.6341 16.4612 22.6292 16.9758C22.6241 17.4916 22.207 17.9094 21.6979 17.9097C21.1739 17.9097 20.7525 17.4955 20.7537 16.9823C20.7546 16.4499 21.1639 16.0376 21.6922 16.0371Z" fill="#CCCCCC" />
    <path d="M10.2289 16.0293C10.7544 16.0288 11.1767 16.4486 11.1788 16.9724C11.1808 17.4919 10.7546 17.9183 10.2317 17.9195C9.69624 17.9206 9.28323 17.5069 9.28369 16.9687C9.28369 16.4402 9.69577 16.03 10.2289 16.0293Z" fill="#CCCCCC" />
    <rect x="1" y="1" width="30" height="30" rx="4" stroke="#CCCCCC" stroke-width="2" />
</svg>