<svg width="24" height="24" viewBox="0 0 24 24" fill="none" xmlns="http://www.w3.org/2000/svg">
    <path fill-rule="evenodd" clip-rule="evenodd" d="M7.14079 12C7.14079 9.3164 9.31631 7.14088 11.9999 7.14088C14.6834 7.14088 16.8589 9.3164 16.8587 11.9997C16.8587 12.6409 16.7586 13.3426 16.4438 13.8117C16.1649 14.2276 15.6907 14.5013 15.1524 14.5013C14.578 14.5013 14.0774 14.1888 13.8085 13.7252C13.3528 14.2024 12.7119 14.5013 11.9999 14.5013C10.6184 14.5013 9.49848 13.3814 9.49848 12C9.49848 10.6185 10.6184 9.49857 11.9999 9.49857C12.6231 9.49857 13.1919 9.72693 13.6291 10.1041C13.6938 9.93399 13.8572 9.81262 14.0502 9.81262C14.2903 9.81262 14.4851 10.001 14.4987 10.2378H14.5015V12.9475H14.5023C14.5023 12.9487 14.5021 12.95 14.5019 12.9513C14.5017 12.9526 14.5015 12.954 14.5015 12.9554C14.5015 13.3067 14.7863 13.5915 15.1376 13.5915C15.4347 13.5915 15.6307 13.4234 15.7451 13.1233C15.752 13.1008 15.7594 13.0786 15.7669 13.0565C15.779 13.0204 15.7912 12.9844 15.8006 12.9472C15.8768 12.6442 15.9173 12.3268 15.9173 12C15.9173 9.83649 14.1633 8.08278 11.9999 8.08278C9.8364 8.08278 8.08269 9.83649 8.08269 12C8.08269 14.1634 9.8364 15.9174 11.9999 15.9174C12.8612 15.9174 13.6535 15.6346 14.3001 15.1636L14.3019 15.1659C14.3747 15.1194 14.461 15.0917 14.5538 15.0917C14.814 15.0917 15.0244 15.3024 15.0244 15.5625C15.0244 15.6947 14.9695 15.814 14.8815 15.8994L14.8794 15.9012C14.8397 15.9395 14.7935 15.9708 14.7422 15.9933C13.964 16.5206 13.0059 16.859 11.9999 16.859C9.31631 16.859 7.14079 14.6835 7.14079 12ZM10.4014 12C10.4014 12.8828 11.117 13.5984 11.9999 13.5984C12.8827 13.5984 13.5983 12.8828 13.5983 12C13.5983 11.1173 12.8827 10.4015 11.9999 10.4015C11.1172 10.4015 10.4014 11.1171 10.4014 12Z" fill="#CCCCCC" />
    <path fill-rule="evenodd" clip-rule="evenodd" d="M2 11.9999C2 6.47703 6.47703 2 11.9999 2C17.5222 2 22 6.47703 22 11.9999C22 17.523 17.5227 22 11.9999 22H2L5.73757 19.7937C3.45942 17.9607 2 15.1514 2 11.9999ZM5.31884 21.1102H11.9996C17.0311 21.1102 21.1099 17.0311 21.1099 11.9999C21.1099 6.96838 17.0311 2.88981 11.9996 2.88981C6.96812 2.88981 2.88956 6.96838 2.88956 11.9999C2.88956 15.3669 4.71742 18.305 7.43355 19.8822L5.31884 21.1102Z" fill="#CCCCCC" />
</svg>