<svg width="171" height="121" viewBox="0 0 171 121" fill="none" xmlns="http://www.w3.org/2000/svg">
    <g opacity="0.1">
        <path d="M88.9199 40.8215C88.9199 36.5897 89.5663 32.5058 90.7701 28.6652C95.972 12.0576 111.552 0 129.96 0C138.182 0 145.836 2.40677 152.257 6.54845C163.538 13.8215 171 26.454 171 40.8215C171 62.4671 154.064 80.1751 132.653 81.5545C137.041 97.4698 146.373 111.242 158.825 121C119.926 119.217 88.9199 86.1401 88.9199 45.5959C88.9199 44.691 88.9404 43.7896 88.9695 42.8898C88.937 42.2077 88.9199 41.5172 88.9199 40.8215Z" fill="#62DBE8" />
        <path d="M-9.93977e-06 40.8215C-9.93977e-06 36.5897 0.648081 32.5058 1.85021 28.6652C7.05033 12.0576 22.6302 0 41.04 0C49.2634 0 56.914 2.40677 63.3368 6.54845C74.6159 13.8215 82.0801 26.454 82.0801 40.8215C82.0801 62.4671 65.1442 80.1751 43.7316 81.5545C48.1194 97.4698 57.4509 111.242 69.9032 121C31.004 119.217 -9.93977e-06 86.1401 -9.93977e-06 45.5959C-9.93977e-06 44.691 0.020505 43.7896 0.0495743 42.8898C0.0170884 42.2077 -9.93977e-06 41.5172 -9.93977e-06 40.8215Z" fill="#62DBE8" />
    </g>
</svg>