<svg width="164" height="166" viewBox="0 0 164 166" fill="none" xmlns="http://www.w3.org/2000/svg">
    <path d="M1.66377 82.0492C1.66377 37.814 37.7913 1.66477 82 1.66477C126.209 1.66477 162.336 37.814 162.336 82.0492C162.336 102.264 154.968 120.815 142.609 134.846H144.748C156.87 120.577 164 102.264 164 82.0492C164 36.8627 127.159 0 82 0C36.8406 0 0 36.8627 0 82.0492C0 102.026 7.36812 120.577 19.2522 134.846H21.3913C9.03188 120.577 1.66377 102.264 1.66377 82.0492Z" fill="#0CAE86" />
    <path d="M3.56498 82.0484C3.56498 38.7645 38.7418 3.56653 81.9998 3.56653C125.258 3.56653 160.435 38.7645 160.435 82.0484C160.435 102.263 152.591 120.814 139.994 134.845H141.182C153.779 120.814 161.385 102.263 161.385 82.0484C161.385 38.2888 125.733 2.61523 81.9998 2.61523C38.2664 2.61523 2.61426 38.2888 2.61426 82.0484C2.61426 102.263 10.2201 120.814 22.8172 134.845H24.0056C11.1708 120.814 3.56498 102.263 3.56498 82.0484Z" fill="#0CAE86" />
    <path d="M100.777 142.218C100.777 143.169 101.49 143.882 102.441 143.882C103.392 143.882 104.105 143.169 104.105 142.218C104.105 141.266 103.392 140.553 102.441 140.553C101.49 140.553 100.777 141.266 100.777 142.218Z" fill="#0CAE86" />
    <path d="M63.9356 146.023C62.2718 146.023 60.608 146.261 59.1819 146.975V149.353L59.4196 149.115C60.8457 148.402 62.0341 147.926 63.2225 147.926C65.3617 147.926 66.5501 149.115 66.5501 151.256H64.8863C60.1327 151.256 57.7559 152.92 57.7559 156.012C57.7559 158.39 59.6573 160.293 62.2718 160.293C64.1733 160.293 65.837 159.579 66.7877 158.152V160.055H69.4022V151.493C69.1646 147.926 67.2631 146.023 63.9356 146.023ZM66.3124 154.347C66.3124 156.726 64.8863 158.39 62.5095 158.39C61.0834 158.39 60.1327 157.439 60.1327 156.25C60.1327 154.585 61.7964 153.634 64.6486 153.634H66.0747V154.347H66.3124Z" fill="#0CAE86" />
    <path d="M81.049 139.842V148.403C80.0983 146.977 78.6722 146.263 76.7708 146.263C73.2055 146.263 71.0664 149.117 71.0664 153.398C71.0664 157.679 73.4432 160.77 76.7708 160.77C78.6722 160.77 80.336 159.819 81.5244 158.154V160.532H84.1389V139.842H81.049ZM77.4838 158.154C75.3447 158.154 73.9186 156.252 73.9186 153.16C73.9186 150.068 75.3447 148.166 77.2461 148.166C79.6229 148.166 81.049 150.068 81.049 153.16C81.049 156.252 79.6229 158.154 77.4838 158.154Z" fill="#0CAE86" />
    <path d="M96.4978 146.498L92.4572 154.346L88.892 146.498H85.5645L92.4572 160.292L99.5876 146.498H96.4978Z" fill="#0CAE86" />
    <path d="M103.629 146.498H101.015V160.292H103.867V146.498H103.629Z" fill="#0CAE86" />
    <path d="M107.194 150.068C107.194 151.97 108.62 153.159 110.997 154.349C112.66 155.062 113.373 155.538 113.373 156.727C113.373 157.916 112.423 158.629 110.759 158.629C109.571 158.629 108.382 158.392 107.194 157.678H106.956V160.056C108.144 160.532 109.333 160.77 110.521 160.77C114.086 160.77 116.226 159.105 116.226 156.489C116.226 154.349 114.8 153.397 112.423 152.208C110.521 151.257 109.808 150.781 109.808 150.068C109.808 149.116 110.759 148.641 111.947 148.641C113.136 148.641 114.324 148.879 115.275 149.354H115.513L115.75 146.976C114.562 146.738 113.373 146.5 112.423 146.5C109.095 146.263 107.194 147.689 107.194 150.068Z" fill="#0CAE86" />
    <path d="M125.257 146.023C120.979 146.023 118.364 148.877 118.364 153.396C118.364 157.915 120.979 160.769 125.257 160.769C129.535 160.769 132.15 157.915 132.15 153.396C132.15 148.877 129.535 146.023 125.257 146.023ZM125.257 158.39C122.88 158.39 121.216 156.488 121.216 153.396C121.216 150.304 122.88 148.402 125.257 148.402C127.634 148.402 129.298 150.304 129.298 153.396C129.06 156.488 127.634 158.39 125.257 158.39Z" fill="#0CAE86" />
    <path d="M137.379 148.64V146.262H134.765V160.293H137.617V153.396C137.617 150.543 138.805 148.878 141.182 148.878C141.42 148.878 141.895 148.878 142.133 149.116H142.37V146.262H141.182C139.518 146.262 138.092 146.975 137.379 148.64Z" fill="#0CAE86" />
    <path d="M147.124 145.074C146.411 145.074 145.935 145.312 145.46 145.788C144.985 146.263 144.747 146.977 144.747 147.69C144.747 148.404 144.985 148.879 145.46 149.355C145.935 149.831 146.649 150.069 147.362 150.069C148.075 150.069 148.55 149.831 149.025 149.355C149.501 148.879 149.738 148.166 149.738 147.452C149.738 146.739 149.501 146.263 149.025 145.788C148.55 145.312 147.837 145.074 147.124 145.074ZM147.124 149.593C146.649 149.593 145.935 149.355 145.698 148.879C145.222 148.404 145.222 147.928 145.222 147.452C145.222 146.977 145.46 146.263 145.935 146.026C146.411 145.55 146.886 145.55 147.362 145.55C147.837 145.55 148.55 145.788 148.788 146.263C149.263 146.739 149.263 147.215 149.263 147.69C149.263 148.166 149.025 148.879 148.55 149.117C148.312 149.355 147.837 149.593 147.124 149.593ZM146.886 147.215V146.501H147.124C147.599 146.501 147.599 146.501 147.599 146.977C147.599 147.215 147.362 147.452 147.124 147.452H146.886V147.215ZM147.362 146.026H146.173V148.879H146.886V147.69H147.124L147.599 148.879H148.55L147.837 147.69C148.312 147.69 148.312 147.215 148.312 146.977C148.55 146.501 148.075 146.026 147.362 146.026Z" fill="#9DD0BC" />
    <path d="M109.095 123.667C104.817 125.332 100.301 125.094 96.2601 123.192C92.2195 121.289 89.1297 117.96 87.4659 113.679C85.8022 109.398 86.0398 104.879 87.9413 100.836C89.8427 96.7934 93.1703 93.7017 97.4485 92.0369C106.243 88.7074 115.988 93.226 119.078 102.025C122.405 110.587 117.889 120.338 109.095 123.667ZM81.9993 106.068C81.2862 95.1286 72.2543 86.5669 61.321 86.3291C67.5007 83.7131 74.3935 82.2861 81.9993 82.2861C89.6051 82.2861 96.4978 83.7131 102.44 86.3291C100.301 86.3291 97.9239 86.8048 95.7848 87.5182C90.5558 89.4208 86.2775 93.4638 83.9007 98.4581C82.95 101.312 82.2369 103.69 81.9993 106.068ZM61.0833 124.619C51.8137 124.619 44.208 117.008 44.208 107.733C44.208 98.4581 51.8137 90.8478 61.0833 90.8478C70.3529 90.8478 77.9587 98.4581 77.9587 107.733C77.9587 117.008 70.3529 124.619 61.0833 124.619ZM123.118 100.361C122.405 98.4581 121.454 96.5555 120.266 95.1286C121.217 90.8478 124.544 86.5669 124.544 86.5669H110.521C102.678 81.3348 92.9326 78.7188 82.2369 78.7188C71.0659 78.7188 61.0833 81.5726 53.2398 86.5669H39.9297C39.9297 86.5669 43.0195 90.8478 43.9703 94.8908C41.3558 98.4581 39.9297 102.739 39.9297 107.495C39.9297 119.149 49.4369 128.662 61.0833 128.662C67.7384 128.662 73.6804 125.57 77.4833 120.814L81.9993 127.473L86.5152 120.576C88.6543 123.192 91.2688 125.332 94.3587 126.759C99.5877 129.137 105.292 129.375 110.521 127.473C121.454 123.667 127.159 111.301 123.118 100.361Z" fill="#091016" />
    <path d="M20.6792 142.221L18.0647 143.172V146.502H15.4502V148.642H18.3024V155.777C18.3024 159.106 19.4908 160.533 22.3429 160.533C23.056 160.533 23.769 160.533 24.4821 160.295V157.917H24.2444C23.769 158.155 23.2937 158.155 22.8183 158.155C21.3922 158.155 20.9169 157.441 20.9169 155.301V148.404H24.2444V146.264H20.9169L20.6792 142.221Z" fill="#091016" />
    <path d="M29.4729 148.64V146.262H26.8584V160.293H29.7106V153.396C29.7106 150.543 30.899 148.878 33.2758 148.878C33.5135 148.878 33.9888 148.878 34.2265 149.116H34.4642V146.262H33.2758C31.8497 146.262 30.4236 146.975 29.4729 148.64Z" fill="#091016" />
    <path d="M49.6748 146.023C47.7733 146.023 46.1095 146.975 44.9211 148.639V146.261H42.3066V166.001H45.1588V158.39C46.1095 159.817 47.5356 160.531 49.4371 160.531C53.0023 160.531 55.3791 157.677 55.3791 153.158C55.6168 148.877 53.24 146.023 49.6748 146.023ZM48.9617 158.39C46.8226 158.39 45.3965 156.488 45.3965 153.396C45.3965 150.542 46.8226 148.402 49.1994 148.402C51.3385 148.402 52.7646 150.304 52.7646 153.158C52.5269 156.25 51.1008 158.39 48.9617 158.39Z" fill="#091016" />
    <path d="M39.693 146.498H36.8408V160.292H39.693V146.498Z" fill="#091016" />
    <path d="M36.6025 142.218C36.6025 143.169 37.3156 143.882 38.2663 143.882C39.217 143.882 39.9301 143.169 39.9301 142.218C39.9301 141.266 39.217 140.553 38.2663 140.553C37.5533 140.553 36.6025 141.266 36.6025 142.218Z" fill="#091016" />
    <path d="M95.7851 87.7536C97.9242 87.0401 100.301 86.5645 102.44 86.5645C96.2604 83.9484 89.6053 82.5215 81.9996 82.5215C74.3938 82.5215 67.501 83.9484 61.3213 86.5645C72.2546 86.8023 81.2865 95.364 81.9996 106.304C82.2372 103.926 82.7126 101.31 83.901 98.9313C86.2778 93.6992 90.5561 89.894 95.7851 87.7536Z" fill="#F9C416" />
    <path d="M103.154 117.959C97.4497 117.959 92.6961 113.203 92.6961 107.495C92.6961 101.787 97.4497 97.0306 103.154 97.0306C108.858 97.0306 113.612 101.787 113.612 107.495C113.612 113.203 108.858 117.959 103.154 117.959ZM97.4497 91.7985C93.1715 93.4633 89.8439 96.555 87.9425 100.598C86.041 104.641 85.8033 109.397 87.4671 113.44C89.1309 117.721 92.2207 121.051 96.2613 122.953C100.302 124.856 105.056 125.094 109.096 123.429C117.89 120.1 122.406 110.349 119.079 101.787C115.751 93.2254 106.006 88.7068 97.4497 91.7985Z" fill="white" />
    <path d="M103.153 111.064C101.252 111.064 99.5883 109.399 99.5883 107.497C99.5883 105.594 101.252 103.929 103.153 103.929C105.055 103.929 106.719 105.594 106.719 107.497C106.719 109.399 105.055 111.064 103.153 111.064ZM103.153 100.6C99.3506 100.6 96.2607 103.691 96.2607 107.497C96.2607 111.302 99.3506 114.393 103.153 114.393C106.956 114.393 110.046 111.302 110.046 107.497C110.046 103.691 106.956 100.6 103.153 100.6Z" fill="white" />
    <path d="M60.6086 111.064C58.7071 111.064 57.0434 109.399 57.0434 107.497C57.0434 105.594 58.7071 103.929 60.6086 103.929C62.51 103.929 64.1738 105.594 64.1738 107.497C64.1738 109.399 62.7477 111.064 60.6086 111.064ZM60.6086 100.6C56.8057 100.6 53.7158 103.691 53.7158 107.497C53.7158 111.302 56.8057 114.393 60.6086 114.393C64.4115 114.393 67.5013 111.302 67.5013 107.497C67.5013 103.691 64.4115 100.6 60.6086 100.6Z" fill="white" />
    <path d="M60.608 117.96C54.9037 117.96 50.15 113.203 50.15 107.495C50.15 101.788 54.9037 97.0311 60.608 97.0311C66.3124 97.0311 71.066 101.788 71.066 107.495C71.066 113.203 66.55 117.96 60.608 117.96ZM61.0834 90.8477C51.8138 90.8477 44.208 98.458 44.208 107.733C44.208 117.008 51.8138 124.619 61.0834 124.619C70.3529 124.619 77.9587 117.008 77.9587 107.733C77.9587 98.2202 70.3529 90.8477 61.0834 90.8477Z" fill="white" />
    <path d="M60.6082 103.926C58.7067 103.926 57.043 105.591 57.043 107.493C57.043 109.396 58.7067 111.06 60.6082 111.06C62.5096 111.06 64.1734 109.396 64.1734 107.493C64.1734 105.591 62.7473 103.926 60.6082 103.926Z" fill="#EF6A45" />
    <path d="M103.153 103.926C101.252 103.926 99.5879 105.591 99.5879 107.493C99.5879 109.396 101.252 111.06 103.153 111.06C105.055 111.06 106.718 109.396 106.718 107.493C106.718 105.591 105.055 103.926 103.153 103.926Z" fill="#0CAE86" />
    <path d="M60.6084 114.396C56.8055 114.396 53.7156 111.305 53.7156 107.499C53.7156 103.694 56.8055 100.603 60.6084 100.603C64.4113 100.603 67.5011 103.694 67.5011 107.499C67.5011 111.305 64.4113 114.396 60.6084 114.396ZM60.6084 97.0352C54.904 97.0352 50.1504 101.792 50.1504 107.499C50.1504 113.207 54.904 117.964 60.6084 117.964C66.3127 117.964 71.0663 113.207 71.0663 107.499C71.0663 101.792 66.5504 97.0352 60.6084 97.0352Z" fill="#091016" />
    <path d="M103.153 114.396C99.3504 114.396 96.2605 111.305 96.2605 107.499C96.2605 103.694 99.3504 100.603 103.153 100.603C106.956 100.603 110.046 103.694 110.046 107.499C110.046 111.305 106.956 114.396 103.153 114.396ZM103.153 97.0352C97.4489 97.0352 92.6953 101.792 92.6953 107.499C92.6953 113.207 97.4489 117.964 103.153 117.964C108.858 117.964 113.611 113.207 113.611 107.499C113.611 101.792 108.858 97.0352 103.153 97.0352Z" fill="#091016" />
    <path d="M132.388 86.567C132.864 87.0426 133.101 87.5183 133.101 88.2318C133.101 88.9452 132.864 89.4209 132.388 89.8965C131.913 90.3722 131.2 90.61 130.724 90.61C130.011 90.61 129.536 90.3722 129.061 89.8965C128.585 89.4209 128.348 88.7074 128.348 88.2318C128.348 87.5183 128.585 87.0426 129.061 86.567C129.536 86.0913 130.011 85.8535 130.724 85.8535C131.2 85.8535 131.913 86.0913 132.388 86.567ZM129.061 86.8048C128.585 87.2805 128.348 87.7561 128.348 88.2318C128.348 88.7074 128.585 89.1831 128.823 89.6587C129.298 90.1344 129.774 90.3722 130.249 90.3722C130.724 90.3722 131.2 90.1343 131.675 89.8965C132.151 89.4209 132.388 88.9452 132.388 88.4696C132.388 87.9939 132.151 87.5183 131.913 87.0426C131.438 86.567 130.962 86.3292 130.487 86.3292C130.011 86.3292 129.536 86.567 129.061 86.8048ZM130.487 86.8048C131.2 86.8048 131.675 87.0426 131.675 87.5183C131.675 87.7561 131.438 88.2318 131.2 88.2318L131.913 89.4209H131.2L130.724 88.2318H130.487V89.4209H129.774V86.8048H130.487ZM130.249 87.9939H130.487C130.724 87.9939 130.962 87.9939 130.962 87.7561C130.962 87.5183 130.724 87.2805 130.487 87.2805H130.249V87.9939Z" fill="#091016" />
    <path d="M109.095 123.667C104.817 125.332 100.301 125.094 96.2601 123.192C92.2195 121.289 89.1297 117.96 87.4659 113.679C85.8022 109.398 86.0398 104.879 87.9413 100.836C89.8427 96.7934 93.1703 93.7017 97.4485 92.0369C106.243 88.7074 115.988 93.226 119.078 102.025C122.405 110.587 117.889 120.338 109.095 123.667ZM81.9993 106.068C81.2862 95.1286 72.2543 86.5669 61.321 86.3291C67.5007 83.7131 74.3935 82.2861 81.9993 82.2861C89.6051 82.2861 96.4978 83.7131 102.44 86.3291C100.301 86.3291 97.9239 86.8048 95.7848 87.5182C90.5558 89.4208 86.2775 93.4638 83.9007 98.4581C82.95 101.312 82.2369 103.69 81.9993 106.068ZM61.0833 124.619C51.8137 124.619 44.208 117.008 44.208 107.733C44.208 98.4581 51.8137 90.8478 61.0833 90.8478C70.3529 90.8478 77.9587 98.4581 77.9587 107.733C77.9587 117.008 70.3529 124.619 61.0833 124.619ZM123.118 100.361C122.405 98.4581 121.454 96.5555 120.266 95.1286C121.217 90.8478 124.544 86.5669 124.544 86.5669H110.521C102.678 81.3348 92.9326 78.7188 82.2369 78.7188C71.0659 78.7188 61.0833 81.5726 53.2398 86.5669H39.9297C39.9297 86.5669 43.0195 90.8478 43.9703 94.8908C41.3558 98.4581 39.9297 102.739 39.9297 107.495C39.9297 119.149 49.4369 128.662 61.0833 128.662C67.7384 128.662 73.6804 125.57 77.4833 120.814L81.9993 127.473L86.5152 120.576C88.6543 123.192 91.2688 125.332 94.3587 126.759C99.5877 129.137 105.292 129.375 110.521 127.473C121.454 123.667 127.159 111.301 123.118 100.361Z" fill="#091016" />
    <path d="M20.6792 142.221L18.0647 143.172V146.502H15.4502V148.642H18.3024V155.777C18.3024 159.106 19.4908 160.533 22.3429 160.533C23.056 160.533 23.769 160.533 24.4821 160.295V157.917H24.2444C23.769 158.155 23.2937 158.155 22.8183 158.155C21.3922 158.155 20.9169 157.441 20.9169 155.301V148.404H24.2444V146.264H20.9169L20.6792 142.221Z" fill="#091016" />
    <path d="M29.4729 148.64V146.262H26.8584V160.293H29.7106V153.396C29.7106 150.543 30.899 148.878 33.2758 148.878C33.5135 148.878 33.9888 148.878 34.2265 149.116H34.4642V146.262H33.2758C31.8497 146.262 30.4236 146.975 29.4729 148.64Z" fill="#091016" />
    <path d="M49.6748 146.023C47.7733 146.023 46.1095 146.975 44.9211 148.639V146.261H42.3066V166.001H45.1588V158.39C46.1095 159.817 47.5356 160.531 49.4371 160.531C53.0023 160.531 55.3791 157.677 55.3791 153.158C55.6168 148.877 53.24 146.023 49.6748 146.023ZM48.9617 158.39C46.8226 158.39 45.3965 156.488 45.3965 153.396C45.3965 150.542 46.8226 148.402 49.1994 148.402C51.3385 148.402 52.7646 150.304 52.7646 153.158C52.5269 156.25 51.1008 158.39 48.9617 158.39Z" fill="#091016" />
    <path d="M39.693 146.498H36.8408V160.292H39.693V146.498Z" fill="#091016" />
    <path d="M36.6025 142.218C36.6025 143.169 37.3156 143.882 38.2663 143.882C39.217 143.882 39.9301 143.169 39.9301 142.218C39.9301 141.266 39.217 140.553 38.2663 140.553C37.5533 140.553 36.6025 141.266 36.6025 142.218Z" fill="#091016" />
    <path d="M95.7851 87.7536C97.9242 87.0401 100.301 86.5645 102.44 86.5645C96.2604 83.9484 89.6053 82.5215 81.9996 82.5215C74.3938 82.5215 67.501 83.9484 61.3213 86.5645C72.2546 86.8023 81.2865 95.364 81.9996 106.304C82.2372 103.926 82.7126 101.31 83.901 98.9313C86.2778 93.6992 90.5561 89.894 95.7851 87.7536Z" fill="#F9C416" />
    <path d="M103.154 117.959C97.4497 117.959 92.6961 113.203 92.6961 107.495C92.6961 101.787 97.4497 97.0306 103.154 97.0306C108.858 97.0306 113.612 101.787 113.612 107.495C113.612 113.203 108.858 117.959 103.154 117.959ZM97.4497 91.7985C93.1715 93.4633 89.8439 96.555 87.9425 100.598C86.041 104.641 85.8033 109.397 87.4671 113.44C89.1309 117.721 92.2207 121.051 96.2613 122.953C100.302 124.856 105.056 125.094 109.096 123.429C117.89 120.1 122.406 110.349 119.079 101.787C115.751 93.2254 106.006 88.7068 97.4497 91.7985Z" fill="white" />
    <path d="M103.153 111.064C101.252 111.064 99.5883 109.399 99.5883 107.497C99.5883 105.594 101.252 103.929 103.153 103.929C105.055 103.929 106.719 105.594 106.719 107.497C106.719 109.399 105.055 111.064 103.153 111.064ZM103.153 100.6C99.3506 100.6 96.2607 103.691 96.2607 107.497C96.2607 111.302 99.3506 114.393 103.153 114.393C106.956 114.393 110.046 111.302 110.046 107.497C110.046 103.691 106.956 100.6 103.153 100.6Z" fill="white" />
    <path d="M60.6086 111.064C58.7071 111.064 57.0434 109.399 57.0434 107.497C57.0434 105.594 58.7071 103.929 60.6086 103.929C62.51 103.929 64.1738 105.594 64.1738 107.497C64.1738 109.399 62.7477 111.064 60.6086 111.064ZM60.6086 100.6C56.8057 100.6 53.7158 103.691 53.7158 107.497C53.7158 111.302 56.8057 114.393 60.6086 114.393C64.4115 114.393 67.5013 111.302 67.5013 107.497C67.5013 103.691 64.4115 100.6 60.6086 100.6Z" fill="white" />
    <path d="M60.608 117.96C54.9037 117.96 50.15 113.203 50.15 107.495C50.15 101.788 54.9037 97.0311 60.608 97.0311C66.3124 97.0311 71.066 101.788 71.066 107.495C71.066 113.203 66.55 117.96 60.608 117.96ZM61.0834 90.8477C51.8138 90.8477 44.208 98.458 44.208 107.733C44.208 117.008 51.8138 124.619 61.0834 124.619C70.3529 124.619 77.9587 117.008 77.9587 107.733C77.9587 98.2202 70.3529 90.8477 61.0834 90.8477Z" fill="white" />
    <path d="M60.6082 103.926C58.7067 103.926 57.043 105.591 57.043 107.493C57.043 109.396 58.7067 111.06 60.6082 111.06C62.5096 111.06 64.1734 109.396 64.1734 107.493C64.1734 105.591 62.7473 103.926 60.6082 103.926Z" fill="#EF6A45" />
    <path d="M103.153 103.926C101.252 103.926 99.5879 105.591 99.5879 107.493C99.5879 109.396 101.252 111.06 103.153 111.06C105.055 111.06 106.718 109.396 106.718 107.493C106.718 105.591 105.055 103.926 103.153 103.926Z" fill="#0CAE86" />
    <path d="M60.6084 114.396C56.8055 114.396 53.7156 111.305 53.7156 107.499C53.7156 103.694 56.8055 100.603 60.6084 100.603C64.4113 100.603 67.5011 103.694 67.5011 107.499C67.5011 111.305 64.4113 114.396 60.6084 114.396ZM60.6084 97.0352C54.904 97.0352 50.1504 101.792 50.1504 107.499C50.1504 113.207 54.904 117.964 60.6084 117.964C66.3127 117.964 71.0663 113.207 71.0663 107.499C71.0663 101.792 66.5504 97.0352 60.6084 97.0352Z" fill="#091016" />
    <path d="M103.153 114.396C99.3504 114.396 96.2605 111.305 96.2605 107.499C96.2605 103.694 99.3504 100.603 103.153 100.603C106.956 100.603 110.046 103.694 110.046 107.499C110.046 111.305 106.956 114.396 103.153 114.396ZM103.153 97.0352C97.4489 97.0352 92.6953 101.792 92.6953 107.499C92.6953 113.207 97.4489 117.964 103.153 117.964C108.858 117.964 113.611 113.207 113.611 107.499C113.611 101.792 108.858 97.0352 103.153 97.0352Z" fill="#091016" />
    <path d="M132.388 86.567C132.864 87.0426 133.101 87.5183 133.101 88.2318C133.101 88.9452 132.864 89.4209 132.388 89.8965C131.913 90.3722 131.2 90.61 130.724 90.61C130.011 90.61 129.536 90.3722 129.061 89.8965C128.585 89.4209 128.348 88.7074 128.348 88.2318C128.348 87.5183 128.585 87.0426 129.061 86.567C129.536 86.0913 130.011 85.8535 130.724 85.8535C131.2 85.8535 131.913 86.0913 132.388 86.567ZM129.061 86.8048C128.585 87.2805 128.348 87.7561 128.348 88.2318C128.348 88.7074 128.585 89.1831 128.823 89.6587C129.298 90.1344 129.774 90.3722 130.249 90.3722C130.724 90.3722 131.2 90.1343 131.675 89.8965C132.151 89.4209 132.388 88.9452 132.388 88.4696C132.388 87.9939 132.151 87.5183 131.913 87.0426C131.438 86.567 130.962 86.3292 130.487 86.3292C130.011 86.3292 129.536 86.567 129.061 86.8048ZM130.487 86.8048C131.2 86.8048 131.675 87.0426 131.675 87.5183C131.675 87.7561 131.438 88.2318 131.2 88.2318L131.913 89.4209H131.2L130.724 88.2318H130.487V89.4209H129.774V86.8048H130.487ZM130.249 87.9939H130.487C130.724 87.9939 130.962 87.9939 130.962 87.7561C130.962 87.5183 130.724 87.2805 130.487 87.2805H130.249V87.9939Z" fill="#091016" />
    <path d="M37.5532 48.7547C36.6025 48.7547 35.6518 48.5169 34.9387 48.279C34.2257 47.8034 33.5126 47.3277 33.0373 46.6143C32.5619 45.9008 32.3242 44.9495 32.3242 43.9982C32.3242 43.0469 32.5619 42.3334 33.0373 41.3821C33.5126 40.6687 33.988 39.9552 34.9387 39.7174C35.6518 39.2417 36.6025 39.0039 37.5532 39.0039C38.0286 39.0039 38.5039 39.0039 39.217 39.2417C39.6923 39.4796 40.1677 39.4796 40.6431 39.7174L40.4054 41.3821C39.4547 40.9065 38.5039 40.6687 37.7909 40.6687C37.0778 40.6687 36.6025 40.9065 36.1271 41.1443C35.6518 41.3821 35.1764 41.8578 34.9387 42.3334C34.701 42.8091 34.4633 43.2847 34.4633 43.9982C34.4633 44.9495 34.701 45.663 35.4141 46.3764C35.8894 46.8521 36.8402 47.3277 37.7909 47.3277C38.2662 47.3277 38.7416 47.3277 39.217 47.0899C39.6923 46.8521 40.1677 46.8521 40.6431 46.6143L40.8807 48.279C40.4054 48.5169 39.93 48.7547 39.4547 48.7547C38.9793 48.7547 38.0286 48.7547 37.5532 48.7547Z" fill="#091016" />
    <path d="M42.3066 39.2402H48.4864V40.6672H43.9704V43.0454H48.011V44.7102H43.9704V47.0884H48.724V48.7532H42.3066V39.2402Z" fill="#091016" />
    <path d="M52.2911 43.7589H53.2418C54.6679 43.7589 55.1433 43.2832 55.1433 42.3319C55.1433 41.8563 54.9056 41.3806 54.6679 41.1428C54.4302 40.905 53.9549 40.6672 53.2418 40.6672H52.2911V43.7589ZM50.3896 39.2402H53.4795C54.6679 39.2402 55.381 39.4781 56.094 39.9537C56.807 40.4294 57.0447 41.1428 57.0447 42.0941C57.0447 42.5698 56.807 43.0454 56.5694 43.5211C56.3317 43.9967 55.8563 44.2345 55.3809 44.7102L57.9954 48.5154H55.8563L53.7172 45.1858C53.4795 45.1858 53.4795 45.1858 53.2418 45.1858H53.0041H52.2911V48.5154H50.3896V39.2402Z" fill="#091016" />
    <path d="M60.8457 40.6672H57.7559V39.2402H65.837V40.6672H62.7472V48.7532H60.8457V40.6672Z" fill="#091016" />
    <path d="M69.1641 39.2402H67.2627V48.7532H69.1641V39.2402Z" fill="#091016" />
    <path d="M71.0664 39.2402H77.2461V40.6672H72.9679V43.2832H76.5331V44.948H72.9679V48.7532H71.0664V39.2402Z" fill="#091016" />
    <path d="M80.5733 39.2402H78.6719V48.7532H80.5733V39.2402Z" fill="#091016" />
    <path d="M87.229 48.7547C86.2783 48.7547 85.3275 48.5169 84.6145 48.279C83.9014 47.8034 83.1884 47.3277 82.713 46.6143C82.2377 45.9008 82 44.9495 82 43.9982C82 43.0469 82.2377 42.3334 82.713 41.3821C83.1884 40.6687 83.6638 39.9552 84.6145 39.7174C85.3275 39.2417 86.2783 39.0039 87.229 39.0039C87.7043 39.0039 88.1797 39.0039 88.8928 39.2417C89.3681 39.4796 89.8435 39.4796 90.3188 39.7174L90.0812 41.3821C89.1304 40.9065 88.1797 40.6687 87.4667 40.6687C86.7536 40.6687 86.2783 40.9065 85.8029 41.1443C85.3275 41.3821 84.8522 41.8578 84.6145 42.3334C84.3768 42.8091 84.1391 43.2847 84.1391 43.9982C84.1391 44.9495 84.3768 45.663 85.0899 46.3764C85.5652 46.8521 86.5159 47.3277 87.4667 47.3277C87.942 47.3277 88.4174 47.3277 88.8928 47.0899C89.3681 46.8521 89.8435 46.8521 90.3188 46.6143L90.5565 48.279C90.0812 48.5169 89.6058 48.7547 89.1304 48.7547C88.6551 48.7547 87.7043 48.7547 87.229 48.7547Z" fill="#091016" />
    <path d="M97.211 44.7102L95.7849 40.905L94.3588 44.7102H97.211ZM94.8342 39.2402H96.9733L100.776 48.7532H98.637L97.6863 46.1371H93.8834L92.9327 48.7532H91.0312L94.8342 39.2402Z" fill="#091016" />
    <path d="M103.154 40.6672H100.064V39.2402H108.146V40.6672H105.056V48.7532H103.154V40.6672Z" fill="#091016" />
    <path d="M109.333 39.2402H115.75V40.6672H111.234V43.0454H115.275V44.7102H111.234V47.0884H115.988V48.7532H109.333V39.2402Z" fill="#091016" />
    <path d="M122.644 47.5681C123.119 47.5681 123.357 47.5681 123.594 47.3302C123.832 47.0924 124.07 46.8546 124.307 46.3789C124.545 45.9033 124.545 45.6655 124.545 45.1898C124.545 44.7142 124.307 44.2385 124.07 44.0007C123.832 43.7629 123.357 43.5251 122.881 43.5251C122.406 43.5251 122.168 43.5251 121.931 43.7629C121.693 44.0007 121.455 44.2385 121.217 44.7142C120.98 45.1898 120.98 45.4276 120.98 45.9033C120.98 46.3789 121.217 46.8546 121.455 47.0924C121.693 47.3302 122.168 47.5681 122.644 47.5681ZM122.406 48.7572C121.931 48.7572 121.455 48.7572 120.98 48.5194C120.504 48.2815 120.267 48.0437 120.029 47.5681C119.791 47.0924 119.554 46.6168 119.554 46.1411C119.554 45.4276 119.791 44.952 120.029 44.2385C120.267 43.7629 120.742 43.2872 121.217 42.8116C121.693 42.3359 122.406 42.3359 123.119 42.3359C123.594 42.3359 124.07 42.3359 124.545 42.8116C125.02 43.0494 125.258 43.2872 125.496 43.7629C125.733 44.2385 125.971 44.7142 125.971 45.1898C125.971 45.9033 125.733 46.3789 125.496 47.0924C125.258 47.5681 124.783 48.0437 124.07 48.5194C123.832 48.7572 123.119 48.7572 122.406 48.7572Z" fill="#091016" />
    <path d="M128.348 43.5197H127.159L127.397 42.3306H128.585L128.823 41.3793C129.061 40.428 129.298 39.7145 129.774 39.2389C130.249 38.7632 130.962 38.5254 131.675 38.5254C131.913 38.5254 132.15 38.5254 132.388 38.5254C132.626 38.5254 132.864 38.7632 133.101 38.7632L132.864 39.9523C132.626 39.7145 132.15 39.7145 131.913 39.7145C131.437 39.7145 131.2 39.9523 130.724 40.1902C130.249 40.428 130.249 40.9036 130.249 41.6171L130.011 42.5684H131.675L131.437 43.7575H129.774L128.823 48.7518H127.397L128.348 43.5197Z" fill="#091016" />
    <path d="M23.0557 52.793H31.8499V55.1712H25.4325V58.2629H31.1368V60.6412H25.4325V63.9707H32.0875V66.1111H23.0557V52.793Z" fill="#091016" />
    <path d="M38.029 59.2142L33.7508 52.793H36.8406L39.6928 57.5494L42.7826 52.793H45.8725L41.3565 59.2142L46.1102 66.1111H42.7826L39.6928 61.1168L36.3652 66.1111H33.2754L38.029 59.2142Z" fill="#091016" />
    <path d="M53.4781 66.3489C52.052 66.3489 50.8636 66.1111 49.9129 65.6355C48.9621 65.1598 48.0114 64.2085 47.2984 63.2572C46.5853 62.3059 46.3477 61.1168 46.3477 59.6899C46.3477 58.2629 46.5853 57.3116 47.2984 56.1225C47.7737 55.1712 48.7245 54.2199 49.9129 53.7443C51.1013 53.0308 52.2897 52.793 53.7158 52.793C54.4288 52.793 55.1419 52.793 55.8549 53.0308C56.5679 53.2686 57.281 53.5064 57.7563 53.7443L57.281 56.1225C56.0926 55.409 54.6665 55.1712 53.7158 55.1712C52.765 55.1712 52.052 55.409 51.339 55.6469C50.6259 56.1225 50.1506 56.5982 49.6752 57.3116C49.1998 58.0251 49.1998 58.7386 49.1998 59.6899C49.1998 61.1168 49.6752 62.0681 50.3882 63.0194C51.1013 63.7329 52.2897 64.2085 53.7158 64.2085C54.4288 64.2085 54.9042 64.2085 55.6172 63.9707C56.3303 63.7329 57.0433 63.495 57.5187 63.2572L57.7563 65.6355C57.0433 65.8733 56.5679 66.3489 55.6172 66.3489C54.9042 66.3489 54.1911 66.3489 53.4781 66.3489Z" fill="#091016" />
    <path d="M60.1328 52.793H68.927V55.1712H62.7473V58.2629H68.214V60.6412H62.7473V63.9707H69.1647V66.1111H60.1328V52.793Z" fill="#091016" />
    <path d="M71.543 52.793H74.1575V63.9707H80.0995V66.1111H71.543V52.793Z" fill="#091016" />
    <path d="M82 52.793H84.8522V63.9707H90.7942V66.1111H82V52.793Z" fill="#091016" />
    <path d="M92.6953 52.793H101.49V55.1712H95.3098V58.2629H100.776V60.6412H95.3098V63.9707H101.727V66.1111H92.6953V52.793Z" fill="#091016" />
    <path d="M104.104 52.793H106.48L113.373 62.0681V52.793H115.988V66.1111H113.611L106.48 57.0738V66.1111H104.104V52.793Z" fill="#091016" />
    <path d="M125.258 66.3489C123.832 66.3489 122.644 66.1111 121.693 65.6355C120.742 65.1598 119.792 64.2085 119.079 63.2572C118.366 62.3059 118.128 61.1168 118.128 59.6899C118.128 58.2629 118.366 57.3116 119.079 56.1225C119.554 55.1712 120.505 54.2199 121.693 53.7443C122.882 53.0308 124.07 52.793 125.496 52.793C126.209 52.793 126.922 52.793 127.635 53.0308C128.348 53.2686 129.061 53.5064 129.537 53.7443L129.061 56.1225C127.873 55.409 126.447 55.1712 125.496 55.1712C124.545 55.1712 123.832 55.409 123.119 55.6469C122.406 56.1225 121.931 56.5982 121.455 57.3116C120.98 58.0251 120.98 58.7386 120.98 59.6899C120.98 61.1168 121.455 62.0681 122.169 63.0194C122.882 63.7329 124.07 64.2085 125.496 64.2085C126.209 64.2085 126.684 64.2085 127.397 63.9707C128.111 63.7329 128.824 63.495 129.299 63.2572L129.537 65.6355C128.824 65.8733 128.348 66.3489 127.397 66.3489C126.684 66.3489 125.971 66.3489 125.258 66.3489Z" fill="#091016" />
    <path d="M131.913 52.793H140.707V55.1712H134.29V58.2629H139.994V60.6412H134.29V63.9707H140.945V66.1111H131.913V52.793Z" fill="#091016" />
    <path d="M84.8534 22.8312L82.7142 23.7825L82.4766 22.3556L85.0911 21.4043H86.2795V29.2525H84.8534V22.8312Z" fill="#091016" />
    <path d="M91.0328 24.496C91.5082 24.496 91.7459 24.496 91.9836 24.2582C92.2212 24.0204 92.2212 23.7825 92.2212 23.5447C92.2212 23.3069 92.2212 22.8312 91.9836 22.8312C91.7459 22.5934 91.5082 22.5934 91.0328 22.5934C90.5575 22.5934 90.3198 22.5934 90.0821 22.8312C89.8444 23.0691 89.8444 23.3069 89.8444 23.5447C89.8444 23.7825 89.8444 24.2582 90.0821 24.2582C90.3198 24.496 90.5575 24.496 91.0328 24.496ZM91.0328 28.0634C91.5082 28.0634 91.7459 28.0634 91.9836 27.8255C92.2212 27.5877 92.4589 27.3499 92.4589 26.8742C92.4589 26.3986 92.2212 26.1608 91.9836 25.9229C91.7459 25.6851 91.5082 25.6851 91.0328 25.6851C90.5575 25.6851 90.3198 25.6851 90.0821 25.9229C89.8444 26.1608 89.6068 26.3986 89.6068 26.8742C89.6068 27.3499 89.8444 27.5877 90.0821 27.8255C90.3198 28.0634 90.5575 28.0634 91.0328 28.0634ZM91.0328 29.4903C90.5575 29.4903 89.8444 29.4903 89.6068 29.2525C89.1314 29.0147 88.8937 28.7768 88.656 28.539C88.4183 28.3012 88.1807 27.8255 88.1807 27.3499C88.1807 26.8742 88.1807 26.3986 88.4184 26.1608C88.656 25.923 88.8937 25.4473 89.3691 25.4473C89.1314 25.2095 88.656 24.9717 88.656 24.7338C88.4183 24.496 88.4184 24.0204 88.4184 23.5447C88.4184 23.0691 88.4183 22.8312 88.656 22.3556C88.8937 22.1178 89.1314 21.8799 89.6068 21.6421C90.0821 21.4043 90.5575 21.4043 91.0328 21.4043C91.5082 21.4043 91.9836 21.4043 92.4589 21.6421C92.9343 21.8799 93.172 22.1178 93.4097 22.3556C93.6473 22.5934 93.6473 23.0691 93.6473 23.5447C93.6473 24.0204 93.6473 24.2582 93.4097 24.7338C93.172 24.9717 92.9343 25.2095 92.6966 25.4473C93.172 25.6851 93.4097 25.923 93.6473 26.1608C93.885 26.3986 93.885 26.8742 93.885 27.3499C93.885 27.8255 93.885 28.3012 93.6473 28.539C93.4097 28.7768 93.172 29.2525 92.6966 29.2525C91.9836 29.2525 91.5082 29.4903 91.0328 29.4903Z" fill="#091016" />
    <path d="M69.165 29.2525V28.0634C70.1158 27.3499 70.8288 26.6364 71.3042 25.9229C71.7795 25.4473 72.2549 24.9717 72.2549 24.496C72.4926 24.2582 72.4926 23.7825 72.4926 23.5447C72.4926 23.3069 72.4926 22.8312 72.2549 22.8312C72.0172 22.5934 71.7795 22.5934 71.3042 22.5934C71.0665 22.5934 70.5911 22.5934 70.3534 22.8312C70.1158 23.0691 69.6404 23.3069 69.4027 23.5447L69.165 22.3556C69.4027 22.1178 69.8781 21.8799 70.3534 21.6421C70.8288 21.4043 71.3042 21.4043 71.7795 21.4043C72.4926 21.4043 73.2056 21.6421 73.681 22.1178C74.1563 22.5934 74.394 23.0691 74.394 23.7825C74.394 24.2582 74.1563 24.7338 73.9187 25.4473C73.681 25.923 73.2056 26.6364 72.7303 27.1121C72.4926 27.3499 72.0172 27.8255 71.5419 28.3012H74.6317V29.7281H69.165V29.2525Z" fill="#091016" />
    <path d="M78.4342 28.0629C79.3849 28.0629 79.6226 27.1116 79.6226 25.209C79.6226 23.3064 79.1473 22.3551 78.4342 22.3551C77.4835 22.3551 77.2458 23.3064 77.2458 25.209C77.2458 27.1116 77.4835 28.0629 78.4342 28.0629ZM78.4342 29.4899C77.4835 29.4899 76.7704 29.0142 76.2951 28.3007C75.8197 27.5873 75.582 26.636 75.582 25.209C75.582 23.7821 75.8197 22.8308 76.2951 22.1173C76.7704 21.4038 77.4835 21.166 78.4342 21.166C79.3849 21.166 80.098 21.6417 80.5733 22.3551C81.0487 23.0686 81.2864 24.0199 81.2864 25.4468C81.2864 26.636 81.0487 27.8251 80.5733 28.5386C80.098 29.0142 79.3849 29.4899 78.4342 29.4899Z" fill="#091016" />
    <path d="M84.8534 22.8312L82.7142 23.7825L82.4766 22.3556L85.0911 21.4043H86.2795V29.2525H84.8534V22.8312Z" fill="#091016" />
</svg>