<svg width="16" height="16" viewBox="0 0 16 16" fill="none" xmlns="http://www.w3.org/2000/svg">
    <path d="M15.7977 14.8234C16.0669 15.0925 16.0669 15.5289 15.7977 15.7981C15.5285 16.0673 15.0921 16.0673 14.823 15.7981L8 8.97498L1.17704 15.7981C0.907871 16.0673 0.471465 16.0673 0.202298 15.7981C-0.0668681 15.5289 -0.0668681 15.0925 0.202298 14.8234L7.02526 8.00021L0.201875 1.17665C-0.0672917 0.907471 -0.0672917 0.471054 0.201875 0.20188C0.471042 -0.0672934 0.907448 -0.0672934 1.17661 0.20188L8 7.02545L14.8234 0.20188C15.0926 -0.0672934 15.529 -0.0672934 15.7981 0.20188C16.0673 0.471054 16.0673 0.907471 15.7981 1.17665L8.97474 8.00021L15.7977 14.8234Z" fill="#A5A5A5" />
</svg>