<svg width="24" height="24" viewBox="0 0 24 24" fill="none" xmlns="http://www.w3.org/2000/svg">
    <path d="M8.34258 2.9782C8.34258 2.78521 8.19725 2.59223 7.95504 2.59223C7.76127 2.59223 7.56749 2.78521 7.56749 2.9782C7.56749 3.17118 7.76127 3.36416 7.95504 3.36416C8.19725 3.36416 8.34258 3.17118 8.34258 2.9782Z" fill="#CCCCCC" />
    <path d="M9.69894 2.59223C9.94116 2.59223 10.0865 2.78521 10.0865 2.9782C10.0865 3.17118 9.94116 3.36416 9.69894 3.36416C9.50517 3.36416 9.3114 3.17118 9.3114 2.9782C9.3114 2.78521 9.50517 2.59223 9.69894 2.59223Z" fill="#CCCCCC" />
    <path d="M11.8304 2.9782C11.8304 2.78521 11.6851 2.59223 11.4429 2.59223C11.2491 2.59223 11.0554 2.78521 11.0554 2.9782C11.0554 3.17118 11.2491 3.36416 11.4429 3.36416C11.6851 3.36416 11.8304 3.17118 11.8304 2.9782Z" fill="#CCCCCC" />
    <path fill-rule="evenodd" clip-rule="evenodd" d="M16.8201 1H7.17993C5.96886 1 5 1.96491 5 3.17105V20.8289C5 22.0351 5.96886 23 7.17993 23H16.8201C18.0311 23 19 22.0351 19 20.8289V3.17105C19 1.96491 18.0311 1 16.8201 1ZM18.0311 19.0439H5.96886V4.95614H18.0311V19.0439ZM5.96886 20.0088H18.0311V20.8289C18.0311 21.5044 17.4983 22.0351 16.8201 22.0351H7.17993C6.50173 22.0351 5.96886 21.5044 5.96886 20.8289V20.0088ZM18.0311 3.99123H5.96886V3.17105C5.96886 2.49561 6.50173 1.96491 7.17993 1.96491H16.8201C17.4983 1.96491 18.0311 2.49561 18.0311 3.17105V3.99123Z" fill="#CCCCCC" />
</svg>