<svg width="40" height="40" viewBox="0 0 40 40" fill="none" xmlns="http://www.w3.org/2000/svg">
    <path d="M35 40H5C3.67392 40 2.40215 39.4732 1.46447 38.5355C0.526784 37.5979 0 36.3261 0 35L0 5C0 3.67392 0.526784 2.40215 1.46447 1.46447C2.40215 0.526784 3.67392 0 5 0L35 0C36.3261 0 37.5979 0.526784 38.5355 1.46447C39.4732 2.40215 40 3.67392 40 5V35C40 36.3261 39.4732 37.5979 38.5355 38.5355C37.5979 39.4732 36.3261 40 35 40ZM5 1.25C4.00544 1.25 3.05161 1.64509 2.34835 2.34835C1.64509 3.05161 1.25 4.00544 1.25 5V35C1.25 35.9946 1.64509 36.9484 2.34835 37.6516C3.05161 38.3549 4.00544 38.75 5 38.75H35C35.9946 38.75 36.9484 38.3549 37.6516 37.6516C38.3549 36.9484 38.75 35.9946 38.75 35V5C38.75 4.00544 38.3549 3.05161 37.6516 2.34835C36.9484 1.64509 35.9946 1.25 35 1.25H5Z" fill="white" />
    <path d="M31.8805 17.6646C31.2224 16.2156 30.1299 15.0027 28.7516 14.1909C29.0643 13.9213 29.3147 13.588 29.4855 13.2137C29.6564 12.8395 29.7438 12.4331 29.7417 12.0223C29.7417 11.2207 29.4204 10.452 28.8485 9.88521C28.2766 9.31842 27.5009 9 26.6921 9C25.8832 9 25.1075 9.31842 24.5356 9.88521C23.9637 10.452 23.6424 11.2207 23.6424 12.0223C23.6416 12.4329 23.7296 12.8388 23.9004 13.2129C24.0712 13.587 24.3208 13.9204 24.6325 14.1909C23.8767 14.6408 23.2064 15.2187 22.6522 15.8983C22.4922 15.7981 22.327 15.7064 22.1571 15.6235C22.5417 15.322 22.8534 14.9391 23.0692 14.5027C23.2851 14.0663 23.3997 13.5876 23.4047 13.1017C23.4047 12.1908 23.0396 11.3173 22.3897 10.6732C21.7398 10.0291 20.8583 9.66726 19.9392 9.66726C19.02 9.66726 18.1386 10.0291 17.4886 10.6732C16.8387 11.3173 16.4736 12.1908 16.4736 13.1017C16.4784 13.5887 16.5939 14.0684 16.8116 14.505C17.0293 14.9416 17.3436 15.324 17.7311 15.6235C17.5591 15.7021 17.3935 15.794 17.236 15.8983C16.6817 15.2189 16.0114 14.641 15.2557 14.1909C15.5669 13.92 15.8162 13.5865 15.987 13.2125C16.1577 12.8385 16.246 12.4328 16.2459 12.0223C16.2456 11.6375 16.1654 11.2569 16.0104 10.9041C15.8554 10.5513 15.6289 10.2338 15.3448 9.97145C14.7669 9.42347 13.996 9.12069 13.1962 9.12756C12.8028 9.11581 12.411 9.18165 12.0435 9.32125C11.676 9.46085 11.3401 9.67144 11.0555 9.94077C10.7708 10.2101 10.543 10.5328 10.3852 10.8901C10.2275 11.2475 10.143 11.6323 10.1366 12.0223C10.1365 12.4328 10.2247 12.8385 10.3955 13.2125C10.5662 13.5865 10.8155 13.92 11.1267 14.1909C9.79737 15.0266 8.74942 16.236 8.11667 17.6646C7.96111 18.8765 7.96111 20.103 8.11667 21.3149C8.12309 21.8717 8.33521 22.4069 8.71291 22.8191C9.0906 23.2314 9.60767 23.4922 10.1663 23.5522L10.2851 25.9661C10.2851 26.4007 10.4593 26.8175 10.7694 27.1248C11.0795 27.4321 11.5001 27.6048 11.9387 27.6048H14.5824C14.9505 27.605 15.3081 27.4836 15.5987 27.2596C15.8893 27.0356 16.0961 26.722 16.1865 26.3684H16.4736L16.6221 29.1846C16.6248 29.667 16.8199 30.1287 17.165 30.4689C17.5101 30.809 17.9771 31 18.4638 31H21.5333C21.7726 31.0013 22.0098 30.9558 22.2313 30.8663C22.4528 30.7768 22.6544 30.6448 22.8245 30.4781C22.9946 30.3113 23.1299 30.113 23.2227 29.8945C23.3154 29.6759 23.3638 29.4414 23.3651 29.2043L23.5136 26.3586H23.8107C23.8975 26.7123 24.102 27.0266 24.3913 27.2509C24.6805 27.4753 25.0376 27.5965 25.4048 27.595H28.0585C28.4953 27.595 28.9144 27.4237 29.2242 27.1185C29.5341 26.8133 29.7094 26.399 29.712 25.9661L29.8408 23.5816C30.3943 23.5198 30.9063 23.2609 31.2815 22.8529C31.6567 22.445 31.8696 21.9158 31.8805 21.3639C32.0398 20.1359 32.0398 18.8926 31.8805 17.6646ZM30.1081 18.7636C30.1121 18.6971 30.1027 18.6304 30.0803 18.5675C30.058 18.5047 30.0232 18.4469 29.978 18.3975C29.9328 18.3482 29.8781 18.3082 29.8171 18.2801C29.7562 18.252 29.6901 18.2362 29.6229 18.2337C29.5546 18.2261 29.4854 18.2336 29.4204 18.2557C29.3553 18.2777 29.296 18.3138 29.2467 18.3613C29.1939 18.4047 29.1508 18.4585 29.1201 18.5193C29.0894 18.5802 29.0718 18.6466 29.0684 18.7145L28.6724 25.9661C28.6737 26.0473 28.6588 26.1279 28.6287 26.2034C28.5986 26.2789 28.5537 26.3478 28.4967 26.4061C28.4397 26.4644 28.3716 26.511 28.2965 26.5433C28.2213 26.5756 28.1404 26.5928 28.0585 26.5941H27.2465V22.8457C27.2465 22.7103 27.1923 22.5805 27.0957 22.4848C26.9992 22.3892 26.8682 22.3354 26.7317 22.3354C26.6632 22.3341 26.5952 22.3463 26.5316 22.3714C26.468 22.3964 26.41 22.4338 26.3612 22.4813C26.3123 22.5288 26.2735 22.5855 26.247 22.6481C26.2205 22.7107 26.2069 22.7778 26.2069 22.8457V26.545H25.4048C25.3207 26.5425 25.238 26.5234 25.1614 26.4889C25.0848 26.4543 25.016 26.405 24.9588 26.3438C24.9017 26.2826 24.8574 26.2108 24.8286 26.1324C24.7998 26.0541 24.787 25.9709 24.7909 25.8876C25.1166 25.6703 25.3846 25.3786 25.5725 25.037C25.7603 24.6954 25.8625 24.314 25.8702 23.925C26.0634 22.5119 26.0634 21.0795 25.8702 19.6664C25.3428 18.4737 24.5428 17.4189 23.5334 16.5852C24.0161 15.9831 24.6153 15.4826 25.2959 15.1133C25.6134 14.9975 25.9479 14.9345 26.2861 14.9268C26.4091 14.9178 26.5248 14.8652 26.612 14.7788C26.6992 14.6924 26.7522 14.5777 26.7614 14.4558C26.7706 14.3321 26.7332 14.2094 26.6564 14.1115C26.5795 14.0136 26.4688 13.9475 26.3455 13.926C25.8702 13.8197 25.4511 13.5435 25.1683 13.1503C24.8856 12.757 24.7591 12.2742 24.813 11.7943C24.8669 11.3144 25.0975 10.871 25.4606 10.549C25.8238 10.227 26.2939 10.049 26.7812 10.049C27.2684 10.049 27.7386 10.227 28.1017 10.549C28.4648 10.871 28.6954 11.3144 28.7493 11.7943C28.8033 12.2742 28.6767 12.757 28.394 13.1503C28.1113 13.5435 27.6922 13.8197 27.2168 13.926C27.0936 13.9475 26.9828 14.0136 26.906 14.1115C26.8291 14.2094 26.7917 14.3321 26.801 14.4558C26.8101 14.5777 26.8631 14.6924 26.9504 14.7788C27.0376 14.8652 27.1532 14.9178 27.2762 14.9268C27.6143 14.9356 27.9487 14.9985 28.2664 15.1133C29.3986 15.7968 30.3093 16.7878 30.8903 17.9688C31.0285 19.0767 31.0285 20.1972 30.8903 21.3051C30.8852 21.5848 30.7845 21.8545 30.6046 22.0702C30.4248 22.2859 30.1764 22.4347 29.9002 22.4924L30.1081 18.7636ZM15.2062 25.9661C15.2062 26.0473 15.1901 26.1277 15.1587 26.2027C15.1274 26.2777 15.0814 26.3458 15.0235 26.4032C14.9656 26.4606 14.8968 26.5062 14.8211 26.5372C14.7454 26.5683 14.6643 26.5843 14.5824 26.5843H13.7804V22.8457C13.7804 22.7103 13.7261 22.5805 13.6296 22.4848C13.533 22.3892 13.402 22.3354 13.2655 22.3354C13.1971 22.3341 13.129 22.3463 13.0654 22.3714C13.0018 22.3964 12.9439 22.4338 12.895 22.4813C12.8461 22.5288 12.8073 22.5855 12.7808 22.6481C12.7543 22.7107 12.7407 22.7778 12.7407 22.8457V26.5352H11.9387C11.855 26.534 11.7725 26.5161 11.696 26.4826C11.6194 26.4492 11.5505 26.4008 11.4932 26.3403C11.4359 26.2799 11.3915 26.2087 11.3626 26.1309C11.3336 26.0531 11.3208 25.9704 11.3248 25.8876L10.9386 18.7145C10.9352 18.6466 10.9176 18.5802 10.887 18.5193C10.8563 18.4585 10.8132 18.4047 10.7604 18.3613C10.7118 18.3156 10.6541 18.2807 10.591 18.2587C10.5278 18.2367 10.4607 18.2282 10.394 18.2337C10.3249 18.2362 10.2569 18.2522 10.194 18.2809C10.1312 18.3095 10.0746 18.3502 10.0277 18.4005C9.94037 18.5013 9.89443 18.6309 9.89895 18.7636L10.097 22.5022C9.81671 22.4346 9.56719 22.2763 9.38786 22.0524C9.20854 21.8284 9.10965 21.5517 9.10682 21.2658C8.97326 20.1708 8.97326 19.0638 9.10682 17.9688C9.68993 16.7653 10.6249 15.7635 11.7902 15.0937C12.1075 14.9777 12.4421 14.9147 12.7803 14.9072C12.8973 14.8937 13.0058 14.8402 13.0871 14.7558C13.1684 14.6714 13.2174 14.5615 13.2257 14.4451C13.2339 14.3287 13.2008 14.2131 13.1321 14.1183C13.0635 14.0235 12.9635 13.9555 12.8496 13.926C12.4154 13.8385 12.0232 13.6092 11.736 13.2747C11.4488 12.9403 11.2831 12.52 11.2654 12.0812C11.2654 11.5516 11.4777 11.0437 11.8555 10.6692C12.2334 10.2947 12.7459 10.0843 13.2803 10.0843C13.8148 10.0843 14.3273 10.2947 14.7051 10.6692C15.083 11.0437 15.2953 11.5516 15.2953 12.0812C15.2776 12.52 15.1119 12.9403 14.8247 13.2747C14.5375 13.6092 14.1453 13.8385 13.7111 13.926C13.6048 13.9631 13.5138 14.0338 13.452 14.1271C13.3902 14.2205 13.361 14.3314 13.3689 14.4427C13.3767 14.5541 13.4212 14.6598 13.4956 14.7437C13.5699 14.8276 13.67 14.8851 13.7804 14.9072C14.1184 14.9159 14.4528 14.9789 14.7705 15.0937C15.4494 15.4656 16.0481 15.9656 16.533 16.5656C15.5216 17.3996 14.7185 18.4541 14.1863 19.6467C14.0092 21.0444 14.0092 22.4586 14.1863 23.8564C14.1907 24.2566 14.2919 24.6499 14.4815 25.0033C14.671 25.3568 14.9433 25.66 15.2755 25.8876L15.2062 25.9661ZM24.0087 25.2203C23.873 25.2955 23.7259 25.3486 23.5731 25.3773L23.8107 20.942C23.8161 20.8057 23.7672 20.6727 23.6746 20.5717C23.582 20.4708 23.4531 20.4099 23.3156 20.4023C23.1796 20.3968 23.0469 20.4439 22.9453 20.5336C22.8437 20.6233 22.7812 20.7486 22.771 20.8831L22.3255 29.2239C22.3268 29.3283 22.3073 29.4319 22.2682 29.5288C22.2291 29.6257 22.1711 29.7141 22.0976 29.7888C22.024 29.8635 21.9363 29.9231 21.8395 29.9643C21.7427 30.0054 21.6387 30.0272 21.5333 30.0285H20.5432V24.8671C20.5432 24.7317 20.4889 24.6019 20.3924 24.5063C20.2958 24.4106 20.1648 24.3568 20.0283 24.3568C19.9598 24.3555 19.8918 24.3677 19.8282 24.3928C19.7646 24.4179 19.7067 24.4552 19.6578 24.5027C19.6089 24.5503 19.5701 24.6069 19.5436 24.6695C19.5171 24.7321 19.5035 24.7992 19.5035 24.8671V29.9795H18.5133C18.405 29.9782 18.298 29.9555 18.1987 29.9127C18.0993 29.8698 18.0097 29.8077 17.9349 29.73C17.8602 29.6522 17.8019 29.5605 17.7635 29.4601C17.7251 29.3597 17.7073 29.2527 17.7113 29.1454L17.2756 20.8341C17.2709 20.7678 17.2527 20.7033 17.2221 20.6442C17.1914 20.5852 17.149 20.5329 17.0974 20.4906C16.9983 20.3988 16.8667 20.3494 16.7311 20.3532C16.5905 20.3629 16.4592 20.4262 16.3647 20.5299C16.3197 20.5787 16.285 20.636 16.2629 20.6984C16.2408 20.7608 16.2316 20.8269 16.236 20.8929L16.4736 25.3283C16.3172 25.3012 16.1666 25.2481 16.028 25.1713C15.7775 25.041 15.5682 24.8448 15.4232 24.6041C15.2781 24.3634 15.203 24.0876 15.2062 23.8073C15.0425 22.527 15.0425 21.2313 15.2062 19.9509C15.7481 18.7919 16.5672 17.7814 17.5925 17.0071C17.823 16.8202 18.0757 16.6621 18.345 16.5361C18.7127 16.4123 19.0959 16.3397 19.4837 16.3202C19.5936 16.2968 19.6928 16.2383 19.7661 16.1538C19.8393 16.0692 19.8826 15.9632 19.8893 15.852C19.8961 15.7407 19.8659 15.6303 19.8034 15.5377C19.7408 15.4451 19.6494 15.3753 19.5431 15.339C19.0216 15.2425 18.5493 14.9717 18.205 14.5716C17.8608 14.1715 17.6656 13.6665 17.6519 13.1409C17.6912 12.5337 17.9623 11.9641 18.4101 11.5478C18.858 11.1315 19.4489 10.8999 20.0629 10.8999C20.6769 10.8999 21.2679 11.1315 21.7157 11.5478C22.1636 11.9641 22.4347 12.5337 22.474 13.1409C22.4621 13.667 22.2675 14.173 21.923 14.5734C21.5785 14.9739 21.1051 15.2442 20.5828 15.339C20.4616 15.3681 20.3541 15.4376 20.2785 15.5359C20.2028 15.6341 20.1634 15.7551 20.1669 15.8787C20.1783 16.0014 20.2334 16.1162 20.3222 16.2024C20.4111 16.2887 20.528 16.3409 20.6521 16.3497C21.0367 16.3689 21.4167 16.4415 21.7809 16.5656C22.0534 16.6911 22.3095 16.8493 22.5433 17.0366C23.5686 17.8108 24.3877 18.8213 24.9296 19.9804C25.0902 21.2839 25.0902 22.6019 24.9296 23.9054C24.909 24.1801 24.8121 24.4438 24.6495 24.6672C24.487 24.8906 24.2652 25.0651 24.0087 25.1713V25.2203Z" fill="white" />
</svg>