<?xml version="1.0" encoding="UTF-8" standalone="no"?>
<svg
   xmlns:dc="http://purl.org/dc/elements/1.1/"
   xmlns:cc="http://creativecommons.org/ns#"
   xmlns:rdf="http://www.w3.org/1999/02/22-rdf-syntax-ns#"
   xmlns:svg="http://www.w3.org/2000/svg"
   xmlns="http://www.w3.org/2000/svg"
   xmlns:sodipodi="http://sodipodi.sourceforge.net/DTD/sodipodi-0.dtd"
   xmlns:inkscape="http://www.inkscape.org/namespaces/inkscape"
   width="20"
   height="24"
   viewBox="0 0 20 24"
   fill="none"
   version="1.1"
   id="svg6"
   sodipodi:docname="icon-location.svg"
   inkscape:version="0.92.4 (5da689c313, 2019-01-14)">
  <metadata
     id="metadata12">
    <rdf:RDF>
      <cc:Work
         rdf:about="">
        <dc:format>image/svg+xml</dc:format>
        <dc:type
           rdf:resource="http://purl.org/dc/dcmitype/StillImage" />
        <dc:title></dc:title>
      </cc:Work>
    </rdf:RDF>
  </metadata>
  <defs
     id="defs10" />
  <sodipodi:namedview
     pagecolor="#ffffff"
     bordercolor="#666666"
     borderopacity="1"
     objecttolerance="10"
     gridtolerance="10"
     guidetolerance="10"
     inkscape:pageopacity="0"
     inkscape:pageshadow="2"
     inkscape:window-width="1366"
     inkscape:window-height="745"
     id="namedview8"
     showgrid="false"
     inkscape:zoom="9.8333333"
     inkscape:cx="10"
     inkscape:cy="12"
     inkscape:window-x="-8"
     inkscape:window-y="-8"
     inkscape:window-maximized="1"
     inkscape:current-layer="svg6" />
  <path
     d="M10 0C15.4688 0 20 4.45603 20 10.0065C20 16.4951 13.8281 19.7785 10 24C6.09375 19.7785 0 16.4951 0 10.0065C0 4.45603 4.45313 0 10 0ZM10 1.56352C5.3125 1.56352 1.5625 5.31596 1.5625 10.0065C1.5625 15.4788 6.5625 18.215 10 21.7329C13.3594 18.215 18.4375 15.4788 18.4375 10.0065C18.4375 5.31596 14.6094 1.56352 10 1.56352Z"
     fill="#CCCCCC"
     id="path2" />
  <path
     d="M10 4.84766C12.8125 4.84766 15.1562 7.11476 15.1562 10.0073C15.1562 12.8216 12.8125 15.1669 10 15.1669C7.10937 15.1669 4.84375 12.8216 4.84375 10.0073C4.84375 7.11476 7.10937 4.84766 10 4.84766ZM10 6.41117C7.96875 6.41117 6.40625 7.97469 6.40625 10.0073C6.40625 11.9617 7.96875 13.6034 10 13.6034C11.9531 13.6034 13.5937 11.9617 13.5937 10.0073C13.5937 7.97469 11.9531 6.41117 10 6.41117Z"
     fill="#CCCCCC"
     id="path4" />
</svg>
