<?xml version="1.0" encoding="UTF-8" standalone="no"?>
<svg
   xmlns:dc="http://purl.org/dc/elements/1.1/"
   xmlns:cc="http://creativecommons.org/ns#"
   xmlns:rdf="http://www.w3.org/1999/02/22-rdf-syntax-ns#"
   xmlns:svg="http://www.w3.org/2000/svg"
   xmlns="http://www.w3.org/2000/svg"
   xmlns:sodipodi="http://sodipodi.sourceforge.net/DTD/sodipodi-0.dtd"
   xmlns:inkscape="http://www.inkscape.org/namespaces/inkscape"
   width="164"
   height="166"
   viewBox="0 0 164 166"
   fill="none"
   version="1.1"
   id="svg144"
   sodipodi:docname="trip-advisor.svg"
   inkscape:version="0.92.4 (5da689c313, 2019-01-14)">
  <metadata
     id="metadata150">
    <rdf:RDF>
      <cc:Work
         rdf:about="">
        <dc:format>image/svg+xml</dc:format>
        <dc:type
           rdf:resource="http://purl.org/dc/dcmitype/StillImage" />
        <dc:title></dc:title>
      </cc:Work>
    </rdf:RDF>
  </metadata>
  <defs
     id="defs148" />
  <sodipodi:namedview
     pagecolor="#ffffff"
     bordercolor="#666666"
     borderopacity="1"
     objecttolerance="10"
     gridtolerance="10"
     guidetolerance="10"
     inkscape:pageopacity="0"
     inkscape:pageshadow="2"
     inkscape:window-width="1366"
     inkscape:window-height="745"
     id="namedview146"
     showgrid="false"
     inkscape:zoom="2.0105687"
     inkscape:cx="-37.257809"
     inkscape:cy="65.43936"
     inkscape:window-x="-8"
     inkscape:window-y="-8"
     inkscape:window-maximized="1"
     inkscape:current-layer="svg144" />
  <g
     id="g4805"
     transform="matrix(0.96730964,0,0,0.96730964,2.6806092,2.70578)">
    <path
       style="fill:#0cae86;stroke:#0cae86;stroke-width:0.92209888;stroke-opacity:1"
       inkscape:connector-curvature="0"
       id="path2"
       d="M 7.9220527,82.123307 C 7.9220527,41.334079 41.235207,8.0009149 82,8.0009149 c 40.76507,0 74.07774,33.3331641 74.07774,74.1223921 0,18.640043 -6.79403,35.745903 -18.19025,48.683873 h 1.97237 c 11.17768,-13.15743 17.75225,-30.04383 17.75225,-48.683873 0,-41.66642 -33.97105,-75.6574747 -75.61211,-75.6574747 -41.641432,0 -75.6121077,33.9910547 -75.6121077,75.6574747 0,18.420583 6.7941347,35.526443 17.7524317,48.683873 h 1.972462 C 14.716179,117.64975 7.9220527,100.76335 7.9220527,82.123307 Z" />
    <path
       style="fill:#0cae86;stroke:#0cae86;stroke-width:0.40400001;stroke-miterlimit:4;stroke-dasharray:none;stroke-opacity:1"
       inkscape:connector-curvature="0"
       id="path4"
       d="m 11.065088,81.886558 c 0,-39.145006 31.813141,-70.977275 70.934725,-70.977275 39.121757,0 70.935077,31.832269 70.935077,70.977275 0,18.281642 -7.09395,35.058762 -18.4864,47.748092 h 1.07441 c 11.39245,-12.68933 18.27114,-29.46645 18.27114,-47.748092 0,-39.575219 -32.24288,-71.83761 -71.794227,-71.83761 -39.551524,0 -71.794535,32.262391 -71.794535,71.83761 0,18.281642 6.878554,35.058762 18.271095,47.748092 h 1.074762 C 17.943624,116.94532 11.065088,100.1682 11.065088,81.886558 Z" />
    <path
       style="fill:#0cae86;stroke-width:0.92209888"
       inkscape:connector-curvature="0"
       id="path6"
       d="m 99.314251,137.60489 c 0,0.87692 0.657456,1.53437 1.534369,1.53437 0.87692,0 1.53438,-0.65745 1.53438,-1.53437 0,-0.87784 -0.65746,-1.53529 -1.53438,-1.53529 -0.876913,0 -1.534369,0.65745 -1.534369,1.53529 z" />
    <path
       style="fill:#0cae86;stroke-width:0.92209888"
       inkscape:connector-curvature="0"
       id="path8"
       d="m 65.342837,141.11348 c -1.534188,0 -3.068376,0.21946 -4.383381,0.87783 v 2.19276 l 0.219183,-0.21946 c 1.315005,-0.65746 2.410827,-1.09638 3.506649,-1.09638 1.972554,0 3.068377,1.09638 3.068377,3.07059 h -1.534189 c -4.383289,0 -6.574933,1.53437 -6.574933,4.3855 0,2.19275 1.753278,3.94751 4.164106,3.94751 1.753371,0 3.287467,-0.65838 4.164106,-1.97422 v 1.75476 h 2.410828 v -7.89501 c -0.219091,-3.28913 -1.972462,-5.04388 -5.040746,-5.04388 z m 2.191645,7.67555 c 0,2.19367 -1.315006,3.72804 -3.50665,3.72804 -1.315005,0 -2.191645,-0.87691 -2.191645,-1.97329 0,-1.53529 1.534096,-2.41221 4.164107,-2.41221 h 1.315005 v 0.65746 z" />
    <path
       style="fill:#0cae86;stroke-width:0.92209888"
       inkscape:connector-curvature="0"
       id="path10"
       d="m 81.123084,135.41398 v 7.89409 c -0.876639,-1.31491 -2.191645,-1.97329 -3.944923,-1.97329 -3.28756,0 -5.260021,2.63167 -5.260021,6.57918 0,3.9475 2.191644,6.79771 5.260021,6.79771 1.753278,0 3.287466,-0.87692 4.383289,-2.41221 v 2.19275 h 2.410827 v -19.07823 z m -3.287467,16.88548 c -1.972462,0 -3.287467,-1.75383 -3.287467,-4.60496 0,-2.85113 1.315005,-4.60497 3.068284,-4.60497 2.191645,0 3.50665,1.75384 3.50665,4.60497 0,2.85113 -1.315005,4.60496 -3.287467,4.60496 z" />
    <path
       style="fill:#0cae86;stroke-width:0.92209888"
       inkscape:connector-curvature="0"
       id="path12"
       d="m 95.368405,141.55147 -3.725833,7.23664 -3.287467,-7.23664 h -3.068284 l 6.355751,12.71944 6.574934,-12.71944 z" />
    <path
       style="fill:#0cae86;stroke-width:0.92209888"
       inkscape:connector-curvature="0"
       id="path14"
       d="m 101.94408,141.55147 h -2.41037 v 12.71944 h 2.62983 v -12.71944 z" />
    <path
       style="fill:#0cae86;stroke-width:0.92209888"
       inkscape:connector-curvature="0"
       id="path16"
       d="m 105.23136,144.84337 c 0,1.75383 1.31491,2.8502 3.50674,3.9475 1.53345,0.65746 2.19091,1.09638 2.19091,2.19275 0,1.09638 -0.876,1.75383 -2.41037,1.75383 -1.09545,0 -2.19183,-0.21853 -3.28728,-0.87691 h -0.21946 v 2.19275 c 1.09545,0.43892 2.19183,0.65838 3.28728,0.65838 3.28728,0 5.26058,-1.5353 5.26058,-3.94751 0,-1.97329 -1.31492,-2.85113 -3.50675,-3.9475 -1.75383,-0.87692 -2.41128,-1.31584 -2.41128,-1.97329 0,-0.87784 0.87691,-1.31584 1.97237,-1.31584 1.09637,0 2.19182,0.21946 3.06874,0.65746 h 0.21946 l 0.21854,-2.19275 c -1.09546,-0.21946 -2.19183,-0.43892 -3.06783,-0.43892 -3.06874,-0.21854 -4.82165,1.09637 -4.82165,3.29005 z" />
    <path
       style="fill:#0cae86;stroke-width:0.92209888"
       inkscape:connector-curvature="0"
       id="path18"
       d="m 121.88723,141.11348 c -3.94474,0 -6.35603,2.63167 -6.35603,6.79863 0,4.16697 2.41129,6.79864 6.35603,6.79864 3.94474,0 6.35603,-2.63167 6.35603,-6.79864 0,-4.16696 -2.41129,-6.79863 -6.35603,-6.79863 z m 0,11.40359 c -2.19183,0 -3.7262,-1.75383 -3.7262,-4.60496 0,-2.85113 1.53437,-4.60496 3.7262,-4.60496 2.19183,0 3.7262,1.75383 3.7262,4.60496 -0.21946,2.85113 -1.53437,4.60496 -3.7262,4.60496 z" />
    <path
       style="fill:#0cae86;stroke-width:0.92209888"
       inkscape:connector-curvature="0"
       id="path20"
       d="m 133.06491,143.52661 v -2.19275 h -2.41036 v 12.93797 h 2.62982 v -6.35972 c 0,-2.63075 1.09546,-4.16604 3.28729,-4.16604 0.21946,0 0.65745,0 0.87691,0.21946 h 0.21854 v -2.63167 h -1.09545 c -1.53438,0 -2.84929,0.65745 -3.50675,2.19275 z" />
    <path
       style="fill:#9dd0bc;stroke-width:0.92209888"
       inkscape:connector-curvature="0"
       id="path22"
       d="m 142.05077,140.2384 c -0.65746,0 -1.09638,0.21946 -1.53438,0.65838 -0.43799,0.438 -0.65745,1.09638 -0.65745,1.75384 0,0.65837 0.21946,1.09637 0.65745,1.53529 0.438,0.43892 1.09638,0.65838 1.75384,0.65838 0.65745,0 1.09545,-0.21946 1.53345,-0.65838 0.43892,-0.43892 0.65745,-1.09638 0.65745,-1.75475 0,-0.65746 -0.21853,-1.09638 -0.65745,-1.53438 -0.438,-0.43892 -1.09546,-0.65838 -1.75291,-0.65838 z m 0,4.16697 c -0.438,0 -1.09638,-0.21946 -1.31492,-0.65838 -0.43891,-0.438 -0.43891,-0.87692 -0.43891,-1.31583 0,-0.438 0.21945,-1.09638 0.65745,-1.31492 0.43892,-0.43892 0.87692,-0.43892 1.31584,-0.43892 0.43799,0 1.09545,0.21946 1.31491,0.65746 0.438,0.43892 0.438,0.87784 0.438,1.31584 0,0.43891 -0.21946,1.09637 -0.65746,1.31583 -0.21946,0.21946 -0.65746,0.43892 -1.31491,0.43892 z m -0.21946,-2.19275 v -0.65838 h 0.21946 c 0.43799,0 0.43799,0 0.43799,0.43892 0,0.21946 -0.21853,0.438 -0.43799,0.438 h -0.21946 z m 0.43892,-1.09638 h -1.09638 v 2.63075 h 0.65746 v -1.09637 h 0.21946 l 0.43799,1.09637 h 0.87692 l -0.65746,-1.09637 c 0.438,0 0.438,-0.438 0.438,-0.65746 0.21946,-0.43892 -0.21854,-0.87692 -0.87599,-0.87692 z" />
    <path
       style="fill:#091016;stroke-width:0.92209888"
       inkscape:connector-curvature="0"
       id="path24"
       d="m 106.98427,120.49903 c -3.94474,1.5353 -8.108938,1.31584 -11.835048,-0.43799 -3.725833,-1.75476 -6.574934,-4.82442 -8.109122,-8.77193 -1.534096,-3.9475 -1.315005,-8.11447 0.438366,-11.842516 1.753279,-3.727676 4.821655,-6.57853 8.766578,-8.11364 8.109396,-3.070128 17.095256,1.096468 19.944536,9.210016 3.06783,7.89501 -1.09637,16.8864 -9.20531,19.95606 z M 81.999355,104.27102 C 81.341806,94.183807 73.013501,86.289073 62.931917,86.069798 c 5.698295,-2.41221 12.054138,-3.728045 19.067438,-3.728045 7.013299,0 13.36905,1.315835 18.848345,3.728045 -1.972368,0 -4.16429,0.438643 -6.136751,1.096468 -4.821655,1.754385 -8.766671,5.482431 -10.958316,10.08767 -0.876639,2.631578 -1.534188,4.824324 -1.753278,7.017084 z m -19.286621,17.10585 c -8.547487,0 -15.560695,-7.01809 -15.560695,-15.57056 0,-8.552374 7.013208,-15.569824 15.560695,-15.569824 8.547488,0 15.560788,7.01745 15.560788,15.569824 0,8.55247 -7.0133,15.57056 -15.560788,15.57056 z M 119.91486,99.008598 c -0.65745,-1.754662 -1.53437,-3.509048 -2.62982,-4.824791 0.87691,-3.947321 3.94473,-7.894734 3.94473,-7.894734 h -12.93059 c -7.23202,-4.824513 -16.218242,-7.236724 -26.080735,-7.236724 -10.300766,0 -19.505711,2.631486 -26.738193,7.236724 H 43.207024 c 0,0 2.849101,3.947413 3.725832,7.675459 -2.410827,3.289404 -3.725832,7.236818 -3.725832,11.622318 0,10.74614 8.766578,19.51807 19.50571,19.51807 6.136661,0 11.615772,-2.85113 15.122422,-7.23663 l 4.164199,6.14025 4.164106,-6.35971 c 1.972462,2.41221 4.383289,4.3855 7.232482,5.70133 4.821655,2.19275 10.081587,2.41221 14.903237,0.65838 10.08131,-3.50951 15.34188,-14.91218 11.61568,-24.999942 z" />
    <path
       style="fill:#091016;stroke-width:0.92209888"
       inkscape:connector-curvature="0"
       id="path26"
       d="m 25.456159,137.60766 -2.410827,0.87691 v 3.07059 h -2.410828 v 1.97329 h 2.630011 v 6.57918 c 0,3.06967 1.095822,4.3855 3.72574,4.3855 0.657549,0 1.315005,0 1.972554,-0.21946 v -2.19275 h -0.219183 c -0.438366,0.21946 -0.876639,0.21946 -1.315005,0.21946 -1.315005,0 -1.753279,-0.65838 -1.753279,-2.63167 v -6.35972 h 3.068284 v -1.97329 h -3.068284 z" />
    <path
       style="fill:#091016;stroke-width:0.92209888"
       inkscape:connector-curvature="0"
       id="path28"
       d="m 33.56482,143.52661 v -2.19275 h -2.410827 v 12.93797 h 2.63001 v -6.35972 c 0,-2.63075 1.095822,-4.16604 3.287467,-4.16604 0.219183,0 0.657457,0 0.876639,0.21946 h 0.219183 v -2.63167 H 37.07147 c -1.315005,0 -2.63001,0.65745 -3.50665,2.19275 z" />
    <path
       style="fill:#091016;stroke-width:0.92209888"
       inkscape:connector-curvature="0"
       id="path30"
       d="m 52.192969,141.11348 c -1.753371,0 -3.287559,0.87783 -4.383381,2.41221 v -2.19275 h -2.410827 v 18.20223 h 2.63001 v -7.0181 c 0.876639,1.31584 2.191645,1.97422 3.945016,1.97422 3.287466,0 5.479111,-2.63167 5.479111,-6.79864 0.219183,-3.9475 -1.972462,-6.57917 -5.259929,-6.57917 z m -0.657548,11.40359 c -1.972462,0 -3.287467,-1.75383 -3.287467,-4.60496 0,-2.63167 1.315005,-4.60496 3.50665,-4.60496 1.972461,0 3.287467,1.75383 3.287467,4.3855 -0.219183,2.85113 -1.534189,4.82442 -3.50665,4.82442 z" />
    <path
       style="fill:#091016;stroke-width:0.92209888"
       inkscape:connector-curvature="0"
       id="path32"
       d="m 42.988763,141.55147 h -2.630011 v 12.71944 h 2.630011 z" />
    <path
       style="fill:#091016;stroke-width:0.92209888"
       inkscape:connector-curvature="0"
       id="path34"
       d="m 40.139016,137.60489 c 0,0.87692 0.657549,1.53437 1.534188,1.53437 0.87664,0 1.534189,-0.65745 1.534189,-1.53437 0,-0.87784 -0.657549,-1.53529 -1.534189,-1.53529 -0.657456,0 -1.534188,0.65745 -1.534188,1.53529 z" />
    <path
       style="fill:#f9c416;stroke-width:0.92209888"
       inkscape:connector-curvature="0"
       id="path36"
       d="m 94.711225,87.383328 c 1.972462,-0.657917 4.164107,-1.096468 6.136475,-1.096468 -5.698201,-2.412302 -11.834861,-3.728045 -18.848069,-3.728045 -7.013299,0 -13.369143,1.315743 -19.067437,3.728045 10.081584,0.219276 18.409888,8.114009 19.067437,18.20177 0.219091,-2.19275 0.657457,-4.604961 1.753279,-6.798357 2.191645,-4.824514 6.13666,-8.333284 10.958315,-10.306945 z" />
    <path
       style="fill:#ffffff;stroke-width:0.92209888"
       inkscape:connector-curvature="0"
       id="path38"
       d="m 101.50608,115.23569 c -5.259929,0 -9.643218,-4.3855 -9.643218,-9.64884 0,-5.26334 4.383289,-9.649211 9.643218,-9.649211 5.25965,0 9.64331,4.385871 9.64331,9.649211 0,5.26334 -4.38366,9.64884 -9.64331,9.64884 z M 96.246151,91.113126 c -3.944923,1.53511 -7.0133,4.385963 -8.766578,8.114009 -1.753371,3.728045 -1.972554,8.113545 -0.438366,11.841595 1.534188,3.9475 4.383289,7.01809 8.109122,8.77193 3.725925,1.75475 8.109581,1.97421 11.834861,0.43891 8.10894,-3.06966 12.27314,-12.06105 9.20531,-19.95606 -3.06874,-7.894641 -12.05459,-12.061237 -19.944349,-9.210384 z" />
    <path
       style="fill:#ffffff;stroke-width:0.92209888"
       inkscape:connector-curvature="0"
       id="path40"
       d="m 101.50516,108.87782 c -1.752912,0 -3.287008,-1.53529 -3.287008,-3.28912 0,-1.75476 1.534096,-3.29005 3.287008,-3.29005 1.75383,0 3.2882,1.53529 3.2882,3.29005 0,1.75383 -1.53437,3.28912 -3.2882,3.28912 z m 0,-9.648841 c -3.506191,0 -6.355385,2.850211 -6.355385,6.359721 0,3.50858 2.849194,6.35879 6.355385,6.35879 3.50674,0 6.35603,-2.85021 6.35603,-6.35879 0,-3.50951 -2.84929,-6.359721 -6.35603,-6.359721 z" />
    <path
       style="fill:#ffffff;stroke-width:0.92209888"
       inkscape:connector-curvature="0"
       id="path42"
       d="m 62.275014,108.87782 c -1.753371,0 -3.287467,-1.53529 -3.287467,-3.28912 0,-1.75476 1.534096,-3.29005 3.287467,-3.29005 1.753279,0 3.287467,1.53529 3.287467,3.29005 0,1.75383 -1.315005,3.28912 -3.287467,3.28912 z m 0,-9.648841 c -3.50665,0 -6.355843,2.850211 -6.355843,6.359721 0,3.50858 2.849193,6.35879 6.355843,6.35879 3.50665,0 6.355751,-2.85021 6.355751,-6.35879 0,-3.50951 -2.849101,-6.359721 -6.355751,-6.359721 z" />
    <path
       style="fill:#ffffff;stroke-width:0.92209888"
       inkscape:connector-curvature="0"
       id="path44"
       d="m 62.274461,115.23662 c -5.259929,0 -9.64331,-4.38643 -9.64331,-9.64977 0,-5.26242 4.383381,-9.64875 9.64331,-9.64875 5.260021,0 9.64331,4.38633 9.64331,9.64875 0,5.26334 -4.164199,9.64977 -9.64331,9.64977 z m 0.438366,-25.000226 c -8.547488,0 -15.560788,7.017449 -15.560788,15.569916 0,8.55247 7.0133,15.57056 15.560788,15.57056 8.547395,0 15.560695,-7.01809 15.560695,-15.57056 0,-8.771742 -7.0133,-15.569916 -15.560695,-15.569916 z" />
    <path
       style="fill:#ef6a45;stroke-width:0.92209888"
       inkscape:connector-curvature="0"
       id="path46"
       d="m 62.274645,102.29588 c -1.753371,0 -3.287467,1.53529 -3.287467,3.28913 0,1.75475 1.534096,3.28912 3.287467,3.28912 1.753279,0 3.287467,-1.53437 3.287467,-3.28912 0,-1.75384 -1.315005,-3.28913 -3.287467,-3.28913 z" />
    <path
       style="fill:#0cae86;stroke-width:0.92209888"
       inkscape:connector-curvature="0"
       id="path48"
       d="m 101.50516,102.29588 c -1.752912,0 -3.287377,1.53529 -3.287377,3.28913 0,1.75475 1.534465,3.28912 3.287377,3.28912 1.75383,0 3.28728,-1.53437 3.28728,-3.28912 0,-1.75384 -1.53345,-3.28913 -3.28728,-3.28913 z" />
    <path
       style="fill:#091016;stroke-width:0.92209888"
       inkscape:connector-curvature="0"
       id="path50"
       d="m 62.27483,111.95026 c -3.50665,0 -6.355843,-2.85021 -6.355843,-6.35972 0,-3.50859 2.849193,-6.358795 6.355843,-6.358795 3.50665,0 6.355751,2.850205 6.355751,6.358795 0,3.50951 -2.849101,6.35972 -6.355751,6.35972 z m 0,-16.008379 c -5.260021,0 -9.64331,4.386239 -9.64331,9.648659 0,5.26334 4.383289,9.64976 9.64331,9.64976 5.259928,0 9.643218,-4.38642 9.643218,-9.64976 0,-5.26242 -4.164107,-9.648659 -9.643218,-9.648659 z" />
    <path
       style="fill:#091016;stroke-width:0.92209888"
       inkscape:connector-curvature="0"
       id="path52"
       d="m 101.50516,111.95026 c -3.506376,0 -6.355569,-2.85021 -6.355569,-6.35972 0,-3.50859 2.849193,-6.358795 6.355569,-6.358795 3.50674,0 6.35603,2.850205 6.35603,6.358795 0,3.50951 -2.84929,6.35972 -6.35603,6.35972 z m 0,-16.008379 c -5.259747,0 -9.643036,4.386239 -9.643036,9.648659 0,5.26334 4.383289,9.64976 9.643036,9.64976 5.26057,0 9.64331,-4.38642 9.64331,-9.64976 0,-5.26242 -4.38274,-9.648659 -9.64331,-9.648659 z" />
    <path
       style="fill:#091016;stroke-width:0.92209888"
       inkscape:connector-curvature="0"
       id="path54"
       d="m 128.46272,86.289166 c 0.43892,0.43855 0.65745,0.877192 0.65745,1.53511 0,0.657825 -0.21853,1.096468 -0.65745,1.535018 -0.438,0.438642 -1.09546,0.657917 -1.53437,0.657917 -0.65746,0 -1.09546,-0.219275 -1.53345,-0.657917 -0.43892,-0.43855 -0.65746,-1.096468 -0.65746,-1.535018 0,-0.657918 0.21854,-1.09656 0.65746,-1.53511 0.43799,-0.438643 0.87599,-0.657918 1.53345,-0.657918 0.43891,0 1.09637,0.219275 1.53437,0.657918 z m -3.06782,0.219275 c -0.43892,0.438642 -0.65746,0.877192 -0.65746,1.315835 0,0.43855 0.21854,0.877193 0.438,1.315743 0.43799,0.438642 0.87691,0.657917 1.31491,0.657917 0.438,0 0.87691,-0.219367 1.31491,-0.438642 0.43892,-0.43855 0.65746,-0.877193 0.65746,-1.315743 0,-0.438642 -0.21854,-0.877193 -0.438,-1.315835 -0.438,-0.43855 -0.87691,-0.657825 -1.31491,-0.657825 -0.43892,0 -0.87692,0.219275 -1.31491,0.43855 z m 1.31491,0 c 0.65745,0 1.09545,0.219275 1.09545,0.657917 0,0.219275 -0.21854,0.657918 -0.438,0.657918 l 0.65746,1.096468 h -0.65746 l -0.43891,-1.096468 h -0.21854 v 1.096468 h -0.65746 v -2.412303 z m -0.21946,1.096468 h 0.21946 c 0.21854,0 0.438,0 0.438,-0.219276 0,-0.219275 -0.21946,-0.43855 -0.438,-0.43855 h -0.21946 z" />
    <path
       style="fill:#091016;stroke-width:0.92209888"
       inkscape:connector-curvature="0"
       id="path56"
       d="m 106.98427,120.49903 c -3.94474,1.5353 -8.108938,1.31584 -11.835048,-0.43799 -3.725833,-1.75476 -6.574934,-4.82442 -8.109122,-8.77193 -1.534096,-3.9475 -1.315005,-8.11447 0.438366,-11.842516 1.753279,-3.727676 4.821655,-6.57853 8.766578,-8.11364 8.109396,-3.070128 17.095256,1.096468 19.944536,9.210016 3.06783,7.89501 -1.09637,16.8864 -9.20531,19.95606 z M 81.999355,104.27102 C 81.341806,94.183807 73.013501,86.289073 62.931917,86.069798 c 5.698295,-2.41221 12.054138,-3.728045 19.067438,-3.728045 7.013299,0 13.36905,1.315835 18.848345,3.728045 -1.972368,0 -4.16429,0.438643 -6.136751,1.096468 -4.821655,1.754385 -8.766671,5.482431 -10.958316,10.08767 -0.876639,2.631578 -1.534188,4.824324 -1.753278,7.017084 z m -19.286621,17.10585 c -8.547487,0 -15.560695,-7.01809 -15.560695,-15.57056 0,-8.552374 7.013208,-15.569824 15.560695,-15.569824 8.547488,0 15.560788,7.01745 15.560788,15.569824 0,8.55247 -7.0133,15.57056 -15.560788,15.57056 z M 119.91486,99.008598 c -0.65745,-1.754662 -1.53437,-3.509048 -2.62982,-4.824791 0.87691,-3.947321 3.94473,-7.894734 3.94473,-7.894734 h -12.93059 c -7.23202,-4.824513 -16.218242,-7.236724 -26.080735,-7.236724 -10.300766,0 -19.505711,2.631486 -26.738193,7.236724 H 43.207024 c 0,0 2.849101,3.947413 3.725832,7.675459 -2.410827,3.289404 -3.725832,7.236818 -3.725832,11.622318 0,10.74614 8.766578,19.51807 19.50571,19.51807 6.136661,0 11.615772,-2.85113 15.122422,-7.23663 l 4.164199,6.14025 4.164106,-6.35971 c 1.972462,2.41221 4.383289,4.3855 7.232482,5.70133 4.821655,2.19275 10.081587,2.41221 14.903237,0.65838 10.08131,-3.50951 15.34188,-14.91218 11.61568,-24.999942 z" />
    <path
       style="fill:#091016;stroke-width:0.92209888"
       inkscape:connector-curvature="0"
       id="path58"
       d="m 25.456159,137.60766 -2.410827,0.87691 v 3.07059 h -2.410828 v 1.97329 h 2.630011 v 6.57918 c 0,3.06967 1.095822,4.3855 3.72574,4.3855 0.657549,0 1.315005,0 1.972554,-0.21946 v -2.19275 h -0.219183 c -0.438366,0.21946 -0.876639,0.21946 -1.315005,0.21946 -1.315005,0 -1.753279,-0.65838 -1.753279,-2.63167 v -6.35972 h 3.068284 v -1.97329 h -3.068284 z" />
    <path
       style="fill:#091016;stroke-width:0.92209888"
       inkscape:connector-curvature="0"
       id="path60"
       d="m 33.56482,143.52661 v -2.19275 h -2.410827 v 12.93797 h 2.63001 v -6.35972 c 0,-2.63075 1.095822,-4.16604 3.287467,-4.16604 0.219183,0 0.657457,0 0.876639,0.21946 h 0.219183 v -2.63167 H 37.07147 c -1.315005,0 -2.63001,0.65745 -3.50665,2.19275 z" />
    <path
       style="fill:#091016;stroke-width:0.92209888"
       inkscape:connector-curvature="0"
       id="path62"
       d="m 52.192969,141.11348 c -1.753371,0 -3.287559,0.87783 -4.383381,2.41221 v -2.19275 h -2.410827 v 18.20223 h 2.63001 v -7.0181 c 0.876639,1.31584 2.191645,1.97422 3.945016,1.97422 3.287466,0 5.479111,-2.63167 5.479111,-6.79864 0.219183,-3.9475 -1.972462,-6.57917 -5.259929,-6.57917 z m -0.657548,11.40359 c -1.972462,0 -3.287467,-1.75383 -3.287467,-4.60496 0,-2.63167 1.315005,-4.60496 3.50665,-4.60496 1.972461,0 3.287467,1.75383 3.287467,4.3855 -0.219183,2.85113 -1.534189,4.82442 -3.50665,4.82442 z" />
    <path
       style="fill:#091016;stroke-width:0.92209888"
       inkscape:connector-curvature="0"
       id="path64"
       d="m 42.988763,141.55147 h -2.630011 v 12.71944 h 2.630011 z" />
    <path
       style="fill:#091016;stroke-width:0.92209888"
       inkscape:connector-curvature="0"
       id="path66"
       d="m 40.139016,137.60489 c 0,0.87692 0.657549,1.53437 1.534188,1.53437 0.87664,0 1.534189,-0.65745 1.534189,-1.53437 0,-0.87784 -0.657549,-1.53529 -1.534189,-1.53529 -0.657456,0 -1.534188,0.65745 -1.534188,1.53529 z" />
    <path
       style="fill:#f9c416;stroke-width:0.92209888"
       inkscape:connector-curvature="0"
       id="path68"
       d="m 94.711225,87.383328 c 1.972462,-0.657917 4.164107,-1.096468 6.136475,-1.096468 -5.698201,-2.412302 -11.834861,-3.728045 -18.848069,-3.728045 -7.013299,0 -13.369143,1.315743 -19.067437,3.728045 10.081584,0.219276 18.409888,8.114009 19.067437,18.20177 0.219091,-2.19275 0.657457,-4.604961 1.753279,-6.798357 2.191645,-4.824514 6.13666,-8.333284 10.958315,-10.306945 z" />
    <path
       style="fill:#ffffff;stroke-width:0.92209888"
       inkscape:connector-curvature="0"
       id="path70"
       d="m 101.50608,115.23569 c -5.259929,0 -9.643218,-4.3855 -9.643218,-9.64884 0,-5.26334 4.383289,-9.649211 9.643218,-9.649211 5.25965,0 9.64331,4.385871 9.64331,9.649211 0,5.26334 -4.38366,9.64884 -9.64331,9.64884 z M 96.246151,91.113126 c -3.944923,1.53511 -7.0133,4.385963 -8.766578,8.114009 -1.753371,3.728045 -1.972554,8.113545 -0.438366,11.841595 1.534188,3.9475 4.383289,7.01809 8.109122,8.77193 3.725925,1.75475 8.109581,1.97421 11.834861,0.43891 8.10894,-3.06966 12.27314,-12.06105 9.20531,-19.95606 -3.06874,-7.894641 -12.05459,-12.061237 -19.944349,-9.210384 z" />
    <path
       style="fill:#ffffff;stroke-width:0.92209888"
       inkscape:connector-curvature="0"
       id="path72"
       d="m 101.50516,108.87782 c -1.752912,0 -3.287008,-1.53529 -3.287008,-3.28912 0,-1.75476 1.534096,-3.29005 3.287008,-3.29005 1.75383,0 3.2882,1.53529 3.2882,3.29005 0,1.75383 -1.53437,3.28912 -3.2882,3.28912 z m 0,-9.648841 c -3.506191,0 -6.355385,2.850211 -6.355385,6.359721 0,3.50858 2.849194,6.35879 6.355385,6.35879 3.50674,0 6.35603,-2.85021 6.35603,-6.35879 0,-3.50951 -2.84929,-6.359721 -6.35603,-6.359721 z" />
    <path
       style="fill:#ffffff;stroke-width:0.92209888"
       inkscape:connector-curvature="0"
       id="path74"
       d="m 62.275014,108.87782 c -1.753371,0 -3.287467,-1.53529 -3.287467,-3.28912 0,-1.75476 1.534096,-3.29005 3.287467,-3.29005 1.753279,0 3.287467,1.53529 3.287467,3.29005 0,1.75383 -1.315005,3.28912 -3.287467,3.28912 z m 0,-9.648841 c -3.50665,0 -6.355843,2.850211 -6.355843,6.359721 0,3.50858 2.849193,6.35879 6.355843,6.35879 3.50665,0 6.355751,-2.85021 6.355751,-6.35879 0,-3.50951 -2.849101,-6.359721 -6.355751,-6.359721 z" />
    <path
       style="fill:#ffffff;stroke-width:0.92209888"
       inkscape:connector-curvature="0"
       id="path76"
       d="m 62.274461,115.23662 c -5.259929,0 -9.64331,-4.38643 -9.64331,-9.64977 0,-5.26242 4.383381,-9.64875 9.64331,-9.64875 5.260021,0 9.64331,4.38633 9.64331,9.64875 0,5.26334 -4.164199,9.64977 -9.64331,9.64977 z m 0.438366,-25.000226 c -8.547488,0 -15.560788,7.017449 -15.560788,15.569916 0,8.55247 7.0133,15.57056 15.560788,15.57056 8.547395,0 15.560695,-7.01809 15.560695,-15.57056 0,-8.771742 -7.0133,-15.569916 -15.560695,-15.569916 z" />
    <path
       style="fill:#ef6a45;stroke-width:0.92209888"
       inkscape:connector-curvature="0"
       id="path78"
       d="m 62.274645,102.29588 c -1.753371,0 -3.287467,1.53529 -3.287467,3.28913 0,1.75475 1.534096,3.28912 3.287467,3.28912 1.753279,0 3.287467,-1.53437 3.287467,-3.28912 0,-1.75384 -1.315005,-3.28913 -3.287467,-3.28913 z" />
    <path
       style="fill:#0cae86;stroke-width:0.92209888"
       inkscape:connector-curvature="0"
       id="path80"
       d="m 101.50516,102.29588 c -1.752912,0 -3.287377,1.53529 -3.287377,3.28913 0,1.75475 1.534465,3.28912 3.287377,3.28912 1.75383,0 3.28728,-1.53437 3.28728,-3.28912 0,-1.75384 -1.53345,-3.28913 -3.28728,-3.28913 z" />
    <path
       style="fill:#091016;stroke-width:0.92209888"
       inkscape:connector-curvature="0"
       id="path82"
       d="m 62.27483,111.95026 c -3.50665,0 -6.355843,-2.85021 -6.355843,-6.35972 0,-3.50859 2.849193,-6.358795 6.355843,-6.358795 3.50665,0 6.355751,2.850205 6.355751,6.358795 0,3.50951 -2.849101,6.35972 -6.355751,6.35972 z m 0,-16.008379 c -5.260021,0 -9.64331,4.386239 -9.64331,9.648659 0,5.26334 4.383289,9.64976 9.64331,9.64976 5.259928,0 9.643218,-4.38642 9.643218,-9.64976 0,-5.26242 -4.164107,-9.648659 -9.643218,-9.648659 z" />
    <path
       style="fill:#091016;stroke-width:0.92209888"
       inkscape:connector-curvature="0"
       id="path84"
       d="m 101.50516,111.95026 c -3.506376,0 -6.355569,-2.85021 -6.355569,-6.35972 0,-3.50859 2.849193,-6.358795 6.355569,-6.358795 3.50674,0 6.35603,2.850205 6.35603,6.358795 0,3.50951 -2.84929,6.35972 -6.35603,6.35972 z m 0,-16.008379 c -5.259747,0 -9.643036,4.386239 -9.643036,9.648659 0,5.26334 4.383289,9.64976 9.643036,9.64976 5.26057,0 9.64331,-4.38642 9.64331,-9.64976 0,-5.26242 -4.38274,-9.648659 -9.64331,-9.648659 z" />
    <path
       style="fill:#091016;stroke-width:0.92209888"
       inkscape:connector-curvature="0"
       id="path86"
       d="m 128.46272,86.289166 c 0.43892,0.43855 0.65745,0.877192 0.65745,1.53511 0,0.657825 -0.21853,1.096468 -0.65745,1.535018 -0.438,0.438642 -1.09546,0.657917 -1.53437,0.657917 -0.65746,0 -1.09546,-0.219275 -1.53345,-0.657917 -0.43892,-0.43855 -0.65746,-1.096468 -0.65746,-1.535018 0,-0.657918 0.21854,-1.09656 0.65746,-1.53511 0.43799,-0.438643 0.87599,-0.657918 1.53345,-0.657918 0.43891,0 1.09637,0.219275 1.53437,0.657918 z m -3.06782,0.219275 c -0.43892,0.438642 -0.65746,0.877192 -0.65746,1.315835 0,0.43855 0.21854,0.877193 0.438,1.315743 0.43799,0.438642 0.87691,0.657917 1.31491,0.657917 0.438,0 0.87691,-0.219367 1.31491,-0.438642 0.43892,-0.43855 0.65746,-0.877193 0.65746,-1.315743 0,-0.438642 -0.21854,-0.877193 -0.438,-1.315835 -0.438,-0.43855 -0.87691,-0.657825 -1.31491,-0.657825 -0.43892,0 -0.87692,0.219275 -1.31491,0.43855 z m 1.31491,0 c 0.65745,0 1.09545,0.219275 1.09545,0.657917 0,0.219275 -0.21854,0.657918 -0.438,0.657918 l 0.65746,1.096468 h -0.65746 l -0.43891,-1.096468 h -0.21854 v 1.096468 h -0.65746 v -2.412303 z m -0.21946,1.096468 h 0.21946 c 0.21854,0 0.438,0 0.438,-0.219276 0,-0.219275 -0.21946,-0.43855 -0.438,-0.43855 h -0.21946 z" />
    <path
       style="fill:#091016;stroke-width:0.92209888"
       inkscape:connector-curvature="0"
       id="path88"
       d="m 41.015656,51.422486 c -0.87664,0 -1.753279,-0.219275 -2.410828,-0.438642 -0.657456,-0.43855 -1.315005,-0.877193 -1.753279,-1.535018 -0.438365,-0.657918 -0.657548,-1.53511 -0.657548,-2.412303 0,-0.877193 0.219183,-1.53511 0.657548,-2.412303 0.438274,-0.657825 0.87664,-1.315743 1.753279,-1.535018 0.657549,-0.438642 1.534188,-0.657917 2.410828,-0.657917 0.438366,0 0.876639,0 1.534188,0.219275 0.438273,0.219367 0.876639,0.219367 1.315005,0.438642 l -0.219183,1.535018 c -0.876639,-0.43855 -1.753371,-0.657825 -2.410827,-0.657825 -0.657549,0 -1.095823,0.219275 -1.534188,0.43855 -0.438274,0.219275 -0.87664,0.657918 -1.095823,1.096468 -0.219183,0.438642 -0.438366,0.877193 -0.438366,1.53511 0,0.877193 0.219183,1.53511 0.876732,2.192936 0.438274,0.438642 1.315005,0.877192 2.191645,0.877192 0.438273,0 0.876639,0 1.315005,-0.219275 0.438273,-0.219275 0.876639,-0.219275 1.315005,-0.43855 l 0.219091,1.535018 c -0.438274,0.219367 -0.87664,0.438642 -1.314913,0.438642 -0.438366,0 -1.315005,0 -1.753371,0 z" />
    <path
       style="fill:#091016;stroke-width:0.92209888"
       inkscape:connector-curvature="0"
       id="path90"
       d="m 45.398761,42.649177 h 5.698386 v 1.315835 h -4.164198 v 2.192935 h 3.725832 v 1.53511 h -3.725832 v 2.192936 h 4.383289 v 1.53511 h -5.917477 z" />
    <path
       style="fill:#091016;stroke-width:0.92209888"
       inkscape:connector-curvature="0"
       id="path92"
       d="m 54.605457,46.815865 h 0.876639 c 1.315005,0 1.753371,-0.438643 1.753371,-1.315835 0,-0.438551 -0.219183,-0.877193 -0.438366,-1.096468 -0.219183,-0.219275 -0.657456,-0.43855 -1.315005,-0.43855 h -0.876639 z m -1.753371,-4.166688 h 2.849193 c 1.095822,0 1.753371,0.219367 2.410828,0.657917 0.657456,0.438643 0.876639,1.096468 0.876639,1.973661 0,0.438642 -0.219183,0.877192 -0.438274,1.315835 -0.219183,0.43855 -0.657548,0.657825 -1.095914,1.096467 l 2.410827,3.508771 h -1.972461 l -1.972462,-3.07022 c -0.219183,0 -0.219183,0 -0.438366,0 h -0.219183 -0.657456 v 3.07022 h -1.753371 z" />
    <path
       style="fill:#091016;stroke-width:0.92209888"
       inkscape:connector-curvature="0"
       id="path94"
       d="m 62.493644,43.965012 h -2.849101 v -1.315835 h 7.451573 v 1.315835 h -2.849101 v 7.456091 h -1.753371 z" />
    <path
       style="fill:#091016;stroke-width:0.92209888"
       inkscape:connector-curvature="0"
       id="path96"
       d="m 70.164031,42.649177 h -1.753279 v 8.771926 h 1.753279 z" />
    <path
       style="fill:#091016;stroke-width:0.92209888"
       inkscape:connector-curvature="0"
       id="path98"
       d="m 71.91814,42.649177 h 5.698294 v 1.315835 h -3.944923 v 2.41221 h 3.287467 v 1.535111 h -3.287467 v 3.50877 H 71.91814 Z" />
    <path
       style="fill:#091016;stroke-width:0.92209888"
       inkscape:connector-curvature="0"
       id="path100"
       d="m 80.684442,42.649177 h -1.753279 v 8.771926 h 1.753279 z" />
    <path
       style="fill:#091016;stroke-width:0.92209888"
       inkscape:connector-curvature="0"
       id="path102"
       d="m 86.821655,51.422486 c -0.876639,0 -1.753371,-0.219275 -2.410827,-0.438642 -0.657549,-0.43855 -1.315006,-0.877193 -1.753372,-1.535018 C 82.219183,48.790908 82,47.913716 82,47.036523 c 0,-0.877193 0.219183,-1.53511 0.657456,-2.412303 0.438366,-0.657825 0.876732,-1.315743 1.753372,-1.535018 0.657456,-0.438642 1.534188,-0.657917 2.410827,-0.657917 0.438274,0 0.876639,0 1.534188,0.219275 0.438274,0.219367 0.87664,0.219367 1.314913,0.438642 l -0.219091,1.535018 c -0.876731,-0.43855 -1.753371,-0.657825 -2.410827,-0.657825 -0.657549,0 -1.095822,0.219275 -1.534188,0.43855 -0.438366,0.219275 -0.87664,0.657918 -1.095822,1.096468 -0.219183,0.438642 -0.438366,0.877193 -0.438366,1.53511 0,0.877193 0.219183,1.53511 0.876731,2.192936 0.438274,0.438642 1.314913,0.877192 2.191645,0.877192 0.438274,0 0.876639,0 1.315005,-0.219275 0.438274,-0.219275 0.87664,-0.219275 1.314913,-0.43855 l 0.219183,1.535018 c -0.438274,0.219367 -0.876639,0.438642 -1.315005,0.438642 -0.438274,0 -1.315005,0 -1.753279,0 z" />
    <path
       style="fill:#091016;stroke-width:0.92209888"
       inkscape:connector-curvature="0"
       id="path104"
       d="m 96.026046,47.693057 -1.315005,-3.50877 -1.315005,3.50877 z m -2.191645,-5.04388 h 1.972462 l 3.506465,8.771926 H 97.340959 L 96.46432,49.0088 h -3.50665 l -0.87664,2.412303 h -1.753371 z" />
    <path
       style="fill:#091016;stroke-width:0.92209888"
       inkscape:connector-curvature="0"
       id="path106"
       d="m 101.50608,43.965012 h -2.849286 v -1.315835 h 7.452406 v 1.315835 h -2.84929 v 7.456091 h -1.75383 z" />
    <path
       style="fill:#091016;stroke-width:0.92209888"
       inkscape:connector-curvature="0"
       id="path108"
       d="m 107.20373,42.649177 h 5.91711 v 1.315835 h -4.1642 v 2.192935 h 3.7262 v 1.53511 h -3.7262 v 2.192936 h 4.38366 v 1.53511 h -6.13657 z" />
    <path
       style="fill:#091016;stroke-width:0.92209888"
       inkscape:connector-curvature="0"
       id="path110"
       d="m 119.47779,50.328324 c 0.43799,0 0.65745,0 0.87599,-0.219367 0.21946,-0.219276 0.43892,-0.438551 0.65746,-0.877193 0.21946,-0.43855 0.21946,-0.657825 0.21946,-1.096468 0,-0.43855 -0.21946,-0.877193 -0.438,-1.096468 -0.21946,-0.219275 -0.65746,-0.43855 -1.09638,-0.43855 -0.43799,0 -0.65745,0 -0.87599,0.219275 -0.21946,0.219275 -0.43892,0.43855 -0.65838,0.877193 -0.21854,0.43855 -0.21854,0.657825 -0.21854,1.096468 0,0.43855 0.21854,0.877192 0.438,1.096467 0.21946,0.219276 0.65746,0.438643 1.09638,0.438643 z m -0.21946,1.096468 c -0.438,0 -0.87692,0 -1.31492,-0.219276 -0.43891,-0.219367 -0.65745,-0.438642 -0.87691,-0.877192 -0.21946,-0.438643 -0.438,-0.877193 -0.438,-1.315835 0,-0.657918 0.21854,-1.096468 0.438,-1.754386 0.21946,-0.43855 0.65745,-0.877192 1.09545,-1.315742 0.43892,-0.438643 1.09638,-0.438643 1.75383,-0.438643 0.438,0 0.87692,0 1.31492,0.438643 0.43799,0.219275 0.65745,0.43855 0.87691,0.877192 0.21854,0.43855 0.438,0.877193 0.438,1.315743 0,0.657918 -0.21946,1.096468 -0.438,1.754385 -0.21946,0.438643 -0.65745,0.877193 -1.31491,1.315835 -0.21946,0.219276 -0.87692,0.219276 -1.53437,0.219276 z" />
    <path
       style="fill:#091016;stroke-width:0.92209888"
       inkscape:connector-curvature="0"
       id="path112"
       d="m 124.73744,46.595299 h -1.09638 l 0.21946,-1.096468 h 1.09546 l 0.21946,-0.877193 c 0.21946,-0.877192 0.43799,-1.53511 0.87691,-1.97366 0.438,-0.438643 1.09546,-0.657918 1.75291,-0.657918 0.21946,0 0.438,0 0.65746,0 0.21946,0 0.43892,0.219275 0.65745,0.219275 l -0.21853,1.096468 c -0.21946,-0.219275 -0.65838,-0.219275 -0.87692,-0.219275 -0.43892,0 -0.65746,0.219275 -1.09637,0.438643 -0.438,0.219275 -0.438,0.657825 -0.438,1.315742 l -0.21946,0.877193 h 1.53437 l -0.21946,1.096468 h -1.53345 l -0.87691,4.605238 h -1.31492 z" />
    <path
       style="fill:#091016;stroke-width:0.92209888"
       inkscape:connector-curvature="0"
       id="path114"
       d="m 27.647527,55.146198 h 8.109122 v 2.192936 h -5.917477 v 2.850853 h 5.259929 v 2.193028 h -5.259929 v 3.070128 h 6.136568 v 1.97366 h -8.328213 z" />
    <path
       style="fill:#091016;stroke-width:0.92209888"
       inkscape:connector-curvature="0"
       id="path116"
       d="m 41.45439,61.06718 -3.944923,-5.920982 h 2.849101 l 2.63001,4.385871 2.849102,-4.385871 h 2.849193 l -4.164199,5.920982 4.383382,6.359623 H 45.83768 l -2.849102,-4.605238 -3.068376,4.605238 h -2.849101 z" />
    <path
       style="fill:#091016;stroke-width:0.92209888"
       inkscape:connector-curvature="0"
       id="path118"
       d="m 55.699988,67.646078 c -1.315005,0 -2.410827,-0.219275 -3.287467,-0.657825 -0.876731,-0.438642 -1.753371,-1.315835 -2.410827,-2.193028 -0.657549,-0.877192 -0.87664,-1.97366 -0.87664,-3.289403 0,-1.315835 0.219091,-2.193028 0.87664,-3.289496 0.438273,-0.877192 1.315005,-1.754385 2.410827,-2.192935 1.095822,-0.657918 2.191645,-0.877193 3.50665,-0.877193 0.657457,0 1.315005,0 1.972462,0.219275 0.657456,0.219275 1.315005,0.438551 1.753279,0.657918 l -0.438274,2.192935 c -1.095822,-0.657917 -2.410828,-0.877192 -3.287467,-0.877192 -0.876732,0 -1.534188,0.219275 -2.191645,0.438642 -0.657548,0.43855 -1.095822,0.877193 -1.534188,1.535018 -0.438366,0.657918 -0.438366,1.315835 -0.438366,2.193028 0,1.315743 0.438366,2.192936 1.095823,3.070128 0.657548,0.657918 1.753371,1.096468 3.068376,1.096468 0.657457,0 1.095822,0 1.753279,-0.219275 0.657549,-0.219275 1.315005,-0.438643 1.753371,-0.657918 l 0.219091,2.193028 c -0.657457,0.219275 -1.095823,0.657825 -1.972462,0.657825 -0.657457,0 -1.315005,0 -1.972462,0 z" />
    <path
       style="fill:#091016;stroke-width:0.92209888"
       inkscape:connector-curvature="0"
       id="path120"
       d="m 61.836279,55.146198 h 8.109122 v 2.192936 h -5.698294 v 2.850853 h 5.040838 v 2.193028 h -5.040838 v 3.070128 h 5.917477 v 1.97366 h -8.328305 z" />
    <path
       style="fill:#091016;stroke-width:0.92209888"
       inkscape:connector-curvature="0"
       id="path122"
       d="m 72.357612,55.146198 h 2.410828 v 10.306945 h 5.479111 v 1.97366 h -7.889939 z" />
    <path
       style="fill:#091016;stroke-width:0.92209888"
       inkscape:connector-curvature="0"
       id="path124"
       d="m 82,55.146198 h 2.63001 v 10.306945 h 5.479112 v 1.97366 H 82 Z" />
    <path
       style="fill:#091016;stroke-width:0.92209888"
       inkscape:connector-curvature="0"
       id="path126"
       d="m 91.862124,55.146198 h 8.109583 v 2.192936 h -5.698755 v 2.850853 h 5.040376 v 2.193028 h -5.040376 v 3.070128 h 5.917288 v 1.97366 h -8.328116 z" />
    <path
       style="fill:#091016;stroke-width:0.92209888"
       inkscape:connector-curvature="0"
       id="path128"
       d="m 102.38207,55.146198 h 2.19091 l 6.35603,8.55256 v -8.55256 h 2.41129 v 12.280605 h -2.19183 l -6.57549,-8.333284 v 8.333284 h -2.19091 z" />
    <path
       style="fill:#091016;stroke-width:0.92209888"
       inkscape:connector-curvature="0"
       id="path130"
       d="m 121.88815,67.646078 c -1.31491,0 -2.41036,-0.219275 -3.28728,-0.657825 -0.87692,-0.438642 -1.75291,-1.315835 -2.41037,-2.193028 -0.65745,-0.877192 -0.87691,-1.97366 -0.87691,-3.289403 0,-1.315835 0.21946,-2.193028 0.87691,-3.289496 0.438,-0.877192 1.31492,-1.754385 2.41037,-2.192935 1.09638,-0.657918 2.19183,-0.877193 3.50674,-0.877193 0.65746,0 1.31492,0 1.97237,0.219275 0.65746,0.219275 1.31492,0.438551 1.75383,0.657918 l -0.43891,2.192935 c -1.09546,-0.657917 -2.41037,-0.877192 -3.28729,-0.877192 -0.87691,0 -1.53437,0.219275 -2.19183,0.438642 -0.65745,0.43855 -1.09545,0.877193 -1.53437,1.535018 -0.438,0.657918 -0.438,1.315835 -0.438,2.193028 0,1.315743 0.438,2.192936 1.09638,3.070128 0.65746,0.657918 1.75291,1.096468 3.06782,1.096468 0.65746,0 1.09546,0 1.75291,-0.219275 0.65838,-0.219275 1.31584,-0.438643 1.75383,-0.657918 l 0.21946,2.193028 c -0.65745,0.219275 -1.09637,0.657825 -1.97329,0.657825 -0.65745,0 -1.31491,0 -1.97237,0 z" />
    <path
       style="fill:#091016;stroke-width:0.92209888"
       inkscape:connector-curvature="0"
       id="path132"
       d="m 128.02472,55.146198 h 8.10894 v 2.192936 h -5.91711 v 2.850853 h 5.25965 v 2.193028 h -5.25965 v 3.070128 h 6.13657 v 1.97366 h -8.3284 z" />
    <path
       style="fill:#091016;stroke-width:0.92209888"
       inkscape:connector-curvature="0"
       id="path134"
       d="m 84.631117,27.518456 -1.972554,0.877193 -0.219091,-1.315743 2.410828,-0.877193 h 1.095822 v 7.236817 h -1.315005 z" />
    <path
       style="fill:#091016;stroke-width:0.92209888"
       inkscape:connector-curvature="0"
       id="path136"
       d="m 90.329135,29.053566 c 0.438366,0 0.657548,0 0.876731,-0.219275 0.219091,-0.219275 0.219091,-0.438642 0.219091,-0.657917 0,-0.219275 0,-0.657918 -0.219091,-0.657918 -0.219183,-0.219275 -0.438365,-0.219275 -0.876731,-0.219275 -0.438274,0 -0.657457,0 -0.87664,0.219275 -0.219183,0.219367 -0.219183,0.438643 -0.219183,0.657918 0,0.219275 0,0.657917 0.219183,0.657917 0.219183,0.219275 0.438366,0.219275 0.87664,0.219275 z m 0,3.289496 c 0.438366,0 0.657548,0 0.876731,-0.219367 0.219091,-0.219276 0.438274,-0.438551 0.438274,-0.877193 0,-0.43855 -0.219183,-0.657825 -0.438274,-0.877193 -0.219183,-0.219275 -0.438365,-0.219275 -0.876731,-0.219275 -0.438274,0 -0.657457,0 -0.87664,0.219275 -0.219183,0.219368 -0.438273,0.438643 -0.438273,0.877193 0,0.438642 0.21909,0.657917 0.438273,0.877193 0.219183,0.219367 0.438366,0.219367 0.87664,0.219367 z m 0,1.315743 c -0.438274,0 -1.095823,0 -1.314913,-0.219275 -0.438366,-0.219275 -0.657549,-0.438643 -0.876732,-0.657918 -0.219183,-0.219275 -0.438273,-0.657917 -0.438273,-1.096468 0,-0.438642 0,-0.877192 0.219182,-1.096467 0.219091,-0.219276 0.438274,-0.657918 0.87664,-0.657918 -0.219183,-0.219275 -0.657549,-0.43855 -0.657549,-0.657918 -0.219183,-0.219275 -0.219091,-0.657825 -0.219091,-1.096467 0,-0.438551 -9.2e-5,-0.657918 0.219091,-1.096468 0.219183,-0.219275 0.438366,-0.438642 0.876732,-0.657918 0.438273,-0.219275 0.876639,-0.219275 1.314913,-0.219275 0.438366,0 0.876731,0 1.315005,0.219275 0.438366,0.219276 0.657549,0.438643 0.876732,0.657918 0.21909,0.219275 0.21909,0.657917 0.21909,1.096468 0,0.438642 0,0.657917 -0.21909,1.096467 -0.219183,0.219368 -0.438366,0.438643 -0.657549,0.657918 0.438366,0.219275 0.657549,0.438642 0.876639,0.657918 0.219183,0.219275 0.219183,0.657825 0.219183,1.096467 0,0.438551 0,0.877193 -0.219183,1.096468 -0.21909,0.219275 -0.438273,0.657918 -0.876639,0.657918 -0.657457,0 -1.095822,0.219275 -1.534188,0.219275 z" />
    <path
       style="fill:#091016;stroke-width:0.92209888"
       inkscape:connector-curvature="0"
       id="path138"
       d="m 70.164861,33.43953 v -1.096468 c 0.876732,-0.657918 1.534188,-1.315835 1.972554,-1.973753 0.438273,-0.43855 0.876639,-0.8771 0.876639,-1.315743 0.219183,-0.219275 0.219183,-0.657917 0.219183,-0.877192 0,-0.219275 0,-0.657918 -0.219183,-0.657918 -0.219183,-0.219275 -0.438366,-0.219275 -0.876639,-0.219275 -0.219183,0 -0.657549,0 -0.876732,0.219275 -0.21909,0.219367 -0.657456,0.438643 -0.876639,0.657918 l -0.219183,-1.096468 c 0.219183,-0.219275 0.657549,-0.438642 1.095822,-0.657918 0.438366,-0.219275 0.876732,-0.219275 1.315005,-0.219275 0.657549,0 1.315006,0.219275 1.753371,0.657918 0.438274,0.43855 0.657457,0.877192 0.657457,1.535018 0,0.438642 -0.219183,0.877192 -0.438274,1.53511 -0.219183,0.438642 -0.657548,1.096468 -1.095822,1.53511 -0.219183,0.219275 -0.657549,0.657826 -1.095822,1.096468 h 2.849101 v 1.315743 h -5.040838 z" />
    <path
       style="fill:#091016;stroke-width:0.92209888"
       inkscape:connector-curvature="0"
       id="path140"
       d="m 78.71198,32.342601 c 0.876639,0 1.095822,-0.877193 1.095822,-2.631578 0,-1.754385 -0.438273,-2.631578 -1.095822,-2.631578 -0.87664,0 -1.095822,0.877193 -1.095822,2.631578 0,1.754385 0.219182,2.631578 1.095822,2.631578 z m 0,1.315835 c -0.87664,0 -1.534188,-0.438642 -1.972462,-1.09656 -0.438366,-0.657825 -0.657549,-1.535018 -0.657549,-2.850853 0,-1.315743 0.219183,-2.192936 0.657549,-2.850853 0.438274,-0.657918 1.095822,-0.877193 1.972462,-0.877193 0.876639,0 1.534188,0.438643 1.972462,1.096468 0.438365,0.657917 0.657548,1.53511 0.657548,2.850853 0,1.09656 -0.219183,2.193028 -0.657548,2.850945 -0.438274,0.438551 -1.095823,0.877193 -1.972462,0.877193 z" />
    <path
       style="fill:#091016;stroke-width:0.92209888"
       inkscape:connector-curvature="0"
       id="path142"
       d="m 84.631117,27.518456 -1.972554,0.877193 -0.219091,-1.315743 2.410828,-0.877193 h 1.095822 v 7.236817 h -1.315005 z" />
  </g>
</svg>
